0
SECTION
2
HEADER
9
$INSUNITS
70
4
9
$ACADVER
1
AC1014
9
$HANDSEED
5
FFFF
0
ENDSEC
0
SECTION
2
TABLES
0
TABLE
2
VPORT
5
8
100
AcDbSymbolTable
0
ENDTAB
0
TABLE
2
LTYPE
5
5
100
AcDbSymbolTable
0
LTYPE
5
14
100
AcDbSymbolTableRecord
100
AcDbLinetypeTableRecord
2
BYBLOCK
70
0
0
LTYPE
5
15
100
AcDbSymbolTableRecord
100
AcDbLinetypeTableRecord
2
BYLAYER
70
0
0
ENDTAB
0
TABLE
2
LAYER
5
2
100
AcDbSymbolTable
70
2
0
LAYER
5
50
100
AcDbSymbolTableRecord
100
AcDbLayerTableRecord
2
0
70
0
6
CONTINUOUS
0
ENDTAB
0
TABLE
2
STYLE
5
3
100
AcDbSymbolTable
70
1
0
STYLE
5
11
100
AcDbSymbolTableRecord
100
AcDbTextStyleTableRecord
2
STANDARD
70
0
0
ENDTAB
0
TABLE
2
VIEW
5
6
100
AcDbSymbolTable
70
0
0
ENDTAB
0
TABLE
2
UCS
5
7
100
AcDbSymbolTable
70
0
0
ENDTAB
0
TABLE
2
APPID
5
9
100
AcDbSymbolTable
70
2
0
APPID
5
12
100
AcDbSymbolTableRecord
100
AcDbRegAppTableRecord
2
ACAD
70
0
0
ENDTAB
0
TABLE
2
DIMSTYLE
5
A
100
AcDbSymbolTable
70
1
0
ENDTAB
0
TABLE
2
BLOCK_RECORD
5
1
100
AcDbSymbolTable
70
1
0
BLOCK_RECORD
5
1F
100
AcDbSymbolTableRecord
100
AcDbBlockTableRecord
2
*MODEL_SPACE
0
BLOCK_RECORD
5
1B
100
AcDbSymbolTableRecord
100
AcDbBlockTableRecord
2
*PAPER_SPACE
0
ENDTAB
0
ENDSEC
0
SECTION
2
BLOCKS
0
BLOCK
5
20
100
AcDbEntity
100
AcDbBlockBegin
2
*MODEL_SPACE
0
ENDBLK
5
21
100
AcDbEntity
100
AcDbBlockEnd
0
BLOCK
5
1C
100
AcDbEntity
100
AcDbBlockBegin
2
*PAPER_SPACE
0
ENDBLK
5
1D
100
AcDbEntity
100
AcDbBlockEnd
0
ENDSEC
0
SECTION
2
ENTITIES
0
LINE
5
100
100
AcDbEntity
8
0
100
AcDbLine
10
1.0202877064430604
20
3.5569296107126056e-10
30
-7.9961238346698616e-09
11
16.979712293131442
21
3.5337909250298091e-10
31
-7.9441204074314223e-09
0
SPLINE
5
101
100
AcDbEntity
8
0
100
AcDbSpline
70
1064
71
3
72
16
73
12
74
0
42
0.000000001
43
0.0000000001
44
0.0000000001
40
0
40
0
40
0
40
0
40
0.040376560530485543
40
0.040376560530485543
40
0.079322085366889561
40
0.079322085366889561
40
0.11798163276129037
40
0.11798163276129037
40
0.13898393417956623
40
0.13898393417956623
40
0.15872595588040961
40
0.15872595588040961
40
0.15872595588040961
40
0.15872595588040961
10
16.979712299310069
20
2.4679362286422757e-11
30
-8.3137711992531393e-10
10
17.11430083441169
20
2.4663734926696604e-11
30
-8.3137711347260185e-10
10
17.247811391444429
20
0.025760606780726523
30
-2.0787240556892254e-14
10
17.492831312050182
20
0.12495451071191171
30
-2.0787240556892254e-14
10
17.602929869239318
20
0.19585581669109287
30
2.7308626649698728e-09
10
17.789391187891884
20
0.37490976936628789
30
2.7308626703530414e-09
10
17.864181861360173
20
0.48106103576831677
30
4.2505009967660866e-15
10
17.944676766486204
20
0.66269688798456639
30
4.2505009967660866e-15
10
17.966071140281439
20
0.7294604099326909
30
4.2797559659124812e-16
10
17.993346372671279
20
0.86236514274742604
30
4.2797559659124812e-16
10
18.000000004237968
20
0.92790906288068786
30
-1.2805894890213717e-09
10
18.000000004856808
20
0.99364825683412705
30
-1.2805894886169789e-09
0
LINE
5
102
100
AcDbEntity
8
0
100
AcDbLine
10
18.000000004856808
20
0.99364825683412705
30
-1.2805894886169784e-09
11
18
21
17.024239332913186
31
0
0
SPLINE
5
103
100
AcDbEntity
8
0
100
AcDbSpline
70
1064
71
3
72
16
73
12
74
0
42
0.000000001
43
0.0000000001
44
0.0000000001
40
5.9457389273093996e-09
40
5.9457389273093996e-09
40
5.9457389273093996e-09
40
5.9457389273093996e-09
40
0.039913102813155535
40
0.039913102813155535
40
0.076167924546105326
40
0.076167924546105326
40
0.11213716131707269
40
0.11213716131707269
40
0.13274938967932903
40
0.13274938967932903
40
0.15245470522038215
40
0.15245470522038215
40
0.15245470522038215
40
0.15245470522038215
10
17.999999948398163
20
17.02423933291319
30
4.2620633576833888e-16
10
17.999999965736073
20
17.15728298880137
30
6.4525955930652064e-18
10
17.975415463852883
20
17.289197071304599
30
4.9548015627418096e-15
10
17.880019966137482
20
17.524152790897062
30
4.9548015627418096e-15
10
17.814572863172671
20
17.626373264845018
30
-4.0777106149631015e-09
10
17.648306645862796
20
17.799849850403561
30
-4.0777106176164653e-09
10
17.549926949565677
20
17.869064139904633
30
-1.2417831601511782e-15
10
17.378019840731223
20
17.945778739265833
30
-1.2417831601511782e-15
10
17.312565396009013
20
17.966677326228119
30
2.3696946557608287e-15
10
17.181127096744625
20
17.99352471807909
30
2.3696946557608287e-15
10
17.115744177620741
20
17.999999998689173
30
4.7982570565099119e-22
10
17.050167750221149
20
17.999999999999833
30
2.2204460661279283e-15
0
LINE
5
104
100
AcDbEntity
8
0
100
AcDbLine
10
17.050167750221149
20
17.999999999999833
30
2.2204460661279286e-15
11
0.94983224977883696
21
17.999999999999908
31
3.107444346336391e-14
0
SPLINE
5
105
100
AcDbEntity
8
0
100
AcDbSpline
70
1064
71
3
72
16
73
12
74
0
42
0.000000001
43
0.0000000001
44
0.0000000001
40
1.9798091499542959e-09
40
1.9798091499542959e-09
40
1.9798091499542959e-09
40
1.9798091499542959e-09
40
0.019623435960542928
40
0.019623435960542928
40
0.040148431726495293
40
0.040148431726495293
40
0.076052784400925319
40
0.076052784400925319
40
0.11224720632531231
40
0.11224720632531231
40
0.15220470853413251
40
0.15220470853413251
40
0.15220470853413251
40
0.15220470853413251
10
0.94983224977883529
20
17.99999999999978
30
0
10
0.88442080321513294
20
17.999999998700069
30
1.6291270041650527e-18
10
0.81920136047505931
20
17.993557258844593
30
4.738732874663781e-15
10
0.68808498657968797
20
17.966846043598899
30
4.738732874663781e-15
10
0.62278398119180267
20
17.946054299638568
30
2.4838961893202388e-15
10
0.45097217395356282
20
17.869609134901808
30
2.4817551312871425e-15
10
0.35252887758183388
20
17.800519405955104
30
-4.0640383799465147e-09
10
0.18607612896015235
20
17.627252410694275
30
-4.0640383825997097e-09
10
0.12051361399050836
20
17.525110062229107
30
6.197418011205486e-15
10
0.024720837195641651
20
17.289923424295338
30
6.1917313817896381e-15
10
3.4059908499636915e-08
20
17.157651288680864
30
1.833040727074313e-21
10
5.1416156050636264e-08
20
17.024239332913144
30
4.7941115071244443e-17
0
LINE
5
106
100
AcDbEntity
8
0
100
AcDbLine
10
5.1416156067261634e-08
20
17.024239332913144
30
4.7941115071243864e-17
11
0
21
0.99364825760331899
31
0
0
SPLINE
5
107
100
AcDbEntity
8
0
100
AcDbSpline
70
1064
71
3
72
16
73
12
74
0
42
0.000000001
43
0.0000000001
44
0.0000000001
40
0
40
0
40
0
40
0
40
0.019688257046983036
40
0.019688257046983036
40
0.040631825192304558
40
0.040631825192304558
40
0.079246873071906837
40
0.079246873071906837
40
0.1181529574549107
40
0.1181529574549107
40
0.15856343093777231
40
0.15856343093777231
40
0.15856343093777231
40
0.15856343093777231
10
-4.98048628380654e-09
20
0.99364825671513524
30
-1.3131975021285491e-09
10
-4.3505102479073784e-09
20
0.92802073322519196
30
-1.313197502532255e-09
10
0.0066310415353723028
20
0.86258748979294575
30
-7.4404225787143323e-16
10
0.033813388649889815
20
0.72990420376841403
30
-7.4443076482876907e-16
10
0.055134123913032129
20
0.66324818901886706
30
4.4269564791355097e-15
10
0.13544170609175665
20
0.48168253871901656
30
4.4247966824272077e-15
10
0.21014452736910896
20
0.37548978434282243
30
2.7384359373049612e-09
10
0.39646118948702042
20
0.19630616669627107
30
2.7384359373049612e-09
10
0.5065089514436617
20
0.12532307766301679
30
-1.9656936773901731e-14
10
0.75169158805017944
20
0.025857012141917816
30
-1.9656936773901731e-14
10
0.88544756139657999
20
2.4888000704732362e-11
30
-8.3681790663536759e-10
10
1.020287700223989
20
2.4841056945820728e-11
30
-8.3681790663536759e-10
0
LINE
5
108
100
AcDbEntity
8
0
100
AcDbLine
10
16.154229709066328
20
1.3005724339649525
30
-3.8218564137457532e-09
11
1.8457702910960538
21
1.3005724339640257
31
-3.8009327423991917e-09
0
SPLINE
5
109
100
AcDbEntity
8
0
100
AcDbSpline
70
1064
71
3
72
16
73
12
74
0
42
0.000000001
43
0.0000000001
44
0.0000000001
40
-0.079293174358482724
40
-0.079293174358482724
40
-0.079293174358482724
40
-0.079293174358482724
40
-0.059121890405589461
40
-0.059121890405589461
40
-0.039667115564521828
40
-0.039667115564521828
40
-0.020357994457412376
40
-0.020357994457412376
40
-0.0098638718338284574
40
-0.0098638718338284574
40
-0
40
-0
40
-0
40
-0
10
1.8457702882571501
20
1.300572434021624
30
-7.6107997681873485e-09
10
1.7784633236348024
20
1.3005724340218467
30
-7.6107997681873485e-09
10
1.7116950715238377
20
1.3134548733116811
30
-3.7511581486768463e-15
10
1.5891670698835432
20
1.3630592461554851
30
-3.7511581486768463e-15
10
1.5341116409387576
20
1.3985132588562474
30
-1.0995953205395189e-10
10
1.4408784256430276
20
1.4880435722192025
30
-1.0995953205395189e-10
10
1.4034842688383196
20
1.5411165125891435
30
0
10
1.3632325332824471
20
1.6319432754448171
30
0
10
1.3525329325487006
20
1.6653374494464168
30
0
10
1.3388969162175774
20
1.7318130931748741
30
0
10
1.3355734574071736
20
1.7645954512226973
30
-1.1345868689005556e-09
10
1.3355791914013293
20
1.7974750235021393
30
-1.1345868689005556e-09
0
SPLINE
5
110
100
AcDbEntity
8
0
100
AcDbSpline
70
1064
71
3
72
14
73
10
74
0
42
0.000000001
43
0.0000000001
44
0.0000000001
40
0.00048785496299160564
40
0.00048785496299160564
40
0.00048785496299160564
40
0.00048785496299160564
40
0.0058714761621795203
40
0.0058714761621795203
40
0.0058714761621795203
40
0.010597998551278028
40
0.010597998551278028
40
0.010597998551278028
40
0.014827618342048661
40
0.014827618342048661
40
0.014827618342048661
40
0.014827618342048661
10
1.3382189560865645
20
16.137238160700328
30
8.8423574018392515e-11
10
1.3378703658873765
20
14.342697794827808
30
1.3535062406646381e-10
10
1.3375289648555686
20
12.548157427545956
30
1.6689153359422965e-09
10
1.3371943583578045
20
10.75361705900869
30
2.1996930557426075e-09
10
1.3369005923135926
20
9.1781096233607418
30
2.6656866312203067e-09
10
1.3366120640853403
20
7.6026021867253384
30
2.4183694805187874e-09
10
1.3363285308003661
20
6.0270947491994527
30
1.7042479732130855e-09
10
1.3360748055675744
20
4.6172215084346311
30
1.0652025487121704e-09
10
1.3358250805827401
20
3.2073482669443987
30
8.1556378044670316e-11
10
1.3355791962092787
20
1.7974750247900251
30
3.6204881611836453e-11
0
SPLINE
5
111
100
AcDbEntity
8
0
100
AcDbSpline
70
1064
71
3
72
16
73
12
74
0
42
0.000000001
43
0.0000000001
44
0.0000000001
40
-0.076098807888640679
40
-0.076098807888640679
40
-0.076098807888640679
40
-0.076098807888640679
40
-0.056181818819130896
40
-0.056181818819130896
40
-0.038079159219405731
40
-0.038079159219405731
40
-0.020122181969974673
40
-0.020122181969974673
40
-0.0098351563070632163
40
-0.0098351563070632163
40
-1.1784397346836707e-09
40
-1.1784397346836707e-09
40
-1.1784397346836707e-09
40
-1.1784397346836707e-09
10
1.338218981423636
20
16.137238160695407
30
0
10
1.338231891729299
20
16.203737492579734
30
3.4694517705434149e-17
10
1.3505274988874696
20
16.269670797174236
30
6.7887506154289232e-16
10
1.3982231742772622
20
16.387143839170907
30
6.7603631659416987e-16
10
1.4309565987139683
20
16.438268770479525
30
5.0409191099609233e-11
10
1.5141081854191207
20
16.52502196450547
30
5.0409189772660816e-11
10
1.5633040862974226
20
16.55963248880159
30
-3.9486329767235493e-17
10
1.6492581398473647
20
16.597986973883017
30
-3.8414770145554571e-17
10
1.6819785674384578
20
16.608433906541404
30
-1.7702695855017882e-17
10
1.7476863740577153
20
16.621855656899459
30
-1.9287921017255575e-17
10
1.7803734132078006
20
16.625093113681338
30
8.1595658296893189e-19
10
1.8131572636133464
20
16.625093114457133
30
5.2041704747417386e-17
0
LINE
5
112
100
AcDbEntity
8
0
100
AcDbLine
10
1.8131572636133464
20
16.625093114457133
30
5.2041704747417392e-17
11
16.186842736386655
21
16.625093114457183
31
0
0
SPLINE
5
113
100
AcDbEntity
8
0
100
AcDbSpline
70
1064
71
3
72
16
73
12
74
0
42
0.000000001
43
0.0000000001
44
0.0000000001
40
-0.076225036429233561
40
-0.076225036429233561
40
-0.076225036429233561
40
-0.076225036429233561
40
-0.066398384263444382
40
-0.066398384263444382
40
-0.056121043743919546
40
-0.056121043743919546
40
-0.038137234971593895
40
-0.038137234971593895
40
-0.020005033128038613
40
-0.020005033128038613
40
-7.4401722021682617e-10
40
-7.4401722021682617e-10
40
-7.4401722021682617e-10
40
-7.4401722021682617e-10
10
16.186842736386659
20
16.625093114457179
30
-1.7347234915151723e-17
10
16.219544124505141
20
16.625093113686582
30
-3.4694456791017259e-17
10
16.252149453809277
20
16.621871922982411
30
1.8510544309946393e-17
10
16.317696361318902
20
16.608518234668576
30
1.8510544309946393e-17
10
16.35034010232178
20
16.598124697548585
30
2.9487861747594147e-17
10
16.436246523136237
20
16.5599048720124
30
2.8417262360241625e-17
10
16.485474210280952
20
16.525356604897713
30
4.3402242866860081e-11
10
16.568719002269031
20
16.438708194146166
30
4.3402242866860081e-11
10
16.601510099932323
20
16.387622345790881
30
6.1112003251728439e-16
10
16.649404324888096
20
16.270033887045784
30
6.0827755188976555e-16
10
16.661768072589616
20
16.203921600676544
30
-1.411555978863186e-17
10
16.661781018647808
20
16.137238160695468
30
3.4694469711327389e-17
0
SPLINE
5
114
100
AcDbEntity
8
0
100
AcDbSpline
70
1064
71
3
72
14
73
10
74
0
42
0.000000001
43
0.0000000001
44
0.0000000001
40
0.00048785496299162668
40
0.00048785496299162668
40
0.00048785496299162668
40
0.00048785496299162668
40
0.0058718878710215779
40
0.0058718878710215779
40
0.0058718878710215779
40
0.010598204405699098
40
0.010598204405699098
40
0.010598204405699098
40
0.01482761834204871
40
0.01482761834204871
40
0.01482761834204871
40
0.01482761834204871
10
16.661781043913436
20
16.137238160700374
30
8.84242072941052e-11
10
16.662129660770827
20
14.342560558549764
30
1.3535446947597357e-10
10
16.66247108736172
20
12.547882954989593
30
1.6691095846442734e-09
10
16.662805718408503
20
10.753205350173838
30
2.1998147411734364e-09
10
16.663099470745539
20
9.1777665326648581
30
2.6656887509728493e-09
10
16.663387985744802
20
7.6023277141685162
30
2.4182766303687626e-09
10
16.663671506245812
20
6.0268888947817683
30
1.7041577719291434e-09
10
16.663925218740395
20
4.6170842721561032
30
1.0651180106473104e-09
10
16.66417493138438
20
3.2072796488051072
30
8.1553736279379273e-11
10
16.664420803790719
20
1.7974750247900273
30
3.6203943488966051e-11
0
SPLINE
5
115
100
AcDbEntity
8
0
100
AcDbSpline
70
1064
71
3
72
16
73
12
74
0
42
0.000000001
43
0.0000000001
44
0.0000000001
40
-0.079375251034713878
40
-0.079375251034713878
40
-0.079375251034713878
40
-0.079375251034713878
40
-0.069517960585661356
40
-0.069517960585661356
40
-0.059031610387797154
40
-0.059031610387797154
40
-0.039704965640336452
40
-0.039704965640336452
40
-0.020229837782983887
40
-0.020229837782983887
40
-0
40
-0
40
-0
40
-0
10
16.664420808667661
20
1.7974750234829442
30
-1.1514100783927006e-09
10
16.66442653292232
20
1.7646512836276007
30
-1.1514100783927006e-09
10
16.661114361328217
20
1.7319242624526965
30
-9.4144014867049685e-20
10
16.647524786598421
20
1.6655593470413343
30
1.0015197523409785e-19
10
16.636862012554293
20
1.6322189308426138
30
0
10
16.596703957615087
20
1.5414272788167001
30
0
10
16.559353735696838
20
1.4883336027327732
30
-1.1672456272968608e-10
10
16.466192873472671
20
1.3987384662970963
30
-1.1672456272968608e-10
10
16.41116285684291
20
1.3632435620001719
30
2.7785562574354799e-18
10
16.288553492209367
20
1.3135030848804075
30
-2.8862322635583293e-18
10
16.221662504530808
20
1.3005724340230553
30
-7.6526951442446034e-09
10
16.154229711920863
20
1.3005724340228688
30
-7.6526951442446034e-09
0
LWPOLYLINE
5
116
100
AcDbEntity
8
0
100
AcDbPolyline
90
12
70
1
43
0.0
10
9.5999999875341366
20
10.962832774126559
10
8.4000000124658616
20
10.962832774126552
10
8.3999999999999986
20
9.562832774485468
10
7.0000000035718779
20
9.5628327741265569
10
7.0000000037916887
20
8.3628327747589406
10
8.4000000002253188
20
8.3628327741265593
10
8.3999999999999986
20
6.9628327745012903
10
9.5999999865942716
20
6.9628327741265572
10
9.5999999999999979
20
8.3628327744905935
10
10.999999996151153
20
8.3628327741265593
10
10.999999996500208
20
9.5628327747212971
10
9.5999999997795609
20
9.5628327741265569
0
SPLINE
5
117
100
AcDbEntity
8
0
100
AcDbSpline
70
1064
71
3
72
11
73
7
74
0
42
0.000000001
43
0.0000000001
44
0.0000000001
40
0.00048999044848469777
40
0.00048999044848469777
40
0.00048999044848469777
40
0.00048999044848469777
40
0.0059160156265776961
40
0.0059160156265776961
40
0.0059160156265776961
40
0.011331880589166893
40
0.011331880589166893
40
0.011331880589166893
40
0.011331880589166893
10
14.382777389244827
20
12.924732588085657
30
0
10
14.381340384951164
20
11.11710818467059
30
0
10
14.379932424913989
20
9.3094832895654793
30
0
10
14.378551942007336
20
7.5018579179305007
30
0
10
14.377174044050694
20
5.6976173192597361
30
0
10
14.375823521075926
20
3.8933762453203995
30
0
10
14.374498921074714
20
2.0891347102577558
30
0
0
SPLINE
5
118
100
AcDbEntity
8
0
100
AcDbSpline
70
1064
71
3
72
16
73
12
74
0
42
0.000000001
43
0.0000000001
44
0.0000000001
40
0
40
0
40
0
40
0
40
0.018661777472922116
40
0.018661777472922116
40
0.038240566776566176
40
0.038240566776566176
40
0.057456948341587183
40
0.057456948341587183
40
0.06729787929877179
40
0.06729787929877179
40
0.076608616864867848
40
0.076608616864867848
40
0.076608616864867848
40
0.076608616864867848
10
14.382777388302372
20
12.924732607820317
30
0
10
14.382826805761741
20
12.986902397650422
30
0
10
14.372795486864291
20
13.048743413784724
30
0
10
14.331595038022565
20
13.168786409220335
30
0
10
14.299674533121303
20
13.225866818475316
30
0
10
14.2168017191165
20
13.323404860200885
30
0
10
14.167035422732146
20
13.363157819971372
30
0
10
14.081871537155248
20
13.406245539979873
30
0
10
14.051612041310896
20
13.417728993106374
30
0
10
13.990775796202273
20
13.433631244206758
30
0
10
13.960519095259469
20
13.43834100303361
30
0
10
13.929970546179513
20
13.439985219248051
30
0
0
SPLINE
5
119
100
AcDbEntity
8
0
100
AcDbSpline
70
1064
71
3
72
10
73
6
74
0
42
0.000000001
43
0.0000000001
44
0.0000000001
40
-0.98959657582191152
40
-0.98959657582191152
40
-0.98959657582191152
40
-0.98959657582191152
40
-0.4947716957843229
40
-0.4947716957843229
40
-1.3469358887665794e-06
40
-1.3469358887665794e-06
40
-1.3469358887665794e-06
40
-1.3469358887665794e-06
10
4.0700294540191182
20
13.439985218958633
30
0
10
5.6973518039780284
20
13.52757227482723
30
0
10
7.3506974214599383
20
13.572049104797907
30
0
10
10.649658380844444
20
13.57203944128621
30
0
10
12.302821604485093
20
13.527562942669164
30
0
10
13.929970546179513
20
13.439985219248058
30
0
0
SPLINE
5
120
100
AcDbEntity
8
0
100
AcDbSpline
70
1064
71
3
72
16
73
12
74
0
42
0.000000001
43
0.0000000001
44
0.0000000001
40
6.2620145086268732e-09
40
6.2620145086268732e-09
40
6.2620145086268732e-09
40
6.2620145086268732e-09
40
0.0092694500721220117
40
0.0092694500721220117
40
0.01906586096717898
40
0.01906586096717898
40
0.038232493897074137
40
0.038232493897074137
40
0.057763617084926056
40
0.057763617084926056
40
0.076429522157310581
40
0.076429522157310581
40
0.076429522157310581
40
0.076429522157310581
10
4.0700294540191173
20
13.439985218958629
30
0
10
4.0395450798106474
20
13.438344456841394
30
0
10
4.0093511012302301
20
13.433651006166301
30
0
10
3.9486386906545285
20
13.417808616505143
30
0
10
3.9184381965105652
20
13.406370266055372
30
0
10
3.8333141242256752
20
13.363396649837419
30
0
10
3.7835250762211632
20
13.323699545174787
30
0
10
3.700578400473622
20
13.22625551513682
30
0
10
3.6686106605072992
20
13.169210153607761
30
0
10
3.6272561233892837
20
13.049060344433039
30
0
10
3.617173067289325
20
12.987062130598606
30
0
10
3.6172226117246833
20
12.924732607787245
30
0
0
SPLINE
5
121
100
AcDbEntity
8
0
100
AcDbSpline
70
1064
71
3
72
11
73
7
74
0
42
0.000000001
43
0.0000000001
44
0.0000000001
40
0.00050015067211246658
40
0.00050015067211246658
40
0.00050015067211246658
40
0.00050015067211246658
40
0.005916015626722451
40
0.005916015626722451
40
0.005916015626722451
40
0.011342040812927258
40
0.011342040812927258
40
0.011342040812927258
40
0.011342040812927258
10
3.6255010789580444
20
2.0891347102639028
30
0
10
3.6241764789561
20
3.8933762426458474
30
0
10
3.6228259559808378
20
5.6976173139045017
30
0
10
3.6214480580239639
20
7.5018579098946061
30
0
10
3.6200675751129836
20
9.3094832842094419
30
0
10
3.6186596150715742
20
11.117108181994427
30
0
10
3.6172226107737471
20
12.924732588089382
30
0
0
SPLINE
5
122
100
AcDbEntity
8
0
100
AcDbSpline
70
1064
71
3
72
18
73
14
74
0
42
0.000000001
43
0.0000000001
44
0.0000000001
40
0
40
0
40
0
40
0
40
0.0097314874578699351
40
0.0097314874578699351
40
0.02007575480883813
40
0.02007575480883813
40
0.039375519060872874
40
0.039375519060872874
40
0.058687686135865474
40
0.058687686135865474
40
0.069040312234732532
40
0.069040312234732532
40
0.07878438945526936
40
0.07878438945526936
40
0.07878438945526936
40
0.07878438945526936
10
3.6255010581758413
20
2.089134707222561
30
0
10
3.6255248595354832
20
2.0567152248473914
30
0
10
3.6286584044862833
20
2.0243561727513444
30
0
10
3.6414457722442828
20
1.9586700669906865
30
0
10
3.6514632393213624
20
1.925587542848991
30
0
10
3.6895380281104178
20
1.8344819074555394
30
0
10
3.7253465133852903
20
1.7805183589780491
30
0
10
3.8151134009022023
20
1.6891717021550052
30
0
10
3.8682418048176204
20
1.6526560185051413
30
0
10
3.9580316028506966
20
1.6137028878261512
30
0
10
3.9906574714506799
20
1.6034189492241668
30
0
10
4.0554899689868886
20
1.5901928478246543
30
0
10
4.0874566267585202
20
1.5868856370837245
30
0
10
4.1195046460391955
20
1.5867285578851646
30
0
0
SPLINE
5
123
100
AcDbEntity
8
0
100
AcDbSpline
70
1064
71
3
72
10
73
6
74
0
42
0.000000001
43
0.0000000001
44
0.0000000001
40
1.479831781143985e-06
40
1.479831781143985e-06
40
1.479831781143985e-06
40
1.479831781143985e-06
40
0.48985133771424688
40
0.48985133771424688
40
0.97964739580093785
40
0.97964739580093785
40
0.97964739580093785
40
0.97964739580093785
10
13.880495358538143
20
1.5867285571567344
30
0
10
12.269501833546547
20
1.5788324812504055
30
0
10
10.632738747609437
20
1.5748210299552428
30
0
10
7.3669100654643209
20
1.5748218986235916
30
0
10
5.7303269072183403
20
1.5788333207756644
30
0
10
4.11950464172598
20
1.5867285571898104
30
0
0
SPLINE
5
124
100
AcDbEntity
8
0
100
AcDbSpline
70
1064
71
3
72
16
73
12
74
0
42
0.000000001
43
0.0000000001
44
0.0000000001
40
0
40
0
40
0
40
0
40
0.020112872825379324
40
0.020112872825379324
40
0.039425360652915811
40
0.039425360652915811
40
0.058728088344356597
40
0.058728088344356597
40
0.069091403585957625
40
0.069091403585957625
40
0.078840138090923106
40
0.078840138090923106
40
0.078840138090923106
40
0.078840138090923106
10
13.880495354223971
20
1.5867285578522441
30
0
10
13.946641555845954
20
1.5870527648604091
30
0
10
14.012098129122046
20
1.6007948913094423
30
0
10
14.13145658577265
20
1.6524769408975046
30
0
10
14.184606682175092
20
1.6889523291906068
30
0
10
14.274438187942165
20
1.7802341984078021
30
0
10
14.310286624195035
20
1.8341762533815074
30
0
10
14.348448501099087
20
1.9253156620794436
30
0
10
14.358500300988112
20
1.9584515962058748
30
0
10
14.371330994424396
20
2.024246917415677
30
0
10
14.374475100279181
20
2.0566604292367243
30
0
10
14.374498941867992
20
2.0891347072156714
30
0
0
SPLINE
5
125
100
AcDbEntity
8
0
100
AcDbSpline
70
1064
71
3
72
43
73
39
74
0
42
0.000000001
43
0.0000000001
44
0.0000000001
40
0.85456800785725129
40
0.85456800785725129
40
0.85456800785725129
40
0.85456800785725129
40
0.93145115177991666
40
0.93145115177991666
40
1.0389740449150922
40
1.0389740449150922
40
1.1367824309703565
40
1.1367824309703565
40
1.2367880407830802
40
1.2367880407830802
40
1.3352474476378702
40
1.3352474476378702
40
1.4376474301827984
40
1.4376474301827984
40
1.5454036209347195
40
1.5454036209347195
40
1.6506513153537807
40
1.6506513153537807
40
1.7090737830698726
40
1.7090737830698726
40
1.7090737830698726
40
1.8156500597922007
40
1.8156500597922007
40
1.9234278622035876
40
1.9234278622035876
40
2.020743067842758
40
2.020743067842758
40
2.1210821498647539
40
2.1210821498647539
40
2.2194198699738958
40
2.2194198699738958
40
2.3216433276581023
40
2.3216433276581023
40
2.4297402354746458
40
2.4297402354746458
40
2.5347241103954037
40
2.5347241103954037
40
2.5636417909271239
40
2.5636417909271239
40
2.5636417909271239
40
2.5636417909271239
10
8.9999999999669136
20
11.672832774126555
30
0
10
9.2552386278508276
20
11.672836825295104
30
0
10
9.5096344864533222
20
11.636777219518656
30
0
10
10.099621501530445
20
11.465481302286168
30
0
10
10.420154464967721
20
11.298472629608538
30
0
10
10.952360445540339
20
10.870256390729052
30
0
10
11.167049101068248
20
10.622300541687032
30
0
10
11.501961069260989
20
10.055963313581781
30
0
10
11.617216987601919
20
9.7407577016883433
30
0
10
11.726840272595581
20
9.0890530274836436
30
0
10
11.72213379438525
20
8.758439658677764
30
0
10
11.592120232425692
20
8.1017322793979787
30
0
10
11.463200683082878
20
7.7824882957526498
30
0
10
11.083979871030978
20
7.1936234436331805
30
0
10
10.831464448141553
20
6.9333593626257244
30
0
10
10.246648328573665
20
6.531174983676884
30
0
10
9.9217992609323939
20
6.3903930709799841
30
0
10
9.3888745349064688
20
6.2738189959620296
30
0
10
9.1947137344020664
20
6.2528307747918133
30
0
10
8.9999721753587263
20
6.2528327742693577
30
0
10
8.6447179196364203
20
6.2528364217851253
30
0
10
8.2929792231466699
20
6.3226874886613
30
0
10
7.6328135075898027
20
6.5955755155894984
30
0
10
7.3314579781553579
20
6.7974116883698619
30
0
10
6.8496021102239855
20
7.2820461917858204
30
0
10
6.6640563962495305
20
7.5512100015939776
30
0
10
6.392744800464758
20
8.1515549244680674
30
0
10
6.312642273034486
20
8.4791055462699187
30
0
10
6.2760243057783409
20
9.1401043331066489
30
0
10
6.3173881875352
20
9.4676208633737051
30
0
10
6.5185897159564723
20
10.104083273917082
30
0
10
6.6812740686858429
20
10.406158468430046
30
0
10
7.1219516503613534
20
10.949356522013449
30
0
10
7.4018574989293597
20
11.180833662651022
30
0
10
8.0269271067625318
20
11.516137659060377
30
0
10
8.3641095989180378
20
11.620309327851214
30
0
10
8.807877456770079
20
11.667731767822183
30
0
10
8.9039983404587257
20
11.672834135387529
30
0
10
8.9999999999669171
20
11.672832774126555
30
0
0
LINE
5
126
100
AcDbEntity
8
0
100
AcDbLine
10
17.999999975957873
20
17.024239332913186
30
0
11
18.000000003338222
21
0.99364825770027698
31
0
0
SPLINE
5
127
100
AcDbEntity
8
0
100
AcDbSpline
70
1064
71
3
72
16
73
12
74
0
42
0.000000001
43
0.0000000001
44
0.0000000001
40
0
40
0
40
0
40
0
40
0.040376560530485543
40
0.040376560530485543
40
0.079322085366889561
40
0.079322085366889561
40
0.11798163276129037
40
0.11798163276129037
40
0.13898393417956623
40
0.13898393417956623
40
0.15872595588040961
40
0.15872595588040961
40
0.15872595588040961
40
0.15872595588040961
10
16.979712299310069
20
2.4679362286422757e-11
30
0
10
17.11430083441169
20
2.4663734926696604e-11
30
0
10
17.247811391444429
20
0.025760606780726523
30
0
10
17.492831312050182
20
0.12495451071191171
30
0
10
17.602929869239318
20
0.19585581669109287
30
0
10
17.789391187891884
20
0.37490976936628789
30
0
10
17.864181861360173
20
0.48106103576831677
30
0
10
17.944676766486204
20
0.66269688798456639
30
0
10
17.966071140281439
20
0.7294604099326909
30
0
10
17.993346372671279
20
0.86236514274742604
30
0
10
18.000000004237968
20
0.92790906288068786
30
0
10
18.000000004856808
20
0.99364825683412705
30
0
0
LINE
5
128
100
AcDbEntity
8
0
100
AcDbLine
10
1.0202877064430604
20
3.5569296107126056e-10
30
0
11
16.979712299310069
21
2.4679362286422757e-11
31
0
0
SPLINE
5
129
100
AcDbEntity
8
0
100
AcDbSpline
70
1064
71
3
72
16
73
12
74
0
42
0.000000001
43
0.0000000001
44
0.0000000001
40
0
40
0
40
0
40
0
40
0.019688257046983036
40
0.019688257046983036
40
0.040631825192304558
40
0.040631825192304558
40
0.079246873071906837
40
0.079246873071906837
40
0.1181529574549107
40
0.1181529574549107
40
0.15856343093777231
40
0.15856343093777231
40
0.15856343093777231
40
0.15856343093777231
10
-4.98048628380654e-09
20
0.99364825671513524
30
0
10
-4.3505102479073784e-09
20
0.92802073322519196
30
0
10
0.0066310415353723028
20
0.86258748979294575
30
0
10
0.033813388649889815
20
0.72990420376841403
30
0
10
0.055134123913032129
20
0.66324818901886706
30
0
10
0.13544170609175665
20
0.48168253871901656
30
0
10
0.21014452736910896
20
0.37548978434282243
30
0
10
0.39646118948702042
20
0.19630616669627107
30
0
10
0.5065089514436617
20
0.12532307766301679
30
0
10
0.75169158805017944
20
0.025857012141917816
30
0
10
0.88544756139657999
20
2.4888000704732362e-11
30
0
10
1.020287700223989
20
2.4841056945820728e-11
30
0
0
LINE
5
130
100
AcDbEntity
8
0
100
AcDbLine
10
2.3955615211977601e-08
20
17.02423933291314
30
0
11
-4.98048628380654e-09
21
0.99364825671513524
31
0
0
SPLINE
5
131
100
AcDbEntity
8
0
100
AcDbSpline
70
1064
71
3
72
16
73
12
74
0
42
0.000000001
43
0.0000000001
44
0.0000000001
40
1.9798091499542959e-09
40
1.9798091499542959e-09
40
1.9798091499542959e-09
40
1.9798091499542959e-09
40
0.019623435960542928
40
0.019623435960542928
40
0.040148431726495293
40
0.040148431726495293
40
0.076052784400925319
40
0.076052784400925319
40
0.11224720632531231
40
0.11224720632531231
40
0.15220470853413251
40
0.15220470853413251
40
0.15220470853413251
40
0.15220470853413251
10
0.94983224977883529
20
17.99999999999978
30
0
10
0.88442080321513294
20
17.999999998700069
30
0
10
0.81920136047505931
20
17.993557258844593
30
0
10
0.68808498657968797
20
17.966846043598899
30
0
10
0.62278398119180267
20
17.946054299638568
30
0
10
0.45097217395356282
20
17.869609134901808
30
0
10
0.35252887758183388
20
17.800519405955104
30
0
10
0.18607612896015235
20
17.627252410694275
30
0
10
0.12051361399050836
20
17.525110062229107
30
0
10
0.024720837195641651
20
17.289923424295338
30
0
10
3.4059908499636915e-08
20
17.157651288680864
30
0
10
5.1416156050636264e-08
20
17.024239332913144
30
0
0
LINE
5
132
100
AcDbEntity
8
0
100
AcDbLine
10
0.94983224977883529
20
17.99999999999978
30
0
11
17.050167750221146
21
17.999999999999932
31
0
0
SPLINE
5
133
100
AcDbEntity
8
0
100
AcDbSpline
70
1064
71
3
72
16
73
12
74
0
42
0.000000001
43
0.0000000001
44
0.0000000001
40
5.9457389273093996e-09
40
5.9457389273093996e-09
40
5.9457389273093996e-09
40
5.9457389273093996e-09
40
0.039913102813155535
40
0.039913102813155535
40
0.076167924546105326
40
0.076167924546105326
40
0.11213716131707269
40
0.11213716131707269
40
0.13274938967932903
40
0.13274938967932903
40
0.15245470522038215
40
0.15245470522038215
40
0.15245470522038215
40
0.15245470522038215
10
17.999999948398163
20
17.02423933291319
30
0
10
17.999999965736073
20
17.15728298880137
30
0
10
17.975415463852883
20
17.289197071304599
30
0
10
17.880019966137482
20
17.524152790897062
30
0
10
17.814572863172671
20
17.626373264845018
30
0
10
17.648306645862796
20
17.799849850403561
30
0
10
17.549926949565677
20
17.869064139904633
30
0
10
17.378019840731223
20
17.945778739265833
30
0
10
17.312565396009013
20
17.966677326228119
30
0
10
17.181127096744625
20
17.99352471807909
30
0
10
17.115744177620741
20
17.999999998689173
30
0
10
17.050167750221149
20
17.999999999999833
30
0
0
SPLINE
5
134
100
AcDbEntity
8
0
100
AcDbSpline
70
1064
71
3
72
14
73
10
74
0
42
0.000000001
43
0.0000000001
44
0.0000000001
40
0.00048785496299162668
40
0.00048785496299162668
40
0.00048785496299162668
40
0.00048785496299162668
40
0.0058718878710215779
40
0.0058718878710215779
40
0.0058718878710215779
40
0.010598204405699098
40
0.010598204405699098
40
0.010598204405699098
40
0.01482761834204871
40
0.01482761834204871
40
0.01482761834204871
40
0.01482761834204871
10
16.661781043913436
20
16.137238160700374
30
0
10
16.662129660770827
20
14.342560558549764
30
0
10
16.66247108736172
20
12.547882954989593
30
0
10
16.662805718408503
20
10.753205350173838
30
0
10
16.663099470745539
20
9.1777665326648581
30
0
10
16.663387985744802
20
7.6023277141685162
30
0
10
16.663671506245812
20
6.0268888947817683
30
0
10
16.663925218740395
20
4.6170842721561032
30
0
10
16.66417493138438
20
3.2072796488051072
30
0
10
16.664420803790719
20
1.7974750247900273
30
0
0
SPLINE
5
135
100
AcDbEntity
8
0
100
AcDbSpline
70
1064
71
3
72
16
73
12
74
0
42
0.000000001
43
0.0000000001
44
0.0000000001
40
-0.079375251034713878
40
-0.079375251034713878
40
-0.079375251034713878
40
-0.079375251034713878
40
-0.069517960585661356
40
-0.069517960585661356
40
-0.059031610387797154
40
-0.059031610387797154
40
-0.039704965640336452
40
-0.039704965640336452
40
-0.020229837782983887
40
-0.020229837782983887
40
0
40
0
40
0
40
0
10
16.664420808667661
20
1.7974750234829442
30
0
10
16.66442653292232
20
1.7646512836276007
30
0
10
16.661114361328217
20
1.7319242624526965
30
0
10
16.647524786598421
20
1.6655593470413343
30
0
10
16.636862012554293
20
1.6322189308426138
30
0
10
16.596703957615087
20
1.5414272788167001
30
0
10
16.559353735696838
20
1.4883336027327732
30
0
10
16.466192873472671
20
1.3987384662970963
30
0
10
16.41116285684291
20
1.3632435620001719
30
0
10
16.288553492209367
20
1.3135030848804075
30
0
10
16.221662504530808
20
1.3005724340230553
30
0
10
16.154229711920863
20
1.3005724340228688
30
0
0
LINE
5
136
100
AcDbEntity
8
0
100
AcDbLine
10
1.8457702910960547
20
1.3005724339640257
30
0
11
16.154229711920863
21
1.3005724340228686
31
0
0
SPLINE
5
137
100
AcDbEntity
8
0
100
AcDbSpline
70
1064
71
3
72
16
73
12
74
0
42
0.000000001
43
0.0000000001
44
0.0000000001
40
-0.079293174358482724
40
-0.079293174358482724
40
-0.079293174358482724
40
-0.079293174358482724
40
-0.059121890405589461
40
-0.059121890405589461
40
-0.039667115564521828
40
-0.039667115564521828
40
-0.020357994457412376
40
-0.020357994457412376
40
-0.0098638718338284574
40
-0.0098638718338284574
40
0
40
0
40
0
40
0
10
1.8457702882571501
20
1.300572434021624
30
0
10
1.7784633236348024
20
1.3005724340218467
30
0
10
1.7116950715238377
20
1.3134548733116811
30
0
10
1.5891670698835432
20
1.3630592461554851
30
0
10
1.5341116409387576
20
1.3985132588562474
30
0
10
1.4408784256430276
20
1.4880435722192025
30
0
10
1.4034842688383196
20
1.5411165125891435
30
0
10
1.3632325332824471
20
1.6319432754448171
30
0
10
1.3525329325487006
20
1.6653374494464168
30
0
10
1.3388969162175774
20
1.7318130931748741
30
0
10
1.3355734574071736
20
1.7645954512226973
30
0
10
1.3355791914013293
20
1.7974750235021393
30
0
0
SPLINE
5
138
100
AcDbEntity
8
0
100
AcDbSpline
70
1064
71
3
72
14
73
10
74
0
42
0.000000001
43
0.0000000001
44
0.0000000001
40
0.00048785496299160564
40
0.00048785496299160564
40
0.00048785496299160564
40
0.00048785496299160564
40
0.0058714761621795203
40
0.0058714761621795203
40
0.0058714761621795203
40
0.010597998551278028
40
0.010597998551278028
40
0.010597998551278028
40
0.014827618342048661
40
0.014827618342048661
40
0.014827618342048661
40
0.014827618342048661
10
1.3382189560865645
20
16.137238160700328
30
0
10
1.3378703658873765
20
14.342697794827808
30
0
10
1.3375289648555686
20
12.548157427545956
30
0
10
1.3371943583578045
20
10.75361705900869
30
0
10
1.3369005923135926
20
9.1781096233607418
30
0
10
1.3366120640853403
20
7.6026021867253384
30
0
10
1.3363285308003661
20
6.0270947491994527
30
0
10
1.3360748055675744
20
4.6172215084346311
30
0
10
1.3358250805827401
20
3.2073482669443987
30
0
10
1.3355791962092787
20
1.7974750247900251
30
0
0
SPLINE
5
139
100
AcDbEntity
8
0
100
AcDbSpline
70
1064
71
3
72
16
73
12
74
0
42
0.000000001
43
0.0000000001
44
0.0000000001
40
-0.076098807888640679
40
-0.076098807888640679
40
-0.076098807888640679
40
-0.076098807888640679
40
-0.056181818819130896
40
-0.056181818819130896
40
-0.038079159219405731
40
-0.038079159219405731
40
-0.020122181969974673
40
-0.020122181969974673
40
-0.0098351563070632163
40
-0.0098351563070632163
40
-1.1784397346836707e-09
40
-1.1784397346836707e-09
40
-1.1784397346836707e-09
40
-1.1784397346836707e-09
10
1.338218981423636
20
16.137238160695407
30
0
10
1.338231891729299
20
16.203737492579734
30
0
10
1.3505274988874696
20
16.269670797174236
30
0
10
1.3982231742772622
20
16.387143839170907
30
0
10
1.4309565987139683
20
16.438268770479525
30
0
10
1.5141081854191207
20
16.52502196450547
30
0
10
1.5633040862974226
20
16.55963248880159
30
0
10
1.6492581398473647
20
16.597986973883017
30
0
10
1.6819785674384578
20
16.608433906541404
30
0
10
1.7476863740577153
20
16.621855656899459
30
0
10
1.7803734132078006
20
16.625093113681338
30
0
10
1.8131572636133464
20
16.625093114457133
30
0
0
LINE
5
140
100
AcDbEntity
8
0
100
AcDbLine
10
1.8131572636133464
20
16.625093114457133
30
0
11
16.186842736386655
21
16.625093114457183
31
0
0
SPLINE
5
141
100
AcDbEntity
8
0
100
AcDbSpline
70
1064
71
3
72
16
73
12
74
0
42
0.000000001
43
0.0000000001
44
0.0000000001
40
-0.076225036429233561
40
-0.076225036429233561
40
-0.076225036429233561
40
-0.076225036429233561
40
-0.066398384263444382
40
-0.066398384263444382
40
-0.056121043743919546
40
-0.056121043743919546
40
-0.038137234971593895
40
-0.038137234971593895
40
-0.020005033128038613
40
-0.020005033128038613
40
-7.4401722021682617e-10
40
-7.4401722021682617e-10
40
-7.4401722021682617e-10
40
-7.4401722021682617e-10
10
16.186842736386659
20
16.625093114457179
30
0
10
16.219544124505141
20
16.625093113686582
30
0
10
16.252149453809277
20
16.621871922982411
30
0
10
16.317696361318902
20
16.608518234668576
30
0
10
16.35034010232178
20
16.598124697548585
30
0
10
16.436246523136237
20
16.5599048720124
30
0
10
16.485474210280952
20
16.525356604897713
30
0
10
16.568719002269031
20
16.438708194146166
30
0
10
16.601510099932323
20
16.387622345790881
30
0
10
16.649404324888096
20
16.270033887045784
30
0
10
16.661768072589616
20
16.203921600676544
30
0
10
16.661781018647808
20
16.137238160695468
30
0
0
ENDSEC
0
SECTION
2
OBJECTS
0
DICTIONARY
5
C
100
AcDbDictionary
3
ACAD_GROUP
350
D
3
ACAD_MLINESTYLE
350
17
0
DICTIONARY
5
D
100
AcDbDictionary
0
DICTIONARY
5
1A
330
C
100
AcDbDictionary
0
DICTIONARY
5
17
100
AcDbDictionary
0
ENDSEC
0
EOF
