0
SECTION
2
HEADER
9
$INSUNITS
70
4
9
$ACADVER
1
AC1014
9
$HANDSEED
5
FFFF
0
ENDSEC
0
SECTION
2
TABLES
0
TABLE
2
VPORT
5
8
100
AcDbSymbolTable
0
ENDTAB
0
TABLE
2
LTYPE
5
5
100
AcDbSymbolTable
0
LTYPE
5
14
100
AcDbSymbolTableRecord
100
AcDbLinetypeTableRecord
2
BYBLOCK
70
0
0
LTYPE
5
15
100
AcDbSymbolTableRecord
100
AcDbLinetypeTableRecord
2
BYLAYER
70
0
0
ENDTAB
0
TABLE
2
LAYER
5
2
100
AcDbSymbolTable
70
2
0
LAYER
5
50
100
AcDbSymbolTableRecord
100
AcDbLayerTableRecord
2
0
70
0
6
CONTINUOUS
0
ENDTAB
0
TABLE
2
STYLE
5
3
100
AcDbSymbolTable
70
1
0
STYLE
5
11
100
AcDbSymbolTableRecord
100
AcDbTextStyleTableRecord
2
STANDARD
70
0
0
ENDTAB
0
TABLE
2
VIEW
5
6
100
AcDbSymbolTable
70
0
0
ENDTAB
0
TABLE
2
UCS
5
7
100
AcDbSymbolTable
70
0
0
ENDTAB
0
TABLE
2
APPID
5
9
100
AcDbSymbolTable
70
2
0
APPID
5
12
100
AcDbSymbolTableRecord
100
AcDbRegAppTableRecord
2
ACAD
70
0
0
ENDTAB
0
TABLE
2
DIMSTYLE
5
A
100
AcDbSymbolTable
70
1
0
ENDTAB
0
TABLE
2
BLOCK_RECORD
5
1
100
AcDbSymbolTable
70
1
0
BLOCK_RECORD
5
1F
100
AcDbSymbolTableRecord
100
AcDbBlockTableRecord
2
*MODEL_SPACE
0
BLOCK_RECORD
5
1B
100
AcDbSymbolTableRecord
100
AcDbBlockTableRecord
2
*PAPER_SPACE
0
ENDTAB
0
ENDSEC
0
SECTION
2
BLOCKS
0
BLOCK
5
20
100
AcDbEntity
100
AcDbBlockBegin
2
*MODEL_SPACE
0
ENDBLK
5
21
100
AcDbEntity
100
AcDbBlockEnd
0
BLOCK
5
1C
100
AcDbEntity
100
AcDbBlockBegin
2
*PAPER_SPACE
0
ENDBLK
5
1D
100
AcDbEntity
100
AcDbBlockEnd
0
ENDSEC
0
SECTION
2
ENTITIES
0
LWPOLYLINE
5
100
100
AcDbEntity
8
0
100
AcDbPolyline
90
12
70
1
43
0.0
10
42.250000000000014
20
-10.000000000000016
10
42.250000000000014
20
-8.2999999999999865
10
40.850000000000009
20
-8.2999999999999865
10
40.850000000000009
20
-6.8999999999999861
10
39.149999999999984
20
-6.8999999999999861
10
39.149999999999984
20
-8.2999999999999865
10
37.749999999999986
20
-8.2999999999999865
10
37.749999999999986
20
-10.000000000000016
10
39.149999999999984
20
-10.000000000000016
10
39.149999999999984
20
-11.400000000000015
10
40.850000000000009
20
-11.400000000000015
10
40.850000000000009
20
-10.000000000000016
0
CIRCLE
5
101
100
AcDbEntity
8
0
100
AcDbCircle
10
40
20
-9.1500000000000004
30
0
40
2.6999999999999997
0
LWPOLYLINE
5
102
100
AcDbEntity
8
0
100
AcDbPolyline
90
12
70
1
43
0.0
10
40.599999999999994
20
-8.5499999999999972
10
40.599999999999994
20
-7.150000000000003
10
39.399999999999999
20
-7.1500000000000004
10
39.399999999999999
20
-8.5500000000000007
10
38
20
-8.5500000000000007
10
38
20
-9.7500000000000036
10
39.399999999999999
20
-9.75
10
39.399999999999999
20
-11.150000000000002
10
40.599999999999994
20
-11.15
10
40.599999999999994
20
-9.7500000000000036
10
42
20
-9.75
10
42
20
-8.5500000000000025
0
CIRCLE
5
103
100
AcDbEntity
8
0
100
AcDbCircle
10
40
20
-9.1500000000000004
30
0
40
2.6999999999999997
0
LWPOLYLINE
5
104
100
AcDbEntity
8
0
100
AcDbPolyline
90
12
70
1
43
0.0
10
42.250000000000014
20
-10.000000000000016
10
42.250000000000014
20
-8.2999999999999865
10
40.850000000000009
20
-8.2999999999999865
10
40.850000000000009
20
-6.8999999999999861
10
39.149999999999984
20
-6.8999999999999861
10
39.149999999999984
20
-8.2999999999999865
10
37.749999999999986
20
-8.2999999999999865
10
37.749999999999986
20
-10.000000000000016
10
39.149999999999984
20
-10.000000000000016
10
39.149999999999984
20
-11.400000000000015
10
40.850000000000009
20
-11.400000000000015
10
40.850000000000009
20
-10.000000000000016
0
LWPOLYLINE
5
105
100
AcDbEntity
8
0
100
AcDbPolyline
90
8
70
1
43
0.0
10
59
20
-17.300000000000001
10
59
20
-1.0000000000000009
42
0.41421356237309531
10
58
20
7.3447566228313633e-31
10
-58
20
0
42
0.41421356237309531
10
-58.999999999999993
20
-1.0000000000000009
10
-59
20
-17.300000000000001
42
0.41421356237309503
10
-58
20
-18.300000000000001
10
58
20
-18.300000000000004
42
0.41421356237309503
0
LINE
5
106
100
AcDbEntity
8
0
100
AcDbLine
10
-55.63526514696818
20
-16.769501339272356
30
0
11
55.63526514696818
21
-16.769501339272356
31
0
0
ELLIPSE
5
107
100
AcDbEntity
8
0
100
AcDbEllipse
10
67.780009774541028
20
-5.7717457057447348
30
0
11
-5.7523357006296384e-12
21
37.283530295756073
31
0.0
40
0.34090909090856997
41
1.5216972167716785
42
1.8702269804134939
0
LINE
5
108
100
AcDbEntity
8
0
100
AcDbLine
10
55.085032775047168
20
-3.9418929677593963
30
0
11
-55.085032775047168
21
-3.9418929677593884
31
0
0
ELLIPSE
5
109
100
AcDbEntity
8
0
100
AcDbEllipse
10
-67.780009774677225
20
-5.7717457056967625
30
0
11
-1.2750711274058192e-11
21
37.283530295958663
31
0.0
40
0.34090909091037058
41
4.4129583267662538
42
4.7614880904061838
0
SPLINE
5
110
100
AcDbEntity
8
0
100
AcDbSpline
70
1064
71
3
72
39
73
35
74
0
42
0.000000001
43
0.0000000001
44
0.0000000001
40
0.81564289216740615
40
0.81564289216740615
40
0.81564289216740615
40
0.81564289216740615
40
0.91739278593929463
40
0.91739278593929463
40
1.0191426797111831
40
1.0191426797111831
40
1.1215936048010573
40
1.1215936048010573
40
1.2240445298909315
40
1.2240445298909315
40
1.3259692978894275
40
1.3259692978894275
40
1.4278940658879238
40
1.4278940658879238
40
1.5295899251113676
40
1.5295899251113676
40
1.6312857843348114
40
1.6312857843348114
40
1.6312857843348114
40
1.7329816435582561
40
1.7329816435582561
40
1.8346775027817008
40
1.8346775027817008
40
1.9366022707801964
40
1.9366022707801964
40
2.038527038778692
40
2.038527038778692
40
2.1409779638685662
40
2.1409779638685662
40
2.2434288889584408
40
2.2434288889584408
40
2.3451787827303292
40
2.3451787827303292
40
2.4469286765022176
40
2.4469286765022176
40
2.4469286765022176
40
2.4469286765022176
10
-49.999999999999993
20
-11.850000000000001
30
0
10
-49.660833687427029
20
-11.850000000000001
30
0
10
-49.299427010561025
20
-11.782176535562739
30
0
10
-48.635306962612106
20
-11.507279971756949
30
0
10
-48.332562488341146
20
-11.300237088582909
30
0
10
-47.8530030548025
20
-10.822078332660983
30
0
10
-47.644647779712848
20
-10.518323679959234
30
0
10
-47.368138498849063
20
-9.8523523682674305
30
0
10
-47.300000000000004
20
-9.490098300077781
30
0
10
-47.300000000000004
20
-8.8116483423482883
30
0
10
-47.367513413785616
20
-8.4502022068607445
30
0
10
-47.642972683406832
20
-7.7846704329771699
30
0
10
-47.850936590253532
20
-7.4806089764615553
30
0
10
-48.330766457286209
20
-7.0009346646685238
30
0
10
-48.634309825977589
20
-6.7932100828999715
30
0
10
-49.299434910806298
20
-6.517742995369213
30
0
10
-49.661013802588521
20
-6.4500000000000002
30
0
10
-50
20
-6.4500000000000002
30
0
10
-50.338986197411479
20
-6.4500000000000002
30
0
10
-50.700565089193709
20
-6.5177429953692148
30
0
10
-51.365690174022433
20
-6.7932100828999804
30
0
10
-51.669233542713812
20
-7.0009346646685238
30
0
10
-52.149063409746489
20
-7.480608976461558
30
0
10
-52.357027316593168
20
-7.7846704329771734
30
0
10
-52.632486586214384
20
-8.4502022068607445
30
0
10
-52.699999999999996
20
-8.8116483423482883
30
0
10
-52.699999999999996
20
-9.490098300077781
30
0
10
-52.631861501150937
20
-9.8523523682674323
30
0
10
-52.355352220287152
20
-10.518323679959234
30
0
10
-52.1469969451975
20
-10.822078332660986
30
0
10
-51.667437511658854
20
-11.300237088582911
30
0
10
-51.364693037387894
20
-11.507279971756949
30
0
10
-50.700572989438967
20
-11.782176535562742
30
0
10
-50.339166312572956
20
-11.850000000000001
30
0
10
-49.999999999999993
20
-11.850000000000001
30
0
0
SPLINE
5
111
100
AcDbEntity
8
0
100
AcDbSpline
70
1064
71
3
72
39
73
35
74
0
42
0.000000001
43
0.0000000001
44
0.0000000001
40
0.81564289216740615
40
0.81564289216740615
40
0.81564289216740615
40
0.81564289216740615
40
0.91739278593929463
40
0.91739278593929463
40
1.0191426797111831
40
1.0191426797111831
40
1.1215936048010573
40
1.1215936048010573
40
1.2240445298909315
40
1.2240445298909315
40
1.3259692978894271
40
1.3259692978894271
40
1.4278940658879229
40
1.4278940658879229
40
1.5295899251113676
40
1.5295899251113676
40
1.6312857843348123
40
1.6312857843348123
40
1.6312857843348123
40
1.732981643558257
40
1.732981643558257
40
1.8346775027817017
40
1.8346775027817017
40
1.9366022707801973
40
1.9366022707801973
40
2.0385270387786929
40
2.0385270387786929
40
2.1409779638685671
40
2.1409779638685671
40
2.2434288889584417
40
2.2434288889584417
40
2.3451787827303301
40
2.3451787827303301
40
2.4469286765022185
40
2.4469286765022185
40
2.4469286765022185
40
2.4469286765022185
10
-40
20
-11.850000000000001
30
0
10
-39.660833687427044
20
-11.850000000000001
30
0
10
-39.299427010561025
20
-11.782176535562739
30
0
10
-38.635306962612098
20
-11.507279971756947
30
0
10
-38.332562488341146
20
-11.300237088582909
30
0
10
-37.8530030548025
20
-10.822078332660983
30
0
10
-37.644647779712848
20
-10.518323679959231
30
0
10
-37.368138498849063
20
-9.8523523682674323
30
0
10
-37.300000000000004
20
-9.490098300077781
30
0
10
-37.300000000000004
20
-8.8116483423482883
30
0
10
-37.367513413785616
20
-8.4502022068607445
30
0
10
-37.642972683406825
20
-7.7846704329771725
30
0
10
-37.850936590253511
20
-7.4806089764615553
30
0
10
-38.330766457286188
20
-7.0009346646685211
30
0
10
-38.634309825977567
20
-6.7932100828999804
30
0
10
-39.299434910806291
20
-6.5177429953692156
30
0
10
-39.661013802588521
20
-6.4500000000000002
30
0
10
-40
20
-6.4500000000000002
30
0
10
-40.338986197411479
20
-6.4500000000000002
30
0
10
-40.700565089193709
20
-6.5177429953692148
30
0
10
-41.365690174022433
20
-6.7932100828999804
30
0
10
-41.669233542713812
20
-7.0009346646685238
30
0
10
-42.149063409746489
20
-7.480608976461558
30
0
10
-42.357027316593168
20
-7.7846704329771734
30
0
10
-42.632486586214384
20
-8.4502022068607445
30
0
10
-42.699999999999996
20
-8.8116483423482883
30
0
10
-42.699999999999996
20
-9.490098300077781
30
0
10
-42.631861501150937
20
-9.8523523682674323
30
0
10
-42.355352220287152
20
-10.518323679959234
30
0
10
-42.1469969451975
20
-10.822078332660986
30
0
10
-41.667437511658854
20
-11.300237088582911
30
0
10
-41.364693037387894
20
-11.507279971756949
30
0
10
-40.700572989438975
20
-11.782176535562739
30
0
10
-40.339166312572971
20
-11.850000000000001
30
0
10
-40
20
-11.850000000000001
30
0
0
SPLINE
5
112
100
AcDbEntity
8
0
100
AcDbSpline
70
1064
71
3
72
39
73
35
74
0
42
0.000000001
43
0.0000000001
44
0.0000000001
40
0.8156428921674056
40
0.8156428921674056
40
0.8156428921674056
40
0.8156428921674056
40
0.91739278593929363
40
0.91739278593929363
40
1.0191426797111816
40
1.0191426797111816
40
1.121593604801056
40
1.121593604801056
40
1.2240445298909304
40
1.2240445298909304
40
1.3259692978894262
40
1.3259692978894262
40
1.4278940658879222
40
1.4278940658879222
40
1.5295899251113665
40
1.5295899251113665
40
1.6312857843348108
40
1.6312857843348108
40
1.6312857843348108
40
1.7329816435582555
40
1.7329816435582555
40
1.8346775027817002
40
1.8346775027817002
40
1.9366022707801958
40
1.9366022707801958
40
2.0385270387786911
40
2.0385270387786911
40
2.1409779638685658
40
2.1409779638685658
40
2.2434288889584404
40
2.2434288889584404
40
2.3451787827303283
40
2.3451787827303283
40
2.4469286765022162
40
2.4469286765022162
40
2.4469286765022162
40
2.4469286765022162
10
50
20
-11.850000000000001
30
0
10
50.339166312572971
20
-11.850000000000001
30
0
10
50.700572989438982
20
-11.782176535562739
30
0
10
51.364693037387909
20
-11.507279971756947
30
0
10
51.667437511658846
20
-11.300237088582907
30
0
10
52.1469969451975
20
-10.822078332660983
30
0
10
52.355352220287159
20
-10.518323679959231
30
0
10
52.631861501150951
20
-9.8523523682674288
30
0
10
52.699999999999996
20
-9.490098300077781
30
0
10
52.699999999999996
20
-8.8116483423482883
30
0
10
52.632486586214384
20
-8.450202206860741
30
0
10
52.357027316593168
20
-7.7846704329771708
30
0
10
52.149063409746489
20
-7.4806089764615553
30
0
10
51.669233542713798
20
-7.000934664668522
30
0
10
51.365690174022433
20
-6.7932100828999804
30
0
10
50.700565089193709
20
-6.5177429953692148
30
0
10
50.338986197411479
20
-6.4500000000000002
30
0
10
50
20
-6.4500000000000002
30
0
10
49.661013802588521
20
-6.4500000000000002
30
0
10
49.299434910806291
20
-6.5177429953692148
30
0
10
48.634309825977567
20
-6.7932100828999804
30
0
10
48.330766457286188
20
-7.0009346646685238
30
0
10
47.850936590253511
20
-7.480608976461558
30
0
10
47.642972683406832
20
-7.7846704329771708
30
0
10
47.367513413785616
20
-8.450202206860741
30
0
10
47.300000000000004
20
-8.8116483423482883
30
0
10
47.300000000000004
20
-9.490098300077781
30
0
10
47.368138498849049
20
-9.8523523682674305
30
0
10
47.644647779712841
20
-10.518323679959236
30
0
10
47.8530030548025
20
-10.822078332660986
30
0
10
48.332562488341146
20
-11.300237088582907
30
0
10
48.635306962612091
20
-11.507279971756944
30
0
10
49.299427010561004
20
-11.782176535562733
30
0
10
49.660833687427029
20
-11.850000000000001
30
0
10
50
20
-11.850000000000001
30
0
0
SPLINE
5
113
100
AcDbEntity
8
0
100
AcDbSpline
70
1064
71
3
72
39
73
35
74
0
42
0.000000001
43
0.0000000001
44
0.0000000001
40
0.81564289216740571
40
0.81564289216740571
40
0.81564289216740571
40
0.81564289216740571
40
0.91739278593929374
40
0.91739278593929374
40
1.0191426797111818
40
1.0191426797111818
40
1.1215936048010562
40
1.1215936048010562
40
1.2240445298909306
40
1.2240445298909306
40
1.3259692978894266
40
1.3259692978894266
40
1.4278940658879224
40
1.4278940658879224
40
1.5295899251113667
40
1.5295899251113667
40
1.631285784334811
40
1.631285784334811
40
1.631285784334811
40
1.7329816435582555
40
1.7329816435582555
40
1.8346775027816999
40
1.8346775027816999
40
1.9366022707801958
40
1.9366022707801958
40
2.0385270387786916
40
2.0385270387786916
40
2.1409779638685662
40
2.1409779638685662
40
2.2434288889584408
40
2.2434288889584408
40
2.3451787827303288
40
2.3451787827303288
40
2.4469286765022167
40
2.4469286765022167
40
2.4469286765022167
40
2.4469286765022167
10
40
20
-11.849999999999998
30
0
10
40.339166312572956
20
-11.850000000000001
30
0
10
40.700572989438975
20
-11.782176535562741
30
0
10
41.364693037387909
20
-11.507279971756947
30
0
10
41.667437511658846
20
-11.300237088582907
30
0
10
42.1469969451975
20
-10.822078332660983
30
0
10
42.355352220287159
20
-10.518323679959231
30
0
10
42.631861501150951
20
-9.8523523682674288
30
0
10
42.699999999999996
20
-9.490098300077781
30
0
10
42.699999999999996
20
-8.8116483423482865
30
0
10
42.632486586214384
20
-8.450202206860741
30
0
10
42.357027316593168
20
-7.7846704329771663
30
0
10
42.149063409746475
20
-7.4806089764615544
30
0
10
41.669233542713798
20
-7.000934664668522
30
0
10
41.365690174022433
20
-6.7932100828999804
30
0
10
40.700565089193709
20
-6.5177429953692148
30
0
10
40.338986197411479
20
-6.4500000000000002
30
0
10
40
20
-6.4500000000000002
30
0
10
39.661013802588521
20
-6.4500000000000002
30
0
10
39.299434910806298
20
-6.5177429953692156
30
0
10
38.634309825977581
20
-6.7932100828999769
30
0
10
38.330766457286202
20
-7.0009346646685238
30
0
10
37.850936590253518
20
-7.480608976461558
30
0
10
37.642972683406825
20
-7.7846704329771708
30
0
10
37.367513413785609
20
-8.450202206860741
30
0
10
37.299999999999997
20
-8.8116483423482865
30
0
10
37.299999999999997
20
-9.490098300077781
30
0
10
37.368138498849063
20
-9.8523523682674305
30
0
10
37.644647779712841
20
-10.518323679959236
30
0
10
37.853003054802507
20
-10.822078332660986
30
0
10
38.332562488341154
20
-11.300237088582909
30
0
10
38.635306962612098
20
-11.507279971756946
30
0
10
39.299427010561018
20
-11.782176535562733
30
0
10
39.660833687427044
20
-11.850000000000001
30
0
10
40
20
-11.849999999999998
30
0
0
SPLINE
5
114
100
AcDbEntity
8
0
100
AcDbSpline
70
1064
71
3
72
39
73
35
74
0
42
0.000000001
43
0.0000000001
44
0.0000000001
40
0.8156428921674056
40
0.8156428921674056
40
0.8156428921674056
40
0.8156428921674056
40
0.91739278593929363
40
0.91739278593929363
40
1.0191426797111816
40
1.0191426797111816
40
1.121593604801056
40
1.121593604801056
40
1.2240445298909304
40
1.2240445298909304
40
1.3259692978894262
40
1.3259692978894262
40
1.4278940658879218
40
1.4278940658879218
40
1.5295899251113665
40
1.5295899251113665
40
1.6312857843348112
40
1.6312857843348112
40
1.6312857843348112
40
1.7329816435582559
40
1.7329816435582559
40
1.8346775027817006
40
1.8346775027817006
40
1.9366022707801962
40
1.9366022707801962
40
2.0385270387786916
40
2.0385270387786916
40
2.1409779638685662
40
2.1409779638685662
40
2.2434288889584408
40
2.2434288889584408
40
2.3451787827303288
40
2.3451787827303288
40
2.4469286765022167
40
2.4469286765022167
40
2.4469286765022167
40
2.4469286765022167
10
11.875
20
-11.850000000000001
30
0
10
12.214166312572964
20
-11.850000000000001
30
0
10
12.575572989438978
20
-11.782176535562737
30
0
10
13.239693037387902
20
-11.507279971756947
30
0
10
13.542437511658845
20
-11.300237088582907
30
0
10
14.021996945197493
20
-10.822078332660983
30
0
10
14.230352220287157
20
-10.518323679959229
30
0
10
14.506861501150937
20
-9.8523523682674288
30
0
10
14.574999999999996
20
-9.490098300077781
30
0
10
14.574999999999996
20
-8.8116483423482883
30
0
10
14.507486586214387
20
-8.450202206860741
30
0
10
14.232027316593175
20
-7.784670432977169
30
0
10
14.024063409746486
20
-7.4806089764615544
30
0
10
13.544233542713807
20
-7.0009346646685211
30
0
10
13.240690174022427
20
-6.7932100828999804
30
0
10
12.575565089193713
20
-6.5177429953692165
30
0
10
12.213986197411483
20
-6.4500000000000002
30
0
10
11.875
20
-6.4500000000000002
30
0
10
11.536013802588517
20
-6.4500000000000002
30
0
10
11.174434910806291
20
-6.5177429953692165
30
0
10
10.509309825977573
20
-6.7932100828999804
30
0
10
10.205766457286193
20
-7.0009346646685238
30
0
10
9.7259365902535144
20
-7.480608976461558
30
0
10
9.517972683406823
20
-7.7846704329771699
30
0
10
9.2425134137856126
20
-8.450202206860741
30
0
10
9.1750000000000043
20
-8.8116483423482883
30
0
10
9.1750000000000043
20
-9.490098300077781
30
0
10
9.2431384988490635
20
-9.8523523682674288
30
0
10
9.5196477797128445
20
-10.518323679959231
30
0
10
9.7280030548025085
20
-10.822078332660986
30
0
10
10.207562488341155
20
-11.300237088582907
30
0
10
10.510306962612098
20
-11.507279971756947
30
0
10
11.174427010561018
20
-11.782176535562737
30
0
10
11.535833687427036
20
-11.850000000000001
30
0
10
11.875
20
-11.850000000000001
30
0
0
SPLINE
5
115
100
AcDbEntity
8
0
100
AcDbSpline
70
1064
71
3
72
39
73
35
74
0
42
0.000000001
43
0.0000000001
44
0.0000000001
40
0.8156428921674056
40
0.8156428921674056
40
0.8156428921674056
40
0.8156428921674056
40
0.91739278593929363
40
0.91739278593929363
40
1.0191426797111816
40
1.0191426797111816
40
1.1215936048010562
40
1.1215936048010562
40
1.2240445298909306
40
1.2240445298909306
40
1.3259692978894266
40
1.3259692978894266
40
1.4278940658879224
40
1.4278940658879224
40
1.5295899251113667
40
1.5295899251113667
40
1.631285784334811
40
1.631285784334811
40
1.631285784334811
40
1.7329816435582557
40
1.7329816435582557
40
1.8346775027817004
40
1.8346775027817004
40
1.936602270780196
40
1.936602270780196
40
2.0385270387786916
40
2.0385270387786916
40
2.1409779638685662
40
2.1409779638685662
40
2.2434288889584408
40
2.2434288889584408
40
2.3451787827303283
40
2.3451787827303283
40
2.4469286765022167
40
2.4469286765022167
40
2.4469286765022167
40
2.4469286765022167
10
1.2490009027033011e-15
20
-11.849999999999998
30
0
10
0.33916631257296004
20
-11.850000000000001
30
0
10
0.70057298943897461
20
-11.782176535562739
30
0
10
1.3646930373878965
20
-11.507279971756949
30
0
10
1.6674375116588451
20
-11.300237088582909
30
0
10
2.1469969451974915
20
-10.822078332660984
30
0
10
2.3553522202871573
20
-10.518323679959231
30
0
10
2.6318615011509374
20
-9.8523523682674305
30
0
10
2.6999999999999957
20
-9.490098300077781
30
0
10
2.6999999999999957
20
-8.8116483423482865
30
0
10
2.6324865862143865
20
-8.450202206860741
30
0
10
2.3570273165931748
20
-7.7846704329771672
30
0
10
2.1490634097464785
20
-7.4806089764615544
30
0
10
1.6692335427137981
20
-7.000934664668522
30
0
10
1.3656901740224181
20
-6.7932100828999751
30
0
10
0.70056508919370419
20
-6.5177429953692148
30
0
10
0.33898619741148095
20
-6.4500000000000002
30
0
10
0
20
-6.4500000000000002
30
0
10
-0.33898619741148245
20
-6.4500000000000002
30
0
10
-0.70056508919370963
20
-6.5177429953692156
30
0
10
-1.3656901740224265
20
-6.7932100828999804
30
0
10
-1.6692335427138065
20
-7.0009346646685238
30
0
10
-2.149063409746486
20
-7.480608976461558
30
0
10
-2.3570273165931757
20
-7.7846704329771699
30
0
10
-2.632486586214386
20
-8.450202206860741
30
0
10
-2.6999999999999957
20
-8.8116483423482883
30
0
10
-2.6999999999999957
20
-9.490098300077781
30
0
10
-2.6318615011509374
20
-9.8523523682674288
30
0
10
-2.3553522202871564
20
-10.518323679959231
30
0
10
-2.1469969451974915
20
-10.822078332660986
30
0
10
-1.6674375116588449
20
-11.300237088582907
30
0
10
-1.3646930373878972
20
-11.507279971756949
30
0
10
-0.70057298943897428
20
-11.782176535562739
30
0
10
-0.33916631257296004
20
-11.850000000000001
30
0
10
1.2490009027033011e-15
20
-11.849999999999998
30
0
0
LWPOLYLINE
5
116
100
AcDbEntity
8
0
100
AcDbPolyline
90
12
70
1
43
0.0
10
12.475000000000001
20
-8.5499999999999972
10
12.475000000000001
20
-7.150000000000003
10
11.275000000000002
20
-7.1500000000000004
10
11.275000000000002
20
-8.5500000000000007
10
9.8750000000000036
20
-8.5500000000000007
10
9.8750000000000036
20
-9.7500000000000036
10
11.275000000000002
20
-9.75
10
11.275000000000002
20
-11.150000000000002
10
12.475000000000001
20
-11.15
10
12.475000000000001
20
-9.7500000000000036
10
13.875
20
-9.75
10
13.875
20
-8.5500000000000025
0
LWPOLYLINE
5
117
100
AcDbEntity
8
0
100
AcDbPolyline
90
12
70
1
43
0.0
10
50.600000000000016
20
-8.5499999999999972
10
50.600000000000016
20
-7.150000000000003
10
49.400000000000006
20
-7.1500000000000004
10
49.400000000000006
20
-8.5500000000000007
10
48.000000000000007
20
-8.5500000000000007
10
48.000000000000007
20
-9.7500000000000036
10
49.400000000000006
20
-9.75
10
49.400000000000006
20
-11.150000000000002
10
50.600000000000016
20
-11.15
10
50.600000000000016
20
-9.7500000000000036
10
52.000000000000014
20
-9.75
10
52.000000000000014
20
-8.5500000000000025
0
LWPOLYLINE
5
118
100
AcDbEntity
8
0
100
AcDbPolyline
90
12
70
1
43
0.0
10
0.60000000000000331
20
-8.5499999999999972
10
0.60000000000000331
20
-7.150000000000003
10
-0.59999999999999631
20
-7.1500000000000004
10
-0.60000000000000331
20
-8.5500000000000007
10
-2.0000000000000018
20
-8.5500000000000007
10
-2.0000000000000018
20
-9.7500000000000036
10
-0.60000000000000331
20
-9.75
10
-0.60000000000000331
20
-11.150000000000002
10
0.59999999999999631
20
-11.15
10
0.60000000000000331
20
-9.7500000000000036
10
2.0000000000000018
20
-9.75
10
2.0000000000000018
20
-8.5500000000000025
0
LWPOLYLINE
5
119
100
AcDbEntity
8
0
100
AcDbPolyline
90
12
70
1
43
0.0
10
-39.400000000000006
20
-8.5499999999999972
10
-39.400000000000006
20
-7.150000000000003
10
-40.599999999999994
20
-7.1500000000000004
10
-40.599999999999994
20
-8.5500000000000007
10
-42.000000000000014
20
-8.5500000000000007
10
-42.000000000000014
20
-9.7500000000000036
10
-40.599999999999994
20
-9.75
10
-40.599999999999994
20
-11.150000000000002
10
-39.400000000000006
20
-11.15
10
-39.400000000000006
20
-9.7500000000000036
10
-38.000000000000007
20
-9.75
10
-38.000000000000007
20
-8.5500000000000025
0
LWPOLYLINE
5
120
100
AcDbEntity
8
0
100
AcDbPolyline
90
12
70
1
43
0.0
10
-49.400000000000006
20
-8.5499999999999972
10
-49.400000000000006
20
-7.150000000000003
10
-50.600000000000016
20
-7.1500000000000004
10
-50.600000000000016
20
-8.5500000000000007
10
-52.000000000000014
20
-8.5500000000000007
10
-52.000000000000014
20
-9.7500000000000036
10
-50.600000000000016
20
-9.75
10
-50.600000000000016
20
-11.150000000000002
10
-49.400000000000006
20
-11.15
10
-49.400000000000006
20
-9.7500000000000036
10
-48.000000000000007
20
-9.75
10
-48.000000000000007
20
-8.5500000000000025
0
LWPOLYLINE
5
121
100
AcDbEntity
8
0
100
AcDbPolyline
90
4
70
1
43
0.0
10
-57.699999999999996
20
-17
10
-57.699999999999996
20
-1.3
10
57.699999999999996
20
-1.2999999999999989
10
57.699999999999996
20
-17
0
ENDSEC
0
SECTION
2
OBJECTS
0
DICTIONARY
5
C
100
AcDbDictionary
3
ACAD_GROUP
350
D
3
ACAD_MLINESTYLE
350
17
0
DICTIONARY
5
D
100
AcDbDictionary
0
DICTIONARY
5
1A
330
C
100
AcDbDictionary
0
DICTIONARY
5
17
100
AcDbDictionary
0
ENDSEC
0
EOF
