0
SECTION
2
HEADER
9
$INSUNITS
70
4
9
$ACADVER
1
AC1014
9
$HANDSEED
5
FFFF
0
ENDSEC
0
SECTION
2
TABLES
0
TABLE
2
VPORT
5
8
100
AcDbSymbolTable
0
ENDTAB
0
TABLE
2
LTYPE
5
5
100
AcDbSymbolTable
0
LTYPE
5
14
100
AcDbSymbolTableRecord
100
AcDbLinetypeTableRecord
2
BYBLOCK
70
0
0
LTYPE
5
15
100
AcDbSymbolTableRecord
100
AcDbLinetypeTableRecord
2
BYLAYER
70
0
0
ENDTAB
0
TABLE
2
LAYER
5
2
100
AcDbSymbolTable
70
2
0
LAYER
5
50
100
AcDbSymbolTableRecord
100
AcDbLayerTableRecord
2
0
70
0
6
CONTINUOUS
0
ENDTAB
0
TABLE
2
STYLE
5
3
100
AcDbSymbolTable
70
1
0
STYLE
5
11
100
AcDbSymbolTableRecord
100
AcDbTextStyleTableRecord
2
STANDARD
70
0
0
ENDTAB
0
TABLE
2
VIEW
5
6
100
AcDbSymbolTable
70
0
0
ENDTAB
0
TABLE
2
UCS
5
7
100
AcDbSymbolTable
70
0
0
ENDTAB
0
TABLE
2
APPID
5
9
100
AcDbSymbolTable
70
2
0
APPID
5
12
100
AcDbSymbolTableRecord
100
AcDbRegAppTableRecord
2
ACAD
70
0
0
ENDTAB
0
TABLE
2
DIMSTYLE
5
A
100
AcDbSymbolTable
70
1
0
ENDTAB
0
TABLE
2
BLOCK_RECORD
5
1
100
AcDbSymbolTable
70
1
0
BLOCK_RECORD
5
1F
100
AcDbSymbolTableRecord
100
AcDbBlockTableRecord
2
*MODEL_SPACE
0
BLOCK_RECORD
5
1B
100
AcDbSymbolTableRecord
100
AcDbBlockTableRecord
2
*PAPER_SPACE
0
ENDTAB
0
ENDSEC
0
SECTION
2
BLOCKS
0
BLOCK
5
20
100
AcDbEntity
100
AcDbBlockBegin
2
*MODEL_SPACE
0
ENDBLK
5
21
100
AcDbEntity
100
AcDbBlockEnd
0
BLOCK
5
1C
100
AcDbEntity
100
AcDbBlockBegin
2
*PAPER_SPACE
0
ENDBLK
5
1D
100
AcDbEntity
100
AcDbBlockEnd
0
ENDSEC
0
SECTION
2
ENTITIES
0
LWPOLYLINE
5
100
100
AcDbEntity
8
0
100
AcDbPolyline
90
20
70
1
43
0.0
10
35.9572
20
44.805599999999998
10
35.9572
20
50.60560000000001
10
35.156500000000001
20
50.60560000000001
10
35.156500000000001
20
53.704800000000006
10
35.9572
20
53.704800000000006
10
35.9572
20
54.705300000000001
10
49.956500000000005
20
54.705300000000001
10
49.956500000000005
20
53.704800000000006
10
50.757300000000001
20
53.704800000000006
10
50.757300000000001
20
50.60560000000001
10
49.956500000000005
20
50.60560000000001
10
49.956500000000005
20
44.805599999999998
10
50.757300000000001
20
44.805599999999998
10
50.757300000000001
20
41.704999999999998
10
49.956500000000005
20
41.704999999999998
10
49.956500000000005
20
40.705999999999996
10
35.9572
20
40.705999999999996
10
35.9572
20
41.704999999999998
10
35.156500000000001
20
41.704999999999998
10
35.156500000000001
20
44.805599999999998
0
LWPOLYLINE
5
101
100
AcDbEntity
8
0
100
AcDbPolyline
90
20
70
1
43
0.0
10
55.007200000000005
20
40.705999999999996
10
55.007200000000005
20
41.704999999999998
10
54.206400000000002
20
41.704999999999998
10
54.206400000000002
20
44.805599999999998
10
55.007200000000005
20
44.805599999999998
10
55.007200000000005
20
50.60560000000001
10
54.206400000000002
20
50.60560000000001
10
54.206400000000002
20
53.704800000000006
10
55.007200000000005
20
53.704800000000006
10
55.007200000000005
20
54.705300000000001
10
69.006500000000003
20
54.705300000000001
10
69.006500000000003
20
53.704800000000006
10
69.807299999999998
20
53.704800000000006
10
69.807299999999998
20
50.60560000000001
10
69.006500000000003
20
50.60560000000001
10
69.006500000000003
20
44.805599999999998
10
69.807299999999998
20
44.805599999999998
10
69.807299999999998
20
41.704999999999998
10
69.006500000000003
20
41.704999999999998
10
69.006500000000003
20
40.705999999999996
0
LWPOLYLINE
5
102
100
AcDbEntity
8
0
100
AcDbPolyline
90
20
70
1
43
0.0
10
23.762900000000002
20
50.60560000000001
10
23.762900000000002
20
44.805599999999998
10
24.562200000000001
20
44.805599999999998
10
24.562200000000001
20
41.704999999999998
10
23.762900000000002
20
41.704999999999998
10
23.762900000000002
20
40.705999999999996
10
9.7634100000000004
20
40.705999999999996
10
9.7634100000000004
20
41.704999999999998
10
8.9627800000000022
20
41.704999999999998
10
8.9627800000000022
20
44.805599999999998
10
9.7634100000000004
20
44.805599999999998
10
9.7634100000000004
20
50.60560000000001
10
8.9627800000000022
20
50.60560000000001
10
8.9627800000000022
20
53.704800000000006
10
9.7634100000000004
20
53.704800000000006
10
9.7634100000000004
20
54.705300000000001
10
23.762900000000002
20
54.705300000000001
10
23.762900000000002
20
53.704800000000006
10
24.562200000000001
20
53.704800000000006
10
24.562200000000001
20
50.60560000000001
0
LWPOLYLINE
5
103
100
AcDbEntity
8
0
100
AcDbPolyline
90
20
70
1
43
0.0
10
92.306399999999996
20
41.704999999999998
10
92.306399999999996
20
44.805599999999998
10
93.10720000000002
20
44.805599999999998
10
93.10720000000002
20
50.60560000000001
10
92.306399999999996
20
50.60560000000001
10
92.306399999999996
20
53.704800000000006
10
93.10720000000002
20
53.704800000000006
10
93.10720000000002
20
54.705300000000001
10
107.10700000000003
20
54.705300000000001
10
107.10700000000003
20
53.704800000000006
10
107.90700000000001
20
53.704800000000006
10
107.90700000000001
20
50.60560000000001
10
107.10700000000003
20
50.60560000000001
10
107.10700000000003
20
44.805599999999998
10
107.90700000000001
20
44.805599999999998
10
107.90700000000001
20
41.704999999999998
10
107.10700000000003
20
41.704999999999998
10
107.10700000000003
20
40.705999999999996
10
93.10720000000002
20
40.705999999999996
10
93.10720000000002
20
41.704999999999998
0
LWPOLYLINE
5
104
100
AcDbEntity
8
0
100
AcDbPolyline
90
20
70
1
43
0.0
10
111.35600000000002
20
44.805599999999998
10
112.15700000000001
20
44.805599999999998
10
112.15700000000001
20
50.60560000000001
10
111.35600000000002
20
50.60560000000001
10
111.35600000000002
20
53.704800000000006
10
112.15700000000001
20
53.704800000000006
10
112.15700000000001
20
54.705300000000001
10
126.15700000000002
20
54.705300000000001
10
126.15700000000002
20
53.704800000000006
10
126.95700000000002
20
53.704800000000006
10
126.95700000000002
20
50.60560000000001
10
126.15700000000002
20
50.60560000000001
10
126.15700000000002
20
44.805599999999998
10
126.95700000000002
20
44.805599999999998
10
126.95700000000002
20
41.704999999999998
10
126.15700000000002
20
41.704999999999998
10
126.15700000000002
20
40.705999999999996
10
112.15700000000001
20
40.705999999999996
10
112.15700000000001
20
41.704999999999998
10
111.35600000000002
20
41.704999999999998
0
LWPOLYLINE
5
105
100
AcDbEntity
8
0
100
AcDbPolyline
90
20
70
1
43
0.0
10
88.857300000000009
20
44.805599999999998
10
88.857300000000009
20
41.704999999999998
10
88.0565
20
41.704999999999998
10
88.0565
20
40.705999999999996
10
74.057199999999995
20
40.705999999999996
10
74.057199999999995
20
41.704999999999998
10
73.256399999999999
20
41.704999999999998
10
73.256399999999999
20
44.805599999999998
10
74.057199999999995
20
44.805599999999998
10
74.057199999999995
20
50.60560000000001
10
73.256399999999999
20
50.60560000000001
10
73.256399999999999
20
53.704800000000006
10
74.057199999999995
20
53.704800000000006
10
74.057199999999995
20
54.705300000000001
10
88.0565
20
54.705300000000001
10
88.0565
20
53.704800000000006
10
88.857300000000009
20
53.704800000000006
10
88.857300000000009
20
50.60560000000001
10
88.0565
20
50.60560000000001
10
88.0565
20
44.805599999999998
0
LWPOLYLINE
5
106
100
AcDbEntity
8
0
100
AcDbPolyline
90
20
70
1
43
0.0
10
355.04600000000005
20
35.655299999999997
10
369.04400000000004
20
35.655299999999997
10
369.04400000000004
20
34.654899999999998
10
369.84500000000003
20
34.654899999999998
10
369.84500000000003
20
31.555700000000005
10
369.04400000000004
20
31.555700000000005
10
369.04400000000004
20
25.755500000000001
10
369.84500000000003
20
25.755500000000001
10
369.84500000000003
20
22.655000000000001
10
369.04400000000004
20
22.655000000000001
10
369.04400000000004
20
21.655899999999999
10
355.04600000000005
20
21.655899999999999
10
355.04600000000005
20
22.655000000000001
10
354.245
20
22.655000000000001
10
354.245
20
25.755500000000001
10
355.04600000000005
20
25.755500000000001
10
355.04600000000005
20
31.555700000000005
10
354.245
20
31.555700000000005
10
354.245
20
34.654899999999998
10
355.04600000000005
20
34.654899999999998
0
LWPOLYLINE
5
107
100
AcDbEntity
8
0
100
AcDbPolyline
90
20
70
1
43
0.0
10
165.05700000000002
20
50.60560000000001
10
164.25700000000003
20
50.60560000000001
10
164.25700000000003
20
44.805599999999998
10
165.05700000000002
20
44.805599999999998
10
165.05700000000002
20
41.704999999999998
10
164.25700000000003
20
41.704999999999998
10
164.25700000000003
20
40.705999999999996
10
150.25700000000001
20
40.705999999999996
10
150.25700000000001
20
41.704999999999998
10
149.45600000000002
20
41.704999999999998
10
149.45600000000002
20
44.805599999999998
10
150.25700000000001
20
44.805599999999998
10
150.25700000000001
20
50.60560000000001
10
149.45600000000002
20
50.60560000000001
10
149.45600000000002
20
53.704800000000006
10
150.25700000000001
20
53.704800000000006
10
150.25700000000001
20
54.705300000000001
10
164.25700000000003
20
54.705300000000001
10
164.25700000000003
20
53.704800000000006
10
165.05700000000002
20
53.704800000000006
0
LWPOLYLINE
5
108
100
AcDbEntity
8
0
100
AcDbPolyline
90
20
70
1
43
0.0
10
130.40600000000001
20
53.704800000000006
10
131.20699999999999
20
53.704800000000006
10
131.20699999999999
20
54.705300000000001
10
145.20699999999999
20
54.705300000000001
10
145.20699999999999
20
53.704800000000006
10
146.00700000000001
20
53.704800000000006
10
146.00700000000001
20
50.60560000000001
10
145.20699999999999
20
50.60560000000001
10
145.20699999999999
20
44.805599999999998
10
146.00700000000001
20
44.805599999999998
10
146.00700000000001
20
41.704999999999998
10
145.20699999999999
20
41.704999999999998
10
145.20699999999999
20
40.705999999999996
10
131.20699999999999
20
40.705999999999996
10
131.20699999999999
20
41.704999999999998
10
130.40600000000001
20
41.704999999999998
10
130.40600000000001
20
44.805599999999998
10
131.20699999999999
20
44.805599999999998
10
131.20699999999999
20
50.60560000000001
10
130.40600000000001
20
50.60560000000001
0
LWPOLYLINE
5
109
100
AcDbEntity
8
0
100
AcDbPolyline
90
20
70
1
43
0.0
10
183.30700000000004
20
53.704800000000006
10
184.10700000000003
20
53.704800000000006
10
184.10700000000003
20
50.60560000000001
10
183.30700000000004
20
50.60560000000001
10
183.30700000000004
20
44.805599999999998
10
184.10700000000003
20
44.805599999999998
10
184.10700000000003
20
41.704999999999998
10
183.30700000000004
20
41.704999999999998
10
183.30700000000004
20
40.705999999999996
10
169.30700000000002
20
40.705999999999996
10
169.30700000000002
20
41.704999999999998
10
168.50599999999997
20
41.704999999999998
10
168.50599999999997
20
44.805599999999998
10
169.30700000000002
20
44.805599999999998
10
169.30700000000002
20
50.60560000000001
10
168.50599999999997
20
50.60560000000001
10
168.50599999999997
20
53.704800000000006
10
169.30700000000002
20
53.704800000000006
10
169.30700000000002
20
54.705300000000001
10
183.30700000000004
20
54.705300000000001
0
LWPOLYLINE
5
110
100
AcDbEntity
8
0
100
AcDbPolyline
90
20
70
1
43
0.0
10
188.357
20
53.704800000000006
10
188.357
20
54.705300000000001
10
202.35700000000003
20
54.705300000000001
10
202.35700000000003
20
53.704800000000006
10
203.15700000000004
20
53.704800000000006
10
203.15700000000004
20
50.60560000000001
10
202.35700000000003
20
50.60560000000001
10
202.35700000000003
20
44.805599999999998
10
203.15700000000004
20
44.805599999999998
10
203.15700000000004
20
41.704999999999998
10
202.35700000000003
20
41.704999999999998
10
202.35700000000003
20
40.705999999999996
10
188.357
20
40.705999999999996
10
188.357
20
41.704999999999998
10
187.55599999999998
20
41.704999999999998
10
187.55599999999998
20
44.805599999999998
10
188.357
20
44.805599999999998
10
188.357
20
50.60560000000001
10
187.55599999999998
20
50.60560000000001
10
187.55599999999998
20
53.704800000000006
0
LWPOLYLINE
5
111
100
AcDbEntity
8
0
100
AcDbPolyline
90
20
70
1
43
0.0
10
240.45699999999999
20
53.704800000000006
10
241.25700000000001
20
53.704800000000006
10
241.25700000000001
20
50.60560000000001
10
240.45699999999999
20
50.60560000000001
10
240.45699999999999
20
44.805599999999998
10
241.25700000000001
20
44.805599999999998
10
241.25700000000001
20
41.704999999999998
10
240.45699999999999
20
41.704999999999998
10
240.45699999999999
20
40.705999999999996
10
226.45700000000002
20
40.705999999999996
10
226.45700000000002
20
41.704999999999998
10
225.65600000000001
20
41.704999999999998
10
225.65600000000001
20
44.805599999999998
10
226.45700000000002
20
44.805599999999998
10
226.45700000000002
20
50.60560000000001
10
225.65600000000001
20
50.60560000000001
10
225.65600000000001
20
53.704800000000006
10
226.45700000000002
20
53.704800000000006
10
226.45700000000002
20
54.705300000000001
10
240.45699999999999
20
54.705300000000001
0
LWPOLYLINE
5
112
100
AcDbEntity
8
0
100
AcDbPolyline
90
20
70
1
43
0.0
10
266.64999999999998
20
41.704999999999998
10
266.64999999999998
20
40.705999999999996
10
252.65000000000001
20
40.705999999999996
10
252.65000000000001
20
41.704999999999998
10
251.85000000000002
20
41.704999999999998
10
251.85000000000002
20
44.805599999999998
10
252.65000000000001
20
44.805599999999998
10
252.65000000000001
20
50.60560000000001
10
251.85000000000002
20
50.60560000000001
10
251.85000000000002
20
53.704800000000006
10
252.65000000000001
20
53.704800000000006
10
252.65000000000001
20
54.705300000000001
10
266.64999999999998
20
54.705300000000001
10
266.64999999999998
20
53.704800000000006
10
267.45099999999996
20
53.704800000000006
10
267.45099999999996
20
50.60560000000001
10
266.64999999999998
20
50.60560000000001
10
266.64999999999998
20
44.805599999999998
10
267.45099999999996
20
44.805599999999998
10
267.45099999999996
20
41.704999999999998
0
LWPOLYLINE
5
113
100
AcDbEntity
8
0
100
AcDbPolyline
90
20
70
1
43
0.0
10
207.40700000000004
20
50.60560000000001
10
206.60600000000002
20
50.60560000000001
10
206.60600000000002
20
53.704800000000006
10
207.40700000000004
20
53.704800000000006
10
207.40700000000004
20
54.705300000000001
10
221.40700000000004
20
54.705300000000001
10
221.40700000000004
20
53.704800000000006
10
222.20699999999999
20
53.704800000000006
10
222.20699999999999
20
50.60560000000001
10
221.40700000000004
20
50.60560000000001
10
221.40700000000004
20
44.805599999999998
10
222.20699999999999
20
44.805599999999998
10
222.20699999999999
20
41.704999999999998
10
221.40700000000004
20
41.704999999999998
10
221.40700000000004
20
40.705999999999996
10
207.40700000000004
20
40.705999999999996
10
207.40700000000004
20
41.704999999999998
10
206.60600000000002
20
41.704999999999998
10
206.60600000000002
20
44.805599999999998
10
207.40700000000004
20
44.805599999999998
0
LWPOLYLINE
5
114
100
AcDbEntity
8
0
100
AcDbPolyline
90
20
70
1
43
0.0
10
292.84399999999999
20
50.60560000000001
10
292.84399999999999
20
44.805599999999998
10
293.64499999999998
20
44.805599999999998
10
293.64499999999998
20
41.704999999999998
10
292.84399999999999
20
41.704999999999998
10
292.84399999999999
20
40.705999999999996
10
278.84500000000003
20
40.705999999999996
10
278.84500000000003
20
41.704999999999998
10
278.04500000000007
20
41.704999999999998
10
278.04500000000007
20
44.805599999999998
10
278.84500000000003
20
44.805599999999998
10
278.84500000000003
20
50.60560000000001
10
278.04500000000007
20
50.60560000000001
10
278.04500000000007
20
53.704800000000006
10
278.84500000000003
20
53.704800000000006
10
278.84500000000003
20
54.705300000000001
10
292.84399999999999
20
54.705300000000001
10
292.84399999999999
20
53.704800000000006
10
293.64499999999998
20
53.704800000000006
10
293.64499999999998
20
50.60560000000001
0
LWPOLYLINE
5
115
100
AcDbEntity
8
0
100
AcDbPolyline
90
20
70
1
43
0.0
10
311.89400000000001
20
41.704999999999998
10
311.89400000000001
20
40.705999999999996
10
297.89499999999998
20
40.705999999999996
10
297.89499999999998
20
41.704999999999998
10
297.09500000000003
20
41.704999999999998
10
297.09500000000003
20
44.805599999999998
10
297.89499999999998
20
44.805599999999998
10
297.89499999999998
20
50.60560000000001
10
297.09500000000003
20
50.60560000000001
10
297.09500000000003
20
53.704800000000006
10
297.89499999999998
20
53.704800000000006
10
297.89499999999998
20
54.705300000000001
10
311.89400000000001
20
54.705300000000001
10
311.89400000000001
20
53.704800000000006
10
312.69499999999999
20
53.704800000000006
10
312.69499999999999
20
50.60560000000001
10
311.89400000000001
20
50.60560000000001
10
311.89400000000001
20
44.805599999999998
10
312.69499999999999
20
44.805599999999998
10
312.69499999999999
20
41.704999999999998
0
LWPOLYLINE
5
116
100
AcDbEntity
8
0
100
AcDbPolyline
90
20
70
1
43
0.0
10
316.94499999999999
20
40.705999999999996
10
316.94499999999999
20
41.704999999999998
10
316.14499999999998
20
41.704999999999998
10
316.14499999999998
20
44.805599999999998
10
316.94499999999999
20
44.805599999999998
10
316.94499999999999
20
50.60560000000001
10
316.14499999999998
20
50.60560000000001
10
316.14499999999998
20
53.704800000000006
10
316.94499999999999
20
53.704800000000006
10
316.94499999999999
20
54.705300000000001
10
330.94400000000002
20
54.705300000000001
10
330.94400000000002
20
53.704800000000006
10
331.745
20
53.704800000000006
10
331.745
20
50.60560000000001
10
330.94400000000002
20
50.60560000000001
10
330.94400000000002
20
44.805599999999998
10
331.745
20
44.805599999999998
10
331.745
20
41.704999999999998
10
330.94400000000002
20
41.704999999999998
10
330.94400000000002
20
40.705999999999996
0
LWPOLYLINE
5
117
100
AcDbEntity
8
0
100
AcDbPolyline
90
20
70
1
43
0.0
10
369.04400000000004
20
44.805599999999998
10
369.84500000000003
20
44.805599999999998
10
369.84500000000003
20
41.704999999999998
10
369.04400000000004
20
41.704999999999998
10
369.04400000000004
20
40.705999999999996
10
355.04600000000005
20
40.705999999999996
10
355.04600000000005
20
41.704999999999998
10
354.245
20
41.704999999999998
10
354.245
20
44.805599999999998
10
355.04600000000005
20
44.805599999999998
10
355.04600000000005
20
50.60560000000001
10
354.245
20
50.60560000000001
10
354.245
20
53.704800000000006
10
355.04600000000005
20
53.704800000000006
10
355.04600000000005
20
54.705300000000001
10
369.04400000000004
20
54.705300000000001
10
369.04400000000004
20
53.704800000000006
10
369.84500000000003
20
53.704800000000006
10
369.84500000000003
20
50.60560000000001
10
369.04400000000004
20
50.60560000000001
0
LWPOLYLINE
5
118
100
AcDbEntity
8
0
100
AcDbPolyline
90
28
70
1
43
0.0
10
258.995
20
72.754800000000003
10
259.79500000000002
20
72.754800000000003
10
259.79500000000002
20
73.755300000000005
10
292.84399999999999
20
73.755300000000005
10
292.84399999999999
20
72.754800000000003
10
293.64499999999998
20
72.754800000000003
10
293.64499999999998
20
69.655600000000007
10
292.84399999999999
20
69.655600000000007
10
292.84399999999999
20
63.85560000000001
10
293.64499999999998
20
63.85560000000001
10
293.64499999999998
20
60.75500000000001
10
292.84399999999999
20
60.75500000000001
10
292.84399999999999
20
59.756
10
289.87
20
59.756
10
289.87
20
58.785800000000002
10
286.56999999999999
20
58.785800000000002
10
286.56999999999999
20
59.756
10
266.06999999999999
20
59.756
10
266.06999999999999
20
58.785800000000002
10
262.76999999999998
20
58.785800000000002
10
262.76999999999998
20
59.756
10
259.79500000000002
20
59.756
10
259.79500000000002
20
60.75500000000001
10
258.995
20
60.75500000000001
10
258.995
20
63.85560000000001
10
259.79500000000002
20
63.85560000000001
10
259.79500000000002
20
69.655600000000007
10
258.995
20
69.655600000000007
0
LWPOLYLINE
5
119
100
AcDbEntity
8
0
100
AcDbPolyline
90
20
70
1
43
0.0
10
335.995
20
44.805599999999998
10
335.995
20
50.60560000000001
10
335.19499999999999
20
50.60560000000001
10
335.19499999999999
20
53.704800000000006
10
335.995
20
53.704800000000006
10
335.995
20
54.705300000000001
10
349.99400000000003
20
54.705300000000001
10
349.99400000000003
20
53.704800000000006
10
350.79500000000002
20
53.704800000000006
10
350.79500000000002
20
50.60560000000001
10
349.99400000000003
20
50.60560000000001
10
349.99400000000003
20
44.805599999999998
10
350.79500000000002
20
44.805599999999998
10
350.79500000000002
20
41.704999999999998
10
349.99400000000003
20
41.704999999999998
10
349.99400000000003
20
40.705999999999996
10
335.995
20
40.705999999999996
10
335.995
20
41.704999999999998
10
335.19499999999999
20
41.704999999999998
10
335.19499999999999
20
44.805599999999998
0
LWPOLYLINE
5
120
100
AcDbEntity
8
0
100
AcDbPolyline
90
20
70
1
43
0.0
10
22.182300000000001
20
60.75500000000001
10
21.381700000000002
20
60.75500000000001
10
21.381700000000002
20
59.756
10
7.3821600000000007
20
59.756
10
7.3821600000000007
20
60.75500000000001
10
6.5815299999999999
20
60.75500000000001
10
6.5815299999999999
20
63.85560000000001
10
7.3821600000000007
20
63.85560000000001
10
7.3821600000000007
20
69.655600000000007
10
6.5815299999999999
20
69.655600000000007
10
6.5815299999999999
20
72.754800000000003
10
7.3821600000000007
20
72.754800000000003
10
7.3821599999999998
20
73.755300000000005
10
21.381700000000002
20
73.755300000000005
10
21.381700000000002
20
72.754800000000003
10
22.182300000000001
20
72.754800000000003
10
22.182300000000001
20
69.655600000000007
10
21.381700000000002
20
69.655600000000007
10
21.381700000000002
20
63.85560000000001
10
22.182300000000001
20
63.85560000000001
0
LWPOLYLINE
5
121
100
AcDbEntity
8
0
100
AcDbPolyline
90
20
70
1
43
0.0
10
45.194000000000003
20
72.754800000000003
10
45.994799999999998
20
72.754800000000003
10
45.994799999999998
20
69.655600000000007
10
45.194000000000003
20
69.655600000000007
10
45.194000000000003
20
63.85560000000001
10
45.994799999999998
20
63.85560000000001
10
45.994799999999998
20
60.75500000000001
10
45.194000000000003
20
60.75500000000001
10
45.194000000000003
20
59.756
10
31.194700000000001
20
59.756
10
31.194700000000001
20
60.75500000000001
10
30.395400000000002
20
60.75500000000001
10
30.395400000000002
20
63.85560000000001
10
31.194700000000001
20
63.85560000000001
10
31.194700000000001
20
69.655600000000007
10
30.395400000000002
20
69.655600000000007
10
30.395400000000002
20
72.754800000000003
10
31.194700000000001
20
72.754800000000003
10
31.194700000000001
20
73.755300000000005
10
45.194000000000003
20
73.755300000000005
0
LWPOLYLINE
5
122
100
AcDbEntity
8
0
100
AcDbPolyline
90
20
70
1
43
0.0
10
49.445300000000003
20
63.85560000000001
10
50.244700000000009
20
63.85560000000001
10
50.244700000000009
20
69.655600000000007
10
49.445300000000003
20
69.655600000000007
10
49.445300000000003
20
72.754800000000003
10
50.244700000000009
20
72.754800000000003
10
50.244700000000009
20
73.755300000000005
10
64.244
20
73.755300000000005
10
64.244
20
72.754800000000003
10
65.044799999999995
20
72.754800000000003
10
65.044799999999995
20
69.655600000000007
10
64.244
20
69.655600000000007
10
64.244
20
63.85560000000001
10
65.044799999999995
20
63.85560000000001
10
65.044799999999995
20
60.75500000000001
10
64.244
20
60.75500000000001
10
64.244
20
59.756
10
50.244700000000009
20
59.756
10
50.244700000000009
20
60.75500000000001
10
49.445300000000003
20
60.75500000000001
0
LWPOLYLINE
5
123
100
AcDbEntity
8
0
100
AcDbPolyline
90
20
70
1
43
0.0
10
88.344700000000017
20
63.85560000000001
10
88.344700000000017
20
69.655600000000007
10
87.545300000000012
20
69.655600000000007
10
87.545300000000012
20
72.754800000000003
10
88.344700000000017
20
72.754800000000003
10
88.344700000000017
20
73.755300000000005
10
102.34400000000001
20
73.755300000000005
10
102.34400000000001
20
72.754800000000003
10
103.14500000000001
20
72.754800000000003
10
103.14500000000001
20
69.655600000000007
10
102.34400000000001
20
69.655600000000007
10
102.34400000000001
20
63.85560000000001
10
103.14500000000001
20
63.85560000000001
10
103.14500000000001
20
60.75500000000001
10
102.34400000000001
20
60.75500000000001
10
102.34400000000001
20
59.756
10
88.344700000000017
20
59.756
10
88.344700000000017
20
60.75500000000001
10
87.545300000000012
20
60.75500000000001
10
87.545300000000012
20
63.85560000000001
0
LWPOLYLINE
5
124
100
AcDbEntity
8
0
100
AcDbPolyline
90
20
70
1
43
0.0
10
68.4953
20
72.754800000000003
10
69.294700000000006
20
72.754800000000003
10
69.294700000000006
20
73.755300000000005
10
83.293999999999997
20
73.755300000000005
10
83.293999999999997
20
72.754800000000003
10
84.094800000000006
20
72.754800000000003
10
84.094800000000006
20
69.655600000000007
10
83.293999999999997
20
69.655600000000007
10
83.293999999999997
20
63.85560000000001
10
84.094800000000006
20
63.85560000000001
10
84.094800000000006
20
60.75500000000001
10
83.293999999999997
20
60.75500000000001
10
83.293999999999997
20
59.756
10
69.294700000000006
20
59.756
10
69.294700000000006
20
60.75500000000001
10
68.4953
20
60.75500000000001
10
68.4953
20
63.85560000000001
10
69.294700000000006
20
63.85560000000001
10
69.294700000000006
20
69.655600000000007
10
68.4953
20
69.655600000000007
0
LWPOLYLINE
5
125
100
AcDbEntity
8
0
100
AcDbPolyline
90
20
70
1
43
0.0
10
106.59500000000001
20
63.85560000000001
10
107.395
20
63.85560000000001
10
107.395
20
69.655600000000007
10
106.59500000000001
20
69.655600000000007
10
106.59500000000001
20
72.754800000000003
10
107.395
20
72.754800000000003
10
107.395
20
73.755300000000005
10
121.39400000000001
20
73.755300000000005
10
121.39400000000001
20
72.754800000000003
10
122.19499999999999
20
72.754800000000003
10
122.19499999999999
20
69.655600000000007
10
121.39400000000001
20
69.655600000000007
10
121.39400000000001
20
63.85560000000001
10
122.19499999999999
20
63.85560000000001
10
122.19499999999999
20
60.75500000000001
10
121.39400000000001
20
60.75500000000001
10
121.39400000000001
20
59.756
10
107.395
20
59.756
10
107.395
20
60.75500000000001
10
106.59500000000001
20
60.75500000000001
0
LWPOLYLINE
5
126
100
AcDbEntity
8
0
100
AcDbPolyline
90
20
70
1
43
0.0
10
178.54400000000001
20
59.756
10
164.54499999999999
20
59.756
10
164.54499999999999
20
60.75500000000001
10
163.745
20
60.75500000000001
10
163.745
20
63.85560000000001
10
164.54499999999999
20
63.85560000000001
10
164.54499999999999
20
69.655600000000007
10
163.745
20
69.655600000000007
10
163.745
20
72.754800000000003
10
164.54499999999999
20
72.754800000000003
10
164.54499999999999
20
73.755300000000005
10
178.54400000000001
20
73.755300000000005
10
178.54400000000001
20
72.754800000000003
10
179.345
20
72.754800000000003
10
179.345
20
69.655600000000007
10
178.54400000000001
20
69.655600000000007
10
178.54400000000001
20
63.85560000000001
10
179.345
20
63.85560000000001
10
179.345
20
60.75500000000001
10
178.54400000000001
20
60.75500000000001
0
LWPOLYLINE
5
127
100
AcDbEntity
8
0
100
AcDbPolyline
90
20
70
1
43
0.0
10
140.44399999999999
20
63.85560000000001
10
141.245
20
63.85560000000001
10
141.245
20
60.75500000000001
10
140.44399999999999
20
60.75500000000001
10
140.44399999999999
20
59.756
10
126.44500000000001
20
59.756
10
126.44500000000001
20
60.75500000000001
10
125.64399999999999
20
60.75500000000001
10
125.64399999999999
20
63.85560000000001
10
126.44500000000001
20
63.85560000000001
10
126.44500000000001
20
69.655600000000007
10
125.64399999999999
20
69.655600000000007
10
125.64399999999999
20
72.754800000000003
10
126.44500000000001
20
72.754800000000003
10
126.44500000000001
20
73.755300000000005
10
140.44399999999999
20
73.755300000000005
10
140.44399999999999
20
72.754800000000003
10
141.245
20
72.754800000000003
10
141.245
20
69.655600000000007
10
140.44399999999999
20
69.655600000000007
0
LWPOLYLINE
5
128
100
AcDbEntity
8
0
100
AcDbPolyline
90
20
70
1
43
0.0
10
145.495
20
59.756
10
145.495
20
60.75500000000001
10
144.69499999999999
20
60.75500000000001
10
144.69499999999999
20
63.85560000000001
10
145.495
20
63.85560000000001
10
145.495
20
69.655600000000007
10
144.69499999999999
20
69.655600000000007
10
144.69499999999999
20
72.754800000000003
10
145.495
20
72.754800000000003
10
145.495
20
73.755300000000005
10
159.494
20
73.755300000000005
10
159.494
20
72.754800000000003
10
160.29499999999999
20
72.754800000000003
10
160.29499999999999
20
69.655600000000007
10
159.494
20
69.655600000000007
10
159.494
20
63.85560000000001
10
160.29499999999999
20
63.85560000000001
10
160.29499999999999
20
60.75500000000001
10
159.494
20
60.75500000000001
10
159.494
20
59.756
0
LWPOLYLINE
5
129
100
AcDbEntity
8
0
100
AcDbPolyline
90
20
70
1
43
0.0
10
182.79499999999999
20
69.655600000000007
10
182.79499999999999
20
72.754800000000003
10
183.595
20
72.754800000000003
10
183.595
20
73.755300000000005
10
197.59400000000002
20
73.755300000000005
10
197.59400000000002
20
72.754800000000003
10
198.39500000000001
20
72.754800000000003
10
198.39500000000001
20
69.655600000000007
10
197.59400000000002
20
69.655600000000007
10
197.59400000000002
20
63.85560000000001
10
198.39500000000001
20
63.85560000000001
10
198.39500000000001
20
60.75500000000001
10
197.59400000000002
20
60.75500000000001
10
197.59400000000002
20
59.756
10
183.595
20
59.756
10
183.595
20
60.75500000000001
10
182.79499999999999
20
60.75500000000001
10
182.79499999999999
20
63.85560000000001
10
183.595
20
63.85560000000001
10
183.595
20
69.655600000000007
0
LWPOLYLINE
5
130
100
AcDbEntity
8
0
100
AcDbPolyline
90
20
70
1
43
0.0
10
220.89500000000001
20
72.754800000000003
10
221.69499999999999
20
72.754800000000003
10
221.69499999999999
20
73.755300000000005
10
235.69400000000002
20
73.755300000000005
10
235.69400000000002
20
72.754800000000003
10
236.49500000000003
20
72.754800000000003
10
236.49500000000003
20
69.655600000000007
10
235.69400000000002
20
69.655600000000007
10
235.69400000000002
20
63.85560000000001
10
236.49500000000003
20
63.85560000000001
10
236.49500000000003
20
60.75500000000001
10
235.69400000000002
20
60.75500000000001
10
235.69400000000002
20
59.756
10
221.69499999999999
20
59.756
10
221.69499999999999
20
60.75500000000001
10
220.89500000000001
20
60.75500000000001
10
220.89500000000001
20
63.85560000000001
10
221.69499999999999
20
63.85560000000001
10
221.69499999999999
20
69.655600000000007
10
220.89500000000001
20
69.655600000000007
0
LWPOLYLINE
5
131
100
AcDbEntity
8
0
100
AcDbPolyline
90
20
70
1
43
0.0
10
217.44500000000002
20
72.754800000000003
10
217.44500000000002
20
69.655600000000007
10
216.64400000000001
20
69.655600000000007
10
216.64400000000001
20
63.85560000000001
10
217.44500000000002
20
63.85560000000001
10
217.44500000000002
20
60.75500000000001
10
216.64400000000001
20
60.75500000000001
10
216.64400000000001
20
59.756
10
202.64500000000001
20
59.756
10
202.64500000000001
20
60.75500000000001
10
201.845
20
60.75500000000001
10
201.845
20
63.85560000000001
10
202.64500000000001
20
63.85560000000001
10
202.64500000000001
20
69.655600000000007
10
201.845
20
69.655600000000007
10
201.845
20
72.754800000000003
10
202.64500000000001
20
72.754800000000003
10
202.64500000000001
20
73.755300000000005
10
216.64400000000001
20
73.755300000000005
10
216.64400000000001
20
72.754800000000003
0
LWPOLYLINE
5
132
100
AcDbEntity
8
0
100
AcDbPolyline
90
20
70
1
43
0.0
10
239.94500000000002
20
63.85560000000001
10
240.745
20
63.85560000000001
10
240.745
20
69.655600000000007
10
239.94500000000002
20
69.655600000000007
10
239.94500000000002
20
72.754800000000003
10
240.745
20
72.754800000000003
10
240.745
20
73.755300000000005
10
254.74400000000003
20
73.755300000000005
10
254.74400000000003
20
72.754800000000003
10
255.54500000000002
20
72.754800000000003
10
255.54500000000002
20
69.655600000000007
10
254.74400000000003
20
69.655600000000007
10
254.74400000000003
20
63.85560000000001
10
255.54500000000002
20
63.85560000000001
10
255.54500000000002
20
60.75500000000001
10
254.74400000000003
20
60.75500000000001
10
254.74400000000003
20
59.756
10
240.745
20
59.756
10
240.745
20
60.75500000000001
10
239.94500000000002
20
60.75500000000001
0
LWPOLYLINE
5
133
100
AcDbEntity
8
0
100
AcDbPolyline
90
20
70
1
43
0.0
10
331.745
20
69.655600000000007
10
330.94400000000002
20
69.655600000000007
10
330.94400000000002
20
63.85560000000001
10
331.745
20
63.85560000000001
10
331.745
20
60.75500000000001
10
330.94400000000002
20
60.75500000000001
10
330.94400000000002
20
59.756
10
316.94499999999999
20
59.756
10
316.94499999999999
20
60.75500000000001
10
316.14499999999998
20
60.75500000000001
10
316.14499999999998
20
63.85560000000001
10
316.94499999999999
20
63.85560000000001
10
316.94499999999999
20
69.655600000000007
10
316.14499999999998
20
69.655600000000007
10
316.14499999999998
20
72.754800000000003
10
316.94499999999999
20
72.754800000000003
10
316.94499999999999
20
73.755300000000005
10
330.94400000000002
20
73.755300000000005
10
330.94400000000002
20
72.754800000000003
10
331.745
20
72.754800000000003
0
LWPOLYLINE
5
134
100
AcDbEntity
8
0
100
AcDbPolyline
90
20
70
1
43
0.0
10
311.89400000000001
20
72.754800000000003
10
312.69499999999999
20
72.754800000000003
10
312.69499999999999
20
69.655600000000007
10
311.89400000000001
20
69.655600000000007
10
311.89400000000001
20
63.85560000000001
10
312.69499999999999
20
63.85560000000001
10
312.69499999999999
20
60.75500000000001
10
311.89400000000001
20
60.75500000000001
10
311.89400000000001
20
59.756
10
297.89499999999998
20
59.756
10
297.89499999999998
20
60.75500000000001
10
297.09500000000003
20
60.75500000000001
10
297.09500000000003
20
63.85560000000001
10
297.89499999999998
20
63.85560000000001
10
297.89499999999998
20
69.655600000000007
10
297.09500000000003
20
69.655600000000007
10
297.09500000000003
20
72.754800000000003
10
297.89499999999998
20
72.754800000000003
10
297.89499999999998
20
73.755300000000005
10
311.89400000000001
20
73.755300000000005
0
LWPOLYLINE
5
135
100
AcDbEntity
8
0
100
AcDbPolyline
90
148
70
1
43
0.0
10
79.411999999999992
20
1.6357299999999999
10
79.411999999999992
20
2.8346299999999998
10
77.688400000000001
20
2.8346299999999989
10
77.688400000000001
20
9.1046999999999993
10
76.862899999999996
20
9.1046999999999993
10
76.862899999999996
20
11.904900000000001
10
77.688400000000001
20
11.904900000000001
10
77.688400000000001
20
15.135000000000002
10
84.438100000000006
20
15.135000000000002
10
84.438100000000006
20
11.904900000000001
10
87.213399999999993
20
11.904900000000001
10
87.213399999999993
20
15.135000000000002
10
93.963099999999997
20
15.135000000000002
10
93.963099999999997
20
11.904900000000001
10
95.488500000000002
20
11.904900000000001
10
95.488500000000002
20
12.505699999999999
10
94.687700000000007
20
12.505699999999999
10
94.687700000000007
20
15.604900000000001
10
95.488500000000002
20
15.604900000000001
10
95.488500000000002
20
16.605400000000003
10
109.488
20
16.605400000000003
10
109.488
20
15.604900000000001
10
110.28700000000001
20
15.604900000000001
10
110.28700000000001
20
12.505699999999999
10
109.488
20
12.505699999999999
10
109.488
20
11.904900000000001
10
111.014
20
11.904900000000001
10
111.014
20
15.135000000000002
10
117.76299999999999
20
15.135000000000002
10
117.76299999999999
20
11.904900000000001
10
124.06200000000001
20
11.904900000000001
10
124.06200000000001
20
12.505699999999999
10
123.26300000000001
20
12.505699999999999
10
123.26300000000001
20
15.604900000000001
10
124.06200000000001
20
15.604900000000001
10
124.06200000000001
20
16.605400000000003
10
138.06299999999999
20
16.605400000000003
10
138.06299999999999
20
15.604900000000001
10
138.86199999999999
20
15.604900000000001
10
138.86199999999999
20
12.505699999999999
10
138.06299999999999
20
12.505699999999999
10
138.06299999999999
20
11.904900000000001
10
144.363
20
11.904900000000001
10
144.363
20
15.135000000000002
10
151.113
20
15.135000000000002
10
151.113
20
11.904900000000001
10
152.63800000000001
20
11.904900000000001
10
152.63800000000001
20
12.505699999999999
10
151.83799999999999
20
12.505699999999999
10
151.83799999999999
20
15.604900000000001
10
152.63800000000001
20
15.604900000000001
10
152.63800000000001
20
16.605400000000003
10
166.63800000000003
20
16.605400000000003
10
166.63800000000003
20
15.604900000000001
10
167.43700000000001
20
15.604900000000001
10
167.43700000000001
20
12.505699999999999
10
166.63800000000003
20
12.505699999999999
10
166.63800000000003
20
11.904900000000001
10
168.16400000000002
20
11.904900000000001
10
168.16400000000002
20
15.135000000000002
10
174.91299999999998
20
15.135000000000002
10
174.91299999999998
20
11.904900000000001
10
177.68900000000002
20
11.904900000000001
10
177.68900000000002
20
15.135000000000002
10
184.43799999999999
20
15.135000000000002
10
184.43799999999999
20
11.904900000000001
10
185.262
20
11.904900000000001
10
185.262
20
9.1046999999999993
10
184.43799999999999
20
9.1047000000000011
10
184.43799999999999
20
2.8346299999999998
10
182.71299999999999
20
2.8346299999999998
10
182.71299999999999
20
1.6357299999999999
10
179.41200000000003
20
1.6357299999999999
10
179.41200000000003
20
2.8346299999999998
10
177.68900000000002
20
2.8346299999999998
10
177.68900000000002
20
7.3049700000000009
10
174.91299999999998
20
7.3049700000000009
10
174.91299999999998
20
2.8346299999999998
10
173.18799999999999
20
2.8346299999999998
10
173.18799999999999
20
1.6357299999999999
10
169.887
20
1.6357299999999999
10
169.887
20
2.8346299999999998
10
168.16400000000002
20
2.8346299999999998
10
168.16400000000002
20
7.3049700000000009
10
166.63800000000003
20
7.3049700000000009
10
166.63800000000003
20
6.7055300000000004
10
167.43700000000001
20
6.7055300000000004
10
167.43700000000001
20
3.6049700000000002
10
166.63800000000003
20
3.6049700000000002
10
166.63800000000003
20
2.6058700000000004
10
152.63800000000001
20
2.6058700000000004
10
152.63800000000001
20
3.6049700000000002
10
151.83799999999999
20
3.6049700000000002
10
151.83799999999999
20
6.7055300000000004
10
152.63800000000001
20
6.7055300000000004
10
152.63800000000001
20
7.3049700000000009
10
151.113
20
7.3049700000000009
10
151.113
20
2.8346299999999998
10
149.38800000000001
20
2.8346299999999998
10
149.38800000000001
20
1.6357299999999999
10
146.08700000000002
20
1.6357299999999999
10
146.08700000000002
20
2.8346299999999998
10
144.363
20
2.8346299999999998
10
144.363
20
7.3049700000000009
10
138.06299999999999
20
7.3049700000000009
10
138.06299999999999
20
6.7055300000000004
10
138.86199999999999
20
6.7055300000000004
10
138.86199999999999
20
3.6049700000000002
10
138.06299999999999
20
3.6049700000000002
10
138.06299999999999
20
2.6058700000000004
10
124.06200000000001
20
2.6058700000000004
10
124.06200000000001
20
3.6049700000000002
10
123.26300000000001
20
3.6049700000000002
10
123.26300000000001
20
6.7055300000000004
10
124.06200000000001
20
6.7055300000000004
10
124.06200000000001
20
7.3049700000000009
10
117.76299999999999
20
7.3049700000000009
10
117.76299999999999
20
2.8346299999999998
10
116.038
20
2.8346299999999998
10
116.038
20
1.6357299999999999
10
112.73700000000002
20
1.6357299999999999
10
112.73700000000002
20
2.8346299999999998
10
111.014
20
2.8346299999999998
10
111.014
20
7.3049700000000009
10
109.488
20
7.3049700000000009
10
109.488
20
6.7055300000000004
10
110.28700000000001
20
6.7055300000000004
10
110.28700000000001
20
3.6049700000000002
10
109.488
20
3.6049700000000002
10
109.488
20
2.6058700000000004
10
95.488500000000002
20
2.6058700000000004
10
95.488500000000002
20
3.6049700000000002
10
94.687700000000007
20
3.6049700000000002
10
94.687700000000007
20
6.7055300000000004
10
95.488500000000002
20
6.7055300000000004
10
95.488500000000002
20
7.3049700000000009
10
93.963099999999997
20
7.3049700000000009
10
93.963099999999997
20
2.8346299999999998
10
92.2376
20
2.8346299999999998
10
92.2376
20
1.6357299999999999
10
88.937000000000012
20
1.6357299999999999
10
88.937000000000012
20
2.8346299999999998
10
87.213399999999993
20
2.8346299999999998
10
87.213399999999993
20
7.3049700000000009
10
84.438100000000006
20
7.3049700000000009
10
84.438100000000006
20
2.8346299999999998
10
82.712599999999995
20
2.8346299999999998
10
82.712599999999995
20
1.6357299999999999
0
LWPOLYLINE
5
136
100
AcDbEntity
8
0
100
AcDbPolyline
90
4
70
1
43
0.0
10
371.57000000000005
20
76.280100000000004
10
0.095084600000000019
20
76.280100000000004
10
0.095084599999992747
20
0.079926400000000009
10
371.57000000000005
20
0.079926400000003284
0
LWPOLYLINE
5
137
100
AcDbEntity
8
0
100
AcDbPolyline
90
20
70
1
43
0.0
10
335.19499999999999
20
72.754800000000003
10
335.995
20
72.754800000000003
10
335.995
20
73.755300000000005
10
349.99400000000003
20
73.755300000000005
10
349.99400000000003
20
72.754800000000003
10
350.79500000000002
20
72.754800000000003
10
350.79500000000002
20
69.655600000000007
10
349.99400000000003
20
69.655600000000007
10
349.99400000000003
20
63.85560000000001
10
350.79500000000002
20
63.85560000000001
10
350.79500000000002
20
60.75500000000001
10
349.99400000000003
20
60.75500000000001
10
349.99400000000003
20
59.756
10
335.995
20
59.756
10
335.995
20
60.75500000000001
10
335.19499999999999
20
60.75500000000001
10
335.19499999999999
20
63.85560000000001
10
335.995
20
63.85560000000001
10
335.995
20
69.655600000000007
10
335.19499999999999
20
69.655600000000007
0
LWPOLYLINE
5
138
100
AcDbEntity
8
0
100
AcDbPolyline
90
20
70
1
43
0.0
10
355.04600000000005
20
72.754800000000003
10
355.04600000000005
20
73.755300000000005
10
369.04400000000004
20
73.755300000000005
10
369.04400000000004
20
72.754800000000003
10
369.84500000000003
20
72.754800000000003
10
369.84500000000003
20
69.655600000000007
10
369.04400000000004
20
69.655600000000007
10
369.04400000000004
20
63.85560000000001
10
369.84500000000003
20
63.85560000000001
10
369.84500000000003
20
60.75500000000001
10
369.04400000000004
20
60.75500000000001
10
369.04400000000004
20
59.756
10
355.04600000000005
20
59.756
10
355.04600000000005
20
60.75500000000001
10
354.245
20
60.75500000000001
10
354.245
20
63.85560000000001
10
355.04600000000005
20
63.85560000000001
10
355.04600000000005
20
69.655600000000007
10
354.245
20
69.655600000000007
10
354.245
20
72.754800000000003
0
LWPOLYLINE
5
139
100
AcDbEntity
8
0
100
AcDbPolyline
90
20
70
1
43
0.0
10
4.2002800000000011
20
6.7055300000000004
10
5.0009100000000011
20
6.7055300000000004
10
5.0009100000000011
20
12.505699999999999
10
4.2002800000000011
20
12.505699999999999
10
4.2002800000000011
20
15.604900000000001
10
5.0009100000000011
20
15.604900000000001
10
5.0009100000000011
20
16.605400000000003
10
19.000399999999999
20
16.605400000000003
10
19.000399999999999
20
15.604900000000001
10
19.800999999999998
20
15.604900000000001
10
19.800999999999998
20
12.505699999999999
10
19.000399999999999
20
12.505699999999999
10
19.000399999999999
20
6.7055300000000004
10
19.800999999999998
20
6.7055300000000004
10
19.800999999999998
20
3.6049700000000002
10
19.000399999999999
20
3.6049700000000002
10
19.000399999999999
20
2.6058700000000004
10
5.0009100000000011
20
2.6058700000000004
10
5.0009100000000011
20
3.6049700000000002
10
4.2002800000000011
20
3.6049700000000002
0
LWPOLYLINE
5
140
100
AcDbEntity
8
0
100
AcDbPolyline
90
20
70
1
43
0.0
10
28.012800000000002
20
15.604900000000001
10
28.813400000000001
20
15.604900000000001
10
28.813400000000001
20
16.605400000000003
10
42.81280000000001
20
16.605400000000003
10
42.81280000000001
20
15.604900000000001
10
43.612200000000001
20
15.604900000000001
10
43.612200000000001
20
12.505699999999999
10
42.81280000000001
20
12.505699999999999
10
42.81280000000001
20
6.7055300000000004
10
43.612200000000001
20
6.7055300000000004
10
43.612200000000001
20
3.6049700000000002
10
42.81280000000001
20
3.6049700000000002
10
42.81280000000001
20
2.6058700000000004
10
28.813400000000001
20
2.6058700000000004
10
28.813400000000001
20
3.6049700000000002
10
28.012800000000002
20
3.6049700000000002
10
28.012800000000002
20
6.7055300000000004
10
28.813400000000001
20
6.7055300000000004
10
28.813400000000001
20
12.505699999999999
10
28.012800000000002
20
12.505699999999999
0
LWPOLYLINE
5
141
100
AcDbEntity
8
0
100
AcDbPolyline
90
20
70
1
43
0.0
10
66.62530000000001
20
6.7055300000000004
10
67.426100000000005
20
6.7055300000000004
10
67.426100000000005
20
3.6049700000000002
10
66.62530000000001
20
3.6049700000000002
10
66.62530000000001
20
2.6058700000000004
10
52.626000000000005
20
2.6058700000000004
10
52.626000000000005
20
3.6049700000000002
10
51.825200000000002
20
3.6049700000000002
10
51.825200000000002
20
6.7055300000000004
10
52.626000000000005
20
6.7055300000000004
10
52.626000000000005
20
12.505699999999999
10
51.825200000000002
20
12.505699999999999
10
51.825200000000002
20
15.604900000000001
10
52.626000000000005
20
15.604900000000001
10
52.626000000000005
20
16.605400000000003
10
66.62530000000001
20
16.605400000000003
10
66.62530000000001
20
15.604900000000001
10
67.426100000000005
20
15.604900000000001
10
67.426100000000005
20
12.505699999999999
10
66.62530000000001
20
12.505699999999999
0
LWPOLYLINE
5
142
100
AcDbEntity
8
0
100
AcDbPolyline
90
20
70
1
43
0.0
10
207.92000000000002
20
15.604900000000001
10
207.92000000000002
20
12.505699999999999
10
207.11900000000003
20
12.505699999999999
10
207.11900000000003
20
6.7055300000000004
10
207.92000000000002
20
6.7055300000000004
10
207.92000000000002
20
3.6049700000000002
10
207.11900000000003
20
3.6049700000000002
10
207.11900000000003
20
2.6058700000000004
10
193.11800000000002
20
2.6058700000000004
10
193.11800000000002
20
3.6049700000000002
10
192.31900000000002
20
3.6049700000000002
10
192.31900000000002
20
6.7055300000000004
10
193.11800000000002
20
6.7055300000000004
10
193.11800000000002
20
12.505699999999999
10
192.31900000000002
20
12.505699999999999
10
192.31900000000002
20
15.604900000000001
10
193.11800000000002
20
15.604900000000001
10
193.11800000000002
20
16.605400000000003
10
207.11900000000003
20
16.605400000000003
10
207.11900000000003
20
15.604900000000001
0
LWPOLYLINE
5
143
100
AcDbEntity
8
0
100
AcDbPolyline
90
20
70
1
43
0.0
10
235.98200000000003
20
2.6058700000000004
10
235.98200000000003
20
3.6049700000000002
10
235.18100000000001
20
3.6049700000000002
10
235.18100000000001
20
6.7055300000000004
10
235.98200000000003
20
6.7055300000000004
10
235.98200000000003
20
12.505699999999999
10
235.18100000000001
20
12.505699999999999
10
235.18100000000001
20
15.604900000000001
10
235.98200000000003
20
15.604900000000001
10
235.98200000000003
20
16.605400000000003
10
249.982
20
16.605400000000003
10
249.982
20
15.604900000000001
10
250.78200000000004
20
15.604900000000001
10
250.78200000000004
20
12.505699999999999
10
249.982
20
12.505699999999999
10
249.982
20
6.7055300000000004
10
250.78200000000004
20
6.7055300000000004
10
250.78200000000004
20
3.6049700000000002
10
249.982
20
3.6049700000000002
10
249.982
20
2.6058700000000004
0
LWPOLYLINE
5
144
100
AcDbEntity
8
0
100
AcDbPolyline
90
20
70
1
43
0.0
10
228.55000000000004
20
6.7055300000000004
10
229.35100000000003
20
6.7055300000000004
10
229.35100000000003
20
3.6049700000000002
10
228.55000000000004
20
3.6049700000000002
10
228.55000000000004
20
2.6058700000000004
10
214.55100000000002
20
2.6058700000000004
10
214.55100000000002
20
3.6049700000000002
10
213.75
20
3.6049700000000002
10
213.75
20
6.7055300000000004
10
214.55100000000002
20
6.7055300000000004
10
214.55100000000002
20
12.505699999999999
10
213.75
20
12.505699999999999
10
213.75
20
15.604900000000001
10
214.55100000000002
20
15.604900000000001
10
214.55100000000002
20
16.605400000000003
10
228.55000000000004
20
16.605400000000003
10
228.55000000000004
20
15.604900000000001
10
229.35100000000003
20
15.604900000000001
10
229.35100000000003
20
12.505699999999999
10
228.55000000000004
20
12.505699999999999
0
LWPOLYLINE
5
145
100
AcDbEntity
8
0
100
AcDbPolyline
90
20
70
1
43
0.0
10
297.89299999999997
20
15.604900000000001
10
297.89299999999997
20
16.605400000000003
10
311.89400000000001
20
16.605400000000003
10
311.89400000000001
20
15.604900000000001
10
312.69299999999998
20
15.604900000000001
10
312.69299999999998
20
12.505699999999999
10
311.89400000000001
20
12.505699999999999
10
311.89400000000001
20
6.7055300000000004
10
312.69299999999998
20
6.7055300000000004
10
312.69299999999998
20
3.6049700000000002
10
311.89400000000001
20
3.6049700000000002
10
311.89400000000001
20
2.6058700000000004
10
297.89299999999997
20
2.6058700000000004
10
297.89299999999997
20
3.6049700000000002
10
297.09400000000005
20
3.6049700000000002
10
297.09400000000005
20
6.7055300000000004
10
297.89299999999997
20
6.7055300000000004
10
297.89299999999997
20
12.505699999999999
10
297.09400000000005
20
12.505699999999999
10
297.09400000000005
20
15.604900000000001
0
LWPOLYLINE
5
146
100
AcDbEntity
8
0
100
AcDbPolyline
90
20
70
1
43
0.0
10
278.84300000000002
20
15.604900000000001
10
278.84300000000002
20
16.605400000000003
10
292.84399999999999
20
16.605400000000003
10
292.84399999999999
20
15.604900000000001
10
293.64300000000003
20
15.604900000000001
10
293.64300000000003
20
12.505699999999999
10
292.84399999999999
20
12.505699999999999
10
292.84399999999999
20
6.7055300000000004
10
293.64300000000003
20
6.7055300000000004
10
293.64300000000003
20
3.6049700000000002
10
292.84399999999999
20
3.6049700000000002
10
292.84399999999999
20
2.6058700000000004
10
278.84300000000002
20
2.6058700000000004
10
278.84300000000002
20
3.6049700000000002
10
278.04400000000004
20
3.6049700000000002
10
278.04400000000004
20
6.7055300000000004
10
278.84300000000002
20
6.7055300000000004
10
278.84300000000002
20
12.505699999999999
10
278.04400000000004
20
12.505699999999999
10
278.04400000000004
20
15.604900000000001
0
LWPOLYLINE
5
147
100
AcDbEntity
8
0
100
AcDbPolyline
90
20
70
1
43
0.0
10
272.21199999999999
20
3.6049700000000002
10
271.41300000000001
20
3.6049700000000002
10
271.41300000000001
20
2.6058700000000004
10
257.41300000000001
20
2.6058700000000004
10
257.41300000000001
20
3.6049700000000002
10
256.61099999999999
20
3.6049700000000002
10
256.61099999999999
20
6.7055300000000004
10
257.41300000000001
20
6.7055300000000004
10
257.41300000000001
20
12.505699999999999
10
256.61099999999999
20
12.505699999999999
10
256.61099999999999
20
15.604900000000001
10
257.41300000000001
20
15.604900000000001
10
257.41300000000001
20
16.605400000000003
10
271.41300000000001
20
16.605400000000003
10
271.41300000000001
20
15.604900000000001
10
272.21199999999999
20
15.604900000000001
10
272.21199999999999
20
12.505699999999999
10
271.41300000000001
20
12.505699999999999
10
271.41300000000001
20
6.7055300000000004
10
272.21199999999999
20
6.7055300000000004
0
LWPOLYLINE
5
148
100
AcDbEntity
8
0
100
AcDbPolyline
90
20
70
1
43
0.0
10
355.04600000000005
20
2.6058700000000004
10
355.04600000000005
20
3.6049700000000002
10
354.245
20
3.6049700000000002
10
354.245
20
6.7055300000000004
10
355.04600000000005
20
6.7055300000000004
10
355.04600000000005
20
12.505699999999999
10
354.245
20
12.505699999999999
10
354.245
20
15.604900000000001
10
355.04600000000005
20
15.604900000000001
10
355.04600000000005
20
16.605400000000003
10
369.04400000000004
20
16.605400000000003
10
369.04400000000004
20
15.604900000000001
10
369.84500000000003
20
15.604900000000001
10
369.84500000000003
20
12.505699999999999
10
369.04400000000004
20
12.505699999999999
10
369.04400000000004
20
6.7055300000000004
10
369.84500000000003
20
6.7055300000000004
10
369.84500000000003
20
3.6049700000000002
10
369.04400000000004
20
3.6049700000000002
10
369.04400000000004
20
2.6058700000000004
0
LWPOLYLINE
5
149
100
AcDbEntity
8
0
100
AcDbPolyline
90
20
70
1
43
0.0
10
331.745
20
15.604900000000001
10
331.745
20
12.505699999999999
10
330.94400000000002
20
12.505699999999999
10
330.94400000000002
20
6.7055300000000004
10
331.745
20
6.7055300000000004
10
331.745
20
3.6049700000000002
10
330.94400000000002
20
3.6049700000000002
10
330.94400000000002
20
2.6058700000000004
10
316.94299999999998
20
2.6058700000000004
10
316.94299999999998
20
3.6049700000000002
10
316.14400000000001
20
3.6049700000000002
10
316.14400000000001
20
6.7055300000000004
10
316.94299999999998
20
6.7055300000000004
10
316.94299999999998
20
12.505699999999999
10
316.14400000000001
20
12.505699999999999
10
316.14400000000001
20
15.604900000000001
10
316.94299999999998
20
15.604900000000001
10
316.94299999999998
20
16.605400000000003
10
330.94400000000002
20
16.605400000000003
10
330.94400000000002
20
15.604900000000001
0
LWPOLYLINE
5
150
100
AcDbEntity
8
0
100
AcDbPolyline
90
52
70
1
43
0.0
10
14.5259
20
34.654899999999998
10
14.5259
20
35.655299999999997
10
28.525400000000005
20
35.655299999999997
10
28.525400000000005
20
34.654899999999998
10
29.326000000000004
20
34.654899999999998
10
29.326000000000004
20
31.555700000000005
10
28.525400000000005
20
31.555700000000005
10
28.525400000000005
20
30.954899999999999
10
30.050899999999999
20
30.954899999999999
10
30.050899999999999
20
34.185000000000002
10
36.800400000000003
20
34.185000000000002
10
36.800400000000003
20
30.954899999999999
10
37.625900000000001
20
30.954899999999999
10
37.625900000000001
20
28.154699999999998
10
36.800400000000003
20
28.154699999999998
10
36.800400000000003
20
21.886000000000003
10
35.075200000000002
20
21.886000000000003
10
35.075200000000002
20
20.685700000000004
10
31.776200000000003
20
20.685700000000004
10
31.776200000000003
20
21.886000000000003
10
30.050899999999999
20
21.886000000000003
10
30.050899999999999
20
26.355000000000004
10
28.525400000000005
20
26.355000000000004
10
28.525400000000005
20
25.755500000000001
10
29.326000000000004
20
25.755500000000001
10
29.326000000000004
20
22.655000000000001
10
28.525400000000005
20
22.655000000000001
10
28.525400000000005
20
21.655899999999999
10
14.5259
20
21.655899999999999
10
14.5259
20
22.655000000000001
10
13.725300000000002
20
22.655000000000001
10
13.725300000000002
20
25.755500000000001
10
14.5259
20
25.755500000000001
10
14.5259
20
26.355000000000004
10
13.000400000000001
20
26.355000000000004
10
13.000400000000001
20
21.886000000000003
10
11.2751
20
21.886000000000003
10
11.2751
20
20.685700000000004
10
7.9760900000000001
20
20.685700000000004
10
7.9760900000000001
20
21.886000000000003
10
6.2508000000000008
20
21.886000000000003
10
6.2508000000000008
20
28.154699999999998
10
5.4253300000000007
20
28.154699999999998
10
5.4253300000000007
20
30.954899999999999
10
6.2508000000000008
20
30.954899999999999
10
6.2508000000000008
20
34.185000000000002
10
13.000400000000001
20
34.185000000000002
10
13.000400000000001
20
30.954899999999999
10
14.5259
20
30.954899999999999
10
14.5259
20
31.555700000000005
10
13.725300000000002
20
31.555700000000005
10
13.725300000000002
20
34.654899999999998
0
LWPOLYLINE
5
151
100
AcDbEntity
8
0
100
AcDbPolyline
90
20
70
1
43
0.0
10
349.99400000000003
20
15.604900000000001
10
350.79500000000002
20
15.604900000000001
10
350.79500000000002
20
12.505699999999999
10
349.99400000000003
20
12.505699999999999
10
349.99400000000003
20
6.7055300000000004
10
350.79500000000002
20
6.7055300000000004
10
350.79500000000002
20
3.6049700000000002
10
349.99400000000003
20
3.6049700000000002
10
349.99400000000003
20
2.6058700000000004
10
335.995
20
2.6058700000000004
10
335.995
20
3.6049700000000002
10
335.19400000000007
20
3.6049700000000002
10
335.19400000000007
20
6.7055300000000004
10
335.995
20
6.7055300000000004
10
335.995
20
12.505699999999999
10
335.19400000000007
20
12.505699999999999
10
335.19400000000007
20
15.604900000000001
10
335.995
20
15.604900000000001
10
335.995
20
16.605400000000003
10
349.99400000000003
20
16.605400000000003
0
LWPOLYLINE
5
152
100
AcDbEntity
8
0
100
AcDbPolyline
90
20
70
1
43
0.0
10
44.681399999999996
20
22.655000000000001
10
44.681399999999996
20
25.755500000000001
10
45.482199999999999
20
25.755500000000001
10
45.482199999999999
20
31.555700000000005
10
44.681399999999996
20
31.555700000000005
10
44.681399999999996
20
34.654899999999998
10
45.482199999999999
20
34.654899999999998
10
45.482199999999999
20
35.655299999999997
10
59.481499999999997
20
35.655299999999997
10
59.481499999999997
20
34.654899999999998
10
60.282300000000006
20
34.654899999999998
10
60.282300000000006
20
31.555700000000005
10
59.481499999999997
20
31.555700000000005
10
59.481499999999997
20
25.755500000000001
10
60.282300000000006
20
25.755500000000001
10
60.282300000000006
20
22.655000000000001
10
59.481499999999997
20
22.655000000000001
10
59.481499999999997
20
21.655899999999999
10
45.482199999999999
20
21.655899999999999
10
45.482199999999999
20
22.655000000000001
0
LWPOLYLINE
5
153
100
AcDbEntity
8
0
100
AcDbPolyline
90
20
70
1
43
0.0
10
83.582200000000014
20
31.555700000000005
10
82.781400000000005
20
31.555700000000005
10
82.781400000000005
20
34.654899999999998
10
83.582200000000014
20
34.654899999999998
10
83.582200000000014
20
35.655299999999997
10
97.581500000000005
20
35.655299999999997
10
97.581500000000005
20
34.654899999999998
10
98.382300000000015
20
34.654899999999998
10
98.382300000000015
20
31.555700000000005
10
97.581500000000005
20
31.555700000000005
10
97.581500000000005
20
25.755500000000001
10
98.382300000000015
20
25.755500000000001
10
98.382300000000015
20
22.655000000000001
10
97.581500000000005
20
22.655000000000001
10
97.581500000000005
20
21.655899999999999
10
83.582200000000014
20
21.655899999999999
10
83.582200000000014
20
22.655000000000001
10
82.781400000000005
20
22.655000000000001
10
82.781400000000005
20
25.755500000000001
10
83.582200000000014
20
25.755500000000001
0
LWPOLYLINE
5
154
100
AcDbEntity
8
0
100
AcDbPolyline
90
20
70
1
43
0.0
10
117.43200000000002
20
31.555700000000005
10
116.63200000000002
20
31.555700000000005
10
116.63200000000002
20
25.755500000000001
10
117.43200000000002
20
25.755500000000001
10
117.43200000000002
20
22.655000000000001
10
116.63200000000002
20
22.655000000000001
10
116.63200000000002
20
21.655899999999999
10
102.63200000000001
20
21.655899999999999
10
102.63200000000001
20
22.655000000000001
10
101.83100000000002
20
22.655000000000001
10
101.83100000000002
20
25.755500000000001
10
102.63200000000001
20
25.755500000000001
10
102.63200000000001
20
31.555700000000005
10
101.83100000000002
20
31.555700000000005
10
101.83100000000002
20
34.654899999999998
10
102.63200000000001
20
34.654899999999998
10
102.63200000000001
20
35.655299999999997
10
116.63200000000002
20
35.655299999999997
10
116.63200000000002
20
34.654899999999998
10
117.43200000000002
20
34.654899999999998
0
LWPOLYLINE
5
155
100
AcDbEntity
8
0
100
AcDbPolyline
90
20
70
1
43
0.0
10
78.531499999999994
20
31.555700000000005
10
78.531499999999994
20
25.755500000000001
10
79.332300000000004
20
25.755500000000001
10
79.332300000000004
20
22.655000000000001
10
78.531499999999994
20
22.655000000000001
10
78.531499999999994
20
21.655899999999999
10
64.532200000000003
20
21.655899999999999
10
64.532200000000003
20
22.655000000000001
10
63.731400000000001
20
22.655000000000001
10
63.731400000000001
20
25.755500000000001
10
64.532200000000003
20
25.755500000000001
10
64.532200000000003
20
31.555700000000005
10
63.731400000000001
20
31.555700000000005
10
63.731400000000001
20
34.654899999999998
10
64.532200000000003
20
34.654899999999998
10
64.532200000000003
20
35.655299999999997
10
78.531499999999994
20
35.655299999999997
10
78.531499999999994
20
34.654899999999998
10
79.332300000000004
20
34.654899999999998
10
79.332300000000004
20
31.555700000000005
0
LWPOLYLINE
5
156
100
AcDbEntity
8
0
100
AcDbPolyline
90
20
70
1
43
0.0
10
158.98099999999999
20
34.654899999999998
10
159.78200000000001
20
34.654899999999998
10
159.78200000000001
20
35.655299999999997
10
173.78200000000004
20
35.655299999999997
10
173.78200000000004
20
34.654899999999998
10
174.58200000000002
20
34.654899999999998
10
174.58200000000002
20
31.555700000000005
10
173.78200000000004
20
31.555700000000005
10
173.78200000000004
20
25.755500000000001
10
174.58200000000002
20
25.755500000000001
10
174.58200000000002
20
22.655000000000001
10
173.78200000000004
20
22.655000000000001
10
173.78200000000004
20
21.655899999999999
10
159.78200000000001
20
21.655899999999999
10
159.78200000000001
20
22.655000000000001
10
158.98099999999999
20
22.655000000000001
10
158.98099999999999
20
25.755500000000001
10
159.78200000000001
20
25.755500000000001
10
159.78200000000001
20
31.555700000000005
10
158.98099999999999
20
31.555700000000005
0
LWPOLYLINE
5
157
100
AcDbEntity
8
0
100
AcDbPolyline
90
20
70
1
43
0.0
10
120.881
20
25.755500000000001
10
121.682
20
25.755500000000001
10
121.682
20
31.555700000000005
10
120.881
20
31.555700000000005
10
120.881
20
34.654899999999998
10
121.682
20
34.654899999999998
10
121.682
20
35.655299999999997
10
135.68200000000002
20
35.655299999999997
10
135.68200000000002
20
34.654899999999998
10
136.482
20
34.654899999999998
10
136.482
20
31.555700000000005
10
135.68200000000002
20
31.555700000000005
10
135.68200000000002
20
25.755500000000001
10
136.482
20
25.755500000000001
10
136.482
20
22.655000000000001
10
135.68200000000002
20
22.655000000000001
10
135.68200000000002
20
21.655899999999999
10
121.682
20
21.655899999999999
10
121.682
20
22.655000000000001
10
120.881
20
22.655000000000001
0
LWPOLYLINE
5
158
100
AcDbEntity
8
0
100
AcDbPolyline
90
20
70
1
43
0.0
10
155.53200000000001
20
25.755500000000001
10
155.53200000000001
20
22.655000000000001
10
154.732
20
22.655000000000001
10
154.732
20
21.655899999999999
10
140.732
20
21.655899999999999
10
140.732
20
22.655000000000001
10
139.93100000000001
20
22.655000000000001
10
139.93100000000001
20
25.755500000000001
10
140.732
20
25.755500000000001
10
140.732
20
31.555700000000005
10
139.93100000000001
20
31.555700000000005
10
139.93100000000001
20
34.654899999999998
10
140.732
20
34.654899999999998
10
140.732
20
35.655299999999997
10
154.732
20
35.655299999999997
10
154.732
20
34.654899999999998
10
155.53200000000001
20
34.654899999999998
10
155.53200000000001
20
31.555700000000005
10
154.732
20
31.555700000000005
10
154.732
20
25.755500000000001
0
LWPOLYLINE
5
159
100
AcDbEntity
8
0
100
AcDbPolyline
90
20
70
1
43
0.0
10
211.88200000000001
20
35.655299999999997
10
211.88200000000001
20
34.654899999999998
10
212.68200000000004
20
34.654899999999998
10
212.68200000000004
20
31.555700000000005
10
211.88200000000001
20
31.555700000000005
10
211.88200000000001
20
25.755500000000001
10
212.68200000000004
20
25.755500000000001
10
212.68200000000004
20
22.655000000000001
10
211.88200000000001
20
22.655000000000001
10
211.88200000000001
20
21.655899999999999
10
197.88200000000003
20
21.655899999999999
10
197.88200000000003
20
22.655000000000001
10
197.08100000000002
20
22.655000000000001
10
197.08100000000002
20
25.755500000000001
10
197.88200000000003
20
25.755500000000001
10
197.88200000000003
20
31.555700000000005
10
197.08100000000002
20
31.555700000000005
10
197.08100000000002
20
34.654899999999998
10
197.88200000000003
20
34.654899999999998
10
197.88200000000003
20
35.655299999999997
0
LWPOLYLINE
5
160
100
AcDbEntity
8
0
100
AcDbPolyline
90
20
70
1
43
0.0
10
178.83199999999999
20
21.655899999999999
10
178.83199999999999
20
22.655000000000001
10
178.03099999999998
20
22.655000000000001
10
178.03099999999998
20
25.755500000000001
10
178.83199999999999
20
25.755500000000001
10
178.83199999999999
20
31.555700000000005
10
178.03099999999998
20
31.555700000000005
10
178.03099999999998
20
34.654899999999998
10
178.83199999999999
20
34.654899999999998
10
178.83199999999999
20
35.655299999999997
10
192.83199999999999
20
35.655299999999997
10
192.83199999999999
20
34.654899999999998
10
193.63200000000003
20
34.654899999999998
10
193.63200000000003
20
31.555700000000005
10
192.83199999999999
20
31.555700000000005
10
192.83199999999999
20
25.755500000000001
10
193.63200000000003
20
25.755500000000001
10
193.63200000000003
20
22.655000000000001
10
192.83199999999999
20
22.655000000000001
10
192.83199999999999
20
21.655899999999999
0
LWPOLYLINE
5
161
100
AcDbEntity
8
0
100
AcDbPolyline
90
20
70
1
43
0.0
10
235.98200000000003
20
22.655000000000001
10
235.18100000000001
20
22.655000000000001
10
235.18100000000001
20
25.755500000000001
10
235.98200000000003
20
25.755500000000001
10
235.98200000000003
20
31.555700000000005
10
235.18100000000001
20
31.555700000000005
10
235.18100000000001
20
34.654899999999998
10
235.98200000000003
20
34.654899999999998
10
235.98200000000003
20
35.655299999999997
10
249.982
20
35.655299999999997
10
249.982
20
34.654899999999998
10
250.78200000000004
20
34.654899999999998
10
250.78200000000004
20
31.555700000000005
10
249.982
20
31.555700000000005
10
249.982
20
25.755500000000001
10
250.78200000000004
20
25.755500000000001
10
250.78200000000004
20
22.655000000000001
10
249.982
20
22.655000000000001
10
249.982
20
21.655899999999999
10
235.98200000000003
20
21.655899999999999
0
LWPOLYLINE
5
162
100
AcDbEntity
8
0
100
AcDbPolyline
90
20
70
1
43
0.0
10
216.131
20
31.555700000000005
10
216.131
20
34.654899999999998
10
216.93200000000004
20
34.654899999999998
10
216.93200000000004
20
35.655299999999997
10
230.93200000000002
20
35.655299999999997
10
230.93200000000002
20
34.654899999999998
10
231.73200000000003
20
34.654899999999998
10
231.73200000000003
20
31.555700000000005
10
230.93200000000002
20
31.555700000000005
10
230.93200000000002
20
25.755500000000001
10
231.73200000000003
20
25.755500000000001
10
231.73200000000003
20
22.655000000000001
10
230.93200000000002
20
22.655000000000001
10
230.93200000000002
20
21.655899999999999
10
216.93200000000004
20
21.655899999999999
10
216.93200000000004
20
22.655000000000001
10
216.131
20
22.655000000000001
10
216.131
20
25.755500000000001
10
216.93200000000004
20
25.755500000000001
10
216.93200000000004
20
31.555700000000005
0
LWPOLYLINE
5
163
100
AcDbEntity
8
0
100
AcDbPolyline
90
20
70
1
43
0.0
10
292.84399999999999
20
34.654899999999998
10
293.64499999999998
20
34.654899999999998
10
293.64499999999998
20
31.555700000000005
10
292.84399999999999
20
31.555700000000005
10
292.84399999999999
20
25.755500000000001
10
293.64499999999998
20
25.755500000000001
10
293.64499999999998
20
22.655000000000001
10
292.84399999999999
20
22.655000000000001
10
292.84399999999999
20
21.655899999999999
10
278.84500000000003
20
21.655899999999999
10
278.84500000000003
20
22.655000000000001
10
278.04500000000007
20
22.655000000000001
10
278.04500000000007
20
25.755500000000001
10
278.84500000000003
20
25.755500000000001
10
278.84500000000003
20
31.555700000000005
10
278.04500000000007
20
31.555700000000005
10
278.04500000000007
20
34.654899999999998
10
278.84500000000003
20
34.654899999999998
10
278.84500000000003
20
35.655299999999997
10
292.84399999999999
20
35.655299999999997
0
LWPOLYLINE
5
164
100
AcDbEntity
8
0
100
AcDbPolyline
90
20
70
1
43
0.0
10
297.89499999999998
20
31.555700000000005
10
297.09500000000003
20
31.555700000000005
10
297.09500000000003
20
34.654899999999998
10
297.89499999999998
20
34.654899999999998
10
297.89499999999998
20
35.655299999999997
10
311.89400000000001
20
35.655299999999997
10
311.89400000000001
20
34.654899999999998
10
312.69499999999999
20
34.654899999999998
10
312.69499999999999
20
31.555700000000005
10
311.89400000000001
20
31.555700000000005
10
311.89400000000001
20
25.755500000000001
10
312.69499999999999
20
25.755500000000001
10
312.69499999999999
20
22.655000000000001
10
311.89400000000001
20
22.655000000000001
10
311.89400000000001
20
21.655899999999999
10
297.89499999999998
20
21.655899999999999
10
297.89499999999998
20
22.655000000000001
10
297.09500000000003
20
22.655000000000001
10
297.09500000000003
20
25.755500000000001
10
297.89499999999998
20
25.755500000000001
0
LWPOLYLINE
5
165
100
AcDbEntity
8
0
100
AcDbPolyline
90
20
70
1
43
0.0
10
257.41300000000001
20
34.654899999999998
10
257.41300000000001
20
35.655299999999997
10
271.41300000000001
20
35.655299999999997
10
271.41300000000001
20
34.654899999999998
10
272.21199999999999
20
34.654899999999998
10
272.21199999999999
20
31.555700000000005
10
271.41300000000001
20
31.555700000000005
10
271.41300000000001
20
25.755500000000001
10
272.21199999999999
20
25.755500000000001
10
272.21199999999999
20
22.655000000000001
10
271.41300000000001
20
22.655000000000001
10
271.41300000000001
20
21.655899999999999
10
257.41300000000001
20
21.655899999999999
10
257.41300000000001
20
22.655000000000001
10
256.61099999999999
20
22.655000000000001
10
256.61099999999999
20
25.755500000000001
10
257.41300000000001
20
25.755500000000001
10
257.41300000000001
20
31.555700000000005
10
256.61099999999999
20
31.555700000000005
10
256.61099999999999
20
34.654899999999998
0
LWPOLYLINE
5
166
100
AcDbEntity
8
0
100
AcDbPolyline
90
20
70
1
43
0.0
10
349.99400000000003
20
21.655899999999999
10
335.995
20
21.655899999999999
10
335.995
20
22.655000000000001
10
335.19499999999999
20
22.655000000000001
10
335.19499999999999
20
25.755500000000001
10
335.995
20
25.755500000000001
10
335.995
20
31.555700000000005
10
335.19499999999999
20
31.555700000000005
10
335.19499999999999
20
34.654899999999998
10
335.995
20
34.654899999999998
10
335.995
20
35.655299999999997
10
349.99400000000003
20
35.655299999999997
10
349.99400000000003
20
34.654899999999998
10
350.79500000000002
20
34.654899999999998
10
350.79500000000002
20
31.555700000000005
10
349.99400000000003
20
31.555700000000005
10
349.99400000000003
20
25.755500000000001
10
350.79500000000002
20
25.755500000000001
10
350.79500000000002
20
22.655000000000001
10
349.99400000000003
20
22.655000000000001
0
LWPOLYLINE
5
167
100
AcDbEntity
8
0
100
AcDbPolyline
90
20
70
1
43
0.0
10
316.94499999999999
20
34.654899999999998
10
316.94499999999999
20
35.655299999999997
10
330.94400000000002
20
35.655299999999997
10
330.94400000000002
20
34.654899999999998
10
331.745
20
34.654899999999998
10
331.745
20
31.555700000000005
10
330.94400000000002
20
31.555700000000005
10
330.94400000000002
20
25.755500000000001
10
331.745
20
25.755500000000001
10
331.745
20
22.655000000000001
10
330.94400000000002
20
22.655000000000001
10
330.94400000000002
20
21.655899999999999
10
316.94499999999999
20
21.655899999999999
10
316.94499999999999
20
22.655000000000001
10
316.14499999999998
20
22.655000000000001
10
316.14499999999998
20
25.755500000000001
10
316.94499999999999
20
25.755500000000001
10
316.94499999999999
20
31.555700000000005
10
316.14499999999998
20
31.555700000000005
10
316.14499999999998
20
34.654899999999998
0
ENDSEC
0
SECTION
2
OBJECTS
0
DICTIONARY
5
C
100
AcDbDictionary
3
ACAD_GROUP
350
D
3
ACAD_MLINESTYLE
350
17
0
DICTIONARY
5
D
100
AcDbDictionary
0
DICTIONARY
5
1A
330
C
100
AcDbDictionary
0
DICTIONARY
5
17
100
AcDbDictionary
0
ENDSEC
0
EOF
