0
SECTION
2
HEADER
9
$INSUNITS
70
4
9
$ACADVER
1
AC1014
9
$HANDSEED
5
FFFF
0
ENDSEC
0
SECTION
2
TABLES
0
TABLE
2
VPORT
5
8
100
AcDbSymbolTable
0
ENDTAB
0
TABLE
2
LTYPE
5
5
100
AcDbSymbolTable
0
LTYPE
5
14
100
AcDbSymbolTableRecord
100
AcDbLinetypeTableRecord
2
BYBLOCK
70
0
0
LTYPE
5
15
100
AcDbSymbolTableRecord
100
AcDbLinetypeTableRecord
2
BYLAYER
70
0
0
ENDTAB
0
TABLE
2
LAYER
5
2
100
AcDbSymbolTable
70
2
0
LAYER
5
50
100
AcDbSymbolTableRecord
100
AcDbLayerTableRecord
2
0
70
0
6
CONTINUOUS
0
ENDTAB
0
TABLE
2
STYLE
5
3
100
AcDbSymbolTable
70
1
0
STYLE
5
11
100
AcDbSymbolTableRecord
100
AcDbTextStyleTableRecord
2
STANDARD
70
0
0
ENDTAB
0
TABLE
2
VIEW
5
6
100
AcDbSymbolTable
70
0
0
ENDTAB
0
TABLE
2
UCS
5
7
100
AcDbSymbolTable
70
0
0
ENDTAB
0
TABLE
2
APPID
5
9
100
AcDbSymbolTable
70
2
0
APPID
5
12
100
AcDbSymbolTableRecord
100
AcDbRegAppTableRecord
2
ACAD
70
0
0
ENDTAB
0
TABLE
2
DIMSTYLE
5
A
100
AcDbSymbolTable
70
1
0
ENDTAB
0
TABLE
2
BLOCK_RECORD
5
1
100
AcDbSymbolTable
70
1
0
BLOCK_RECORD
5
1F
100
AcDbSymbolTableRecord
100
AcDbBlockTableRecord
2
*MODEL_SPACE
0
BLOCK_RECORD
5
1B
100
AcDbSymbolTableRecord
100
AcDbBlockTableRecord
2
*PAPER_SPACE
0
ENDTAB
0
ENDSEC
0
SECTION
2
BLOCKS
0
BLOCK
5
20
100
AcDbEntity
100
AcDbBlockBegin
2
*MODEL_SPACE
0
ENDBLK
5
21
100
AcDbEntity
100
AcDbBlockEnd
0
BLOCK
5
1C
100
AcDbEntity
100
AcDbBlockBegin
2
*PAPER_SPACE
0
ENDBLK
5
1D
100
AcDbEntity
100
AcDbBlockEnd
0
ENDSEC
0
SECTION
2
ENTITIES
0
LWPOLYLINE
5
100
100
AcDbEntity
8
0
100
AcDbPolyline
90
4
70
1
43
0.0
10
13.000000193715103
20
36.00000078976155
10
6.2070942221520635
20
36.00000078976155
10
6.2070942221520635
20
19.00000053644181
10
13.000000193715103
20
19.00000028312207
0
LWPOLYLINE
5
101
100
AcDbEntity
8
0
100
AcDbPolyline
90
4
70
1
43
0.0
10
36.854214553523818
20
35.999999651294729
10
29.942792668783653
20
35.999999651294729
10
29.942792668783653
20
18.999999651294722
10
36.854214553523818
20
18.999999651294722
0
LWPOLYLINE
5
102
100
AcDbEntity
8
0
100
AcDbPolyline
90
4
70
1
43
0.0
10
94.233596012458094
20
17.079926400000002
10
77.630024254997551
20
17.079926400000002
10
77.630024254997551
20
0.079926400000001008
10
94.233596012458094
20
0.079926400000001063
0
LINE
5
103
100
AcDbEntity
8
0
100
AcDbLine
10
371.57000000000005
20
0.079926400000003284
30
0
11
0.095084599999992747
21
0.079926400000000009
31
0
0
LWPOLYLINE
5
104
100
AcDbEntity
8
0
100
AcDbPolyline
90
4
70
1
43
0.0
10
117.98388895813068
20
17.079926400000002
10
110.9564810861613
20
17.079926400000002
10
110.9564810861613
20
0.079926400000001063
10
117.98388895813068
20
0.079926400000001063
0
LWPOLYLINE
5
105
100
AcDbEntity
8
0
100
AcDbPolyline
90
4
70
1
43
0.0
10
151.27645236816517
20
17.079926400000002
10
143.99746343861904
20
17.079926400000002
10
143.99746343861904
20
0.079926400000001063
10
151.27645236816517
20
0.079926400000001063
0
LINE
5
106
100
AcDbEntity
8
0
100
AcDbLine
10
184.7406497198136
20
17.079926399999508
30
0
11
184.7406497198136
21
0.079926400000001618
31
0
0
LINE
5
107
100
AcDbEntity
8
0
100
AcDbLine
10
184.7406497198136
20
0.079926400000001618
30
0
11
168.26498322716316
21
0.079926400000001119
31
0
0
LINE
5
108
100
AcDbEntity
8
0
100
AcDbLine
10
168.26498322716316
20
0.079926400000001119
30
0
11
168.26498322716319
21
17.079926399999749
31
0
0
LINE
5
109
100
AcDbEntity
8
0
100
AcDbLine
10
166.63800000000003
20
16.605400000000003
30
0
11
152.63800000000001
21
16.605400000000003
31
0
0
LWPOLYLINE
5
110
100
AcDbEntity
8
0
100
AcDbPolyline
90
4
70
1
43
0.0
10
269.27311620740204
20
76.280100000000004
10
259.79060168693525
20
76.280100000000004
10
259.79060168693525
20
57.280100000000004
10
269.27311620740204
20
57.280100000000004
0
LINE
5
111
100
AcDbEntity
8
0
100
AcDbLine
10
0.095084600000000019
20
76.280100000000004
30
0
11
371.57000000000005
21
76.280100000000004
31
0
0
LWPOLYLINE
5
112
100
AcDbEntity
8
0
100
AcDbPolyline
90
4
70
1
43
0.0
10
292.87474722821395
20
76.280100000000004
10
282.80055886992784
20
76.280100000000004
10
282.80055886992784
20
57.280100000000004
10
292.87474722821395
20
57.280100000000004
0
LINE
5
113
100
AcDbEntity
8
0
100
AcDbLine
10
168.26498322716319
20
17.079926399999749
30
0
11
184.7406497198136
21
17.079926399999508
31
0
0
LINE
5
114
100
AcDbEntity
8
0
100
AcDbLine
10
282.80055886992784
20
60.236297055651526
30
0
11
292.87474722821395
21
60.236297055651519
31
0
0
LINE
5
115
100
AcDbEntity
8
0
100
AcDbLine
10
259.79060168693525
20
59.97894168907149
30
0
11
269.27311620740204
21
59.97894168907149
31
0
0
LINE
5
116
100
AcDbEntity
8
0
100
AcDbLine
10
259.79060168693525
20
73.575224244020646
30
0
11
269.27311620740204
21
73.575224244020646
31
0
0
LINE
5
117
100
AcDbEntity
8
0
100
AcDbLine
10
282.80055886992784
20
27.955896963955805
30
0
11
292.87474722821395
21
27.955896963955805
31
0
0
LINE
5
118
100
AcDbEntity
8
0
100
AcDbLine
10
282.80055886992784
20
73.525189658161509
30
0
11
292.87474722821395
21
73.525189658161509
31
0
0
LINE
5
119
100
AcDbEntity
8
0
100
AcDbLine
10
168.26498322716319
20
14.85013665143299
30
0
11
174.71051270633484
21
14.85013665143339
31
0
0
LINE
5
120
100
AcDbEntity
8
0
100
AcDbLine
10
174.71051270633484
20
14.85013665143339
30
0
11
174.71051270633484
21
11.585126139763329
31
0
0
LINE
5
121
100
AcDbEntity
8
0
100
AcDbLine
10
174.71051270633484
20
11.585126139763329
30
0
11
178.00000265240669
21
11.585126139763329
31
0
0
LINE
5
122
100
AcDbEntity
8
0
100
AcDbLine
10
178.00000265240669
20
11.585126139763329
30
0
11
178.00000265240669
21
14.515778950946977
31
0
0
LINE
5
123
100
AcDbEntity
8
0
100
AcDbLine
10
178.00000265240669
20
14.515778950946977
30
0
11
184.7406497198136
21
14.515778950946977
31
0
0
LINE
5
124
100
AcDbEntity
8
0
100
AcDbLine
10
168.26498322716319
20
3.3983854097866373
30
0
11
174.40076792688131
21
3.3983854097866244
31
0
0
LINE
5
125
100
AcDbEntity
8
0
100
AcDbLine
10
174.40076792688131
20
3.3983854097866244
30
0
11
174.40076792688131
21
8.0000001192092896
31
0
0
LINE
5
126
100
AcDbEntity
8
0
100
AcDbLine
10
174.40076792688131
20
8.0000001192092896
30
0
11
178.00000265240669
21
8.0000001192092824
31
0
0
LINE
5
127
100
AcDbEntity
8
0
100
AcDbLine
10
178.00000265240669
20
8.0000001192092824
30
0
11
178.00000265240669
21
3.3983854097866306
31
0
0
LINE
5
128
100
AcDbEntity
8
0
100
AcDbLine
10
178.00000265240669
20
3.3983854097866306
30
0
11
184.7406497198136
21
3.3983854097866306
31
0
0
LINE
5
129
100
AcDbEntity
8
0
100
AcDbLine
10
151.27645236816517
20
3.3983854097866306
30
0
11
143.99746343861904
21
3.3983854097866306
31
0
0
LINE
5
130
100
AcDbEntity
8
0
100
AcDbLine
10
143.99746343861904
20
14.491367543382008
30
0
11
151.27645236816517
21
14.491367543382008
31
0
0
LINE
5
131
100
AcDbEntity
8
0
100
AcDbLine
10
117.98388895813068
20
3.0980999932480326
30
0
11
110.9564810861613
21
3.0980999932480326
31
0
0
LINE
5
132
100
AcDbEntity
8
0
100
AcDbLine
10
110.9564810861613
20
14.586515892322582
30
0
11
117.98388895813068
21
14.586515892322582
31
0
0
LINE
5
133
100
AcDbEntity
8
0
100
AcDbLine
10
94.233596012458094
20
14.586515892322582
30
0
11
87.500001303851604
21
14.586515892322582
31
0
0
LINE
5
134
100
AcDbEntity
8
0
100
AcDbLine
10
87.500001303851604
20
14.586515892322582
30
0
11
87.500001303851604
21
11.500000171363354
31
0
0
LINE
5
135
100
AcDbEntity
8
0
100
AcDbLine
10
87.500001303851604
20
11.500000171363354
30
0
11
84.00000125169754
21
11.500000171363354
31
0
0
LINE
5
136
100
AcDbEntity
8
0
100
AcDbLine
10
84.00000125169754
20
11.500000171363354
30
0
11
84.00000125169754
21
14.586515892322582
31
0
0
LINE
5
137
100
AcDbEntity
8
0
100
AcDbLine
10
84.00000125169754
20
14.586515892322582
30
0
11
77.630024254997551
21
14.586515892322582
31
0
0
LINE
5
138
100
AcDbEntity
8
0
100
AcDbLine
10
77.630024254997551
20
3.1638412532096307
30
0
11
84.00000125169754
21
3.1638412532096307
31
0
0
LINE
5
139
100
AcDbEntity
8
0
100
AcDbLine
10
84.00000125169754
20
3.1638412532096307
30
0
11
84.00000125169754
21
7.500000111758709
31
0
0
LINE
5
140
100
AcDbEntity
8
0
100
AcDbLine
10
84.00000125169754
20
7.500000111758709
30
0
11
87.500001303851604
21
7.500000111758709
31
0
0
LINE
5
141
100
AcDbEntity
8
0
100
AcDbLine
10
87.500001303851604
20
7.500000111758709
30
0
11
87.500001303851604
21
3.1638412532096307
31
0
0
LINE
5
142
100
AcDbEntity
8
0
100
AcDbLine
10
87.500001303851604
20
3.1638412532096307
30
0
11
94.233596012458094
21
3.1638412532096307
31
0
0
ENDSEC
0
SECTION
2
OBJECTS
0
DICTIONARY
5
C
100
AcDbDictionary
3
ACAD_GROUP
350
D
3
ACAD_MLINESTYLE
350
17
0
DICTIONARY
5
D
100
AcDbDictionary
0
DICTIONARY
5
1A
330
C
100
AcDbDictionary
0
DICTIONARY
5
17
100
AcDbDictionary
0
ENDSEC
0
EOF
