0
SECTION
2
HEADER
9
$INSUNITS
70
4
9
$ACADVER
1
AC1014
9
$HANDSEED
5
FFFF
0
ENDSEC
0
SECTION
2
TABLES
0
TABLE
2
VPORT
5
8
100
AcDbSymbolTable
0
ENDTAB
0
TABLE
2
LTYPE
5
5
100
AcDbSymbolTable
0
LTYPE
5
14
100
AcDbSymbolTableRecord
100
AcDbLinetypeTableRecord
2
BYBLOCK
70
0
0
LTYPE
5
15
100
AcDbSymbolTableRecord
100
AcDbLinetypeTableRecord
2
BYLAYER
70
0
0
ENDTAB
0
TABLE
2
LAYER
5
2
100
AcDbSymbolTable
70
2
0
LAYER
5
50
100
AcDbSymbolTableRecord
100
AcDbLayerTableRecord
2
0
70
0
6
CONTINUOUS
0
ENDTAB
0
TABLE
2
STYLE
5
3
100
AcDbSymbolTable
70
1
0
STYLE
5
11
100
AcDbSymbolTableRecord
100
AcDbTextStyleTableRecord
2
STANDARD
70
0
0
ENDTAB
0
TABLE
2
VIEW
5
6
100
AcDbSymbolTable
70
0
0
ENDTAB
0
TABLE
2
UCS
5
7
100
AcDbSymbolTable
70
0
0
ENDTAB
0
TABLE
2
APPID
5
9
100
AcDbSymbolTable
70
2
0
APPID
5
12
100
AcDbSymbolTableRecord
100
AcDbRegAppTableRecord
2
ACAD
70
0
0
ENDTAB
0
TABLE
2
DIMSTYLE
5
A
100
AcDbSymbolTable
70
1
0
ENDTAB
0
TABLE
2
BLOCK_RECORD
5
1
100
AcDbSymbolTable
70
1
0
BLOCK_RECORD
5
1F
100
AcDbSymbolTableRecord
100
AcDbBlockTableRecord
2
*MODEL_SPACE
0
BLOCK_RECORD
5
1B
100
AcDbSymbolTableRecord
100
AcDbBlockTableRecord
2
*PAPER_SPACE
0
ENDTAB
0
ENDSEC
0
SECTION
2
BLOCKS
0
BLOCK
5
20
100
AcDbEntity
100
AcDbBlockBegin
2
*MODEL_SPACE
0
ENDBLK
5
21
100
AcDbEntity
100
AcDbBlockEnd
0
BLOCK
5
1C
100
AcDbEntity
100
AcDbBlockBegin
2
*PAPER_SPACE
0
ENDBLK
5
1D
100
AcDbEntity
100
AcDbBlockEnd
0
ENDSEC
0
SECTION
2
ENTITIES
0
LINE
5
100
100
AcDbEntity
8
0
100
AcDbLine
10
1.0450858884601291
20
-6.773702565913412e-17
30
4.0298970653021958e-19
11
50.454914111539878
21
-8.1340773057622863e-17
31
-4.3408385870073193e-16
0
SPLINE
5
101
100
AcDbEntity
8
0
100
AcDbSpline
70
1064
71
3
72
16
73
12
74
0
42
0.000000001
43
0.0000000001
44
0.0000000001
40
3.612043020240156e-08
40
3.612043020240156e-08
40
3.612043020240156e-08
40
3.612043020240156e-08
40
0.040593227879340124
40
0.040593227879340124
40
0.080189491224603338
40
0.080189491224603338
40
0.11922217049327083
40
0.11922217049327083
40
0.14056237715703734
40
0.14056237715703734
40
0.16057705546257031
40
0.16057705546257031
40
0.16057705546257031
40
0.16057705546257031
10
50.454914111539864
20
6.0862773154646277e-14
30
1.3048550887410983e-16
10
50.590224749296802
20
4.3929235348008821e-08
30
-6.8954162238946088e-17
10
50.724726540184442
20
0.02468495205541784
30
2.4423835431097847e-13
10
50.973960431942885
20
0.12096315618589105
30
2.4422711246709419e-13
10
51.087360824797933
20
0.19073323537502151
30
-6.2204440853958679e-09
10
51.279787285075848
20
0.3682221552756248
30
-6.2204440961831353e-09
10
51.357415829445081
20
0.47370107144626611
30
-8.1195108786672537e-14
10
51.441692769095219
20
0.65602390977957348
30
-8.1195108786672537e-14
10
51.464248915283257
20
0.72350872987401382
30
-5.9579613523188886e-16
10
51.492989270967072
20
0.85805084100587936
30
-5.9579613523188876e-16
10
51.499999994315999
20
0.9243931643642449
30
1.1255186836491822e-16
10
51.499999994139571
20
0.99097682233701989
30
-9.5409791522275718e-17
0
LINE
5
102
100
AcDbEntity
8
0
100
AcDbLine
10
51.499999994139579
20
0.99097682233702011
30
-9.5409791522275545e-17
11
51.5
21
17.038406337688443
31
0
0
SPLINE
5
103
100
AcDbEntity
8
0
100
AcDbSpline
70
1064
71
3
72
16
73
12
74
0
42
0.000000001
43
0.0000000001
44
0.0000000001
40
0
40
0
40
0
40
0
40
0.039889973931150229
40
0.039889973931150229
40
0.075557709773580978
40
0.075557709773580978
40
0.11105572416625242
40
0.11105572416625242
40
0.1315324449707661
40
0.1315324449707661
40
0.15119251953731885
40
0.15119251953731885
40
0.15119251953731885
40
0.15119251953731885
10
51.500000088119634
20
17.038406357496918
30
-4.1979715190154643e-09
10
51.500000040376854
20
17.171372937267407
30
-4.1979715255129754e-09
10
51.475105886096756
20
17.303076362014032
30
-6.4944859654197721e-15
10
51.378810038909222
20
17.535432681333273
30
-6.4944859654197721e-15
10
51.313621955013538
20
17.635355689899257
30
5.2621664285973621e-09
10
51.148324039844006
20
17.804861530724779
30
5.2621664285973621e-09
10
51.050652657170147
20
17.872241703576879
30
-2.9038176051415955e-16
10
50.880068569566632
20
17.947034343581169
30
-2.9038176051415955e-16
10
50.814914311743777
20
17.967431891757037
30
-8.3360633579656652e-16
10
50.683940980418605
20
17.993682392113495
30
-8.3044372103767263e-16
10
50.618673320826552
20
17.999999999754152
30
-7.1389272965349804e-10
10
50.553232425554022
20
17.999999999754163
30
-7.1389272965349804e-10
0
LINE
5
104
100
AcDbEntity
8
0
100
AcDbLine
10
50.553232425554029
20
17.999999999754163
30
-7.1389272965349793e-10
11
0.94676757769621034
21
17.999999998850591
31
-3.338083970118773e-09
0
SPLINE
5
105
100
AcDbEntity
8
0
100
AcDbSpline
70
1064
71
3
72
16
73
12
74
0
42
0.000000001
43
0.0000000001
44
0.0000000001
40
0
40
0
40
0
40
0
40
0.019579604669402961
40
0.019579604669402961
40
0.039971061996262075
40
0.039971061996262075
40
0.075414543005507623
40
0.075414543005507623
40
0.11103215284994528
40
0.11103215284994528
40
0.1509793922043377
40
0.1509793922043377
40
0.1509793922043377
40
0.1509793922043377
10
0.94676757514085275
20
17.999999999758234
30
-7.0207440555636325e-10
10
0.88150222624284291
20
17.999999999758536
30
-7.0207440555636325e-10
10
0.81640866442962334
20
17.993716240894351
30
-8.6884433432350005e-16
10
0.68577707041051694
20
17.967607898048122
30
-8.6884433432350005e-16
10
0.620785488048331
20
17.947321616611887
30
-5.8877432867720274e-16
10
0.45029906133481712
20
17.872808641506619
30
-5.9303692948566331e-16
10
0.35255740005398961
20
17.805555846788369
30
5.1944242316261973e-09
10
0.18705995265021869
20
17.636263553460573
30
5.1944242303032493e-09
10
0.12174999441750542
20
17.536419680561618
30
-6.8630964383249419e-15
10
0.025036843691570373
20
17.303825729543682
30
-6.8630964383249419e-15
10
-3.9515650482358207e-08
20
17.171753570508873
30
-4.1458969937679946e-09
10
-8.7024962756865332e-08
20
17.038406356628848
30
-4.1458969937679946e-09
0
LINE
5
106
100
AcDbEntity
8
0
100
AcDbLine
10
-8.7024962742307985e-08
20
17.038406356628848
30
-4.1458969937679938e-09
11
0
21
0.99097682233701301
31
0
0
SPLINE
5
107
100
AcDbEntity
8
0
100
AcDbSpline
70
1064
71
3
72
16
73
12
74
0
42
0.000000001
43
0.0000000001
44
0.0000000001
40
9.2493457434983484e-10
40
9.2493457434983484e-10
40
9.2493457434983484e-10
40
9.2493457434983484e-10
40
0.019941538972079235
40
0.019941538972079235
40
0.041202092507017972
40
0.041202092507017972
40
0.080150365683690217
40
0.080150365683690217
40
0.1196665974325762
40
0.1196665974325762
40
0.16025972803044392
40
0.16025972803044392
40
0.16025972803044392
40
0.16025972803044392
10
6.1918996359541634e-09
20
0.99097682233701456
30
-5.6378513183733517e-16
10
6.0179414360567004e-09
20
0.92450502886880714
30
-2.0479064840335212e-19
10
0.0069871928228307139
20
0.85827335486763445
30
-4.2856704745969288e-16
10
0.035630800542875693
20
0.72395263626120376
30
-4.2777907519794432e-16
10
0.058110199310271692
20
0.65657472552430873
30
-7.9262306827658154e-14
10
0.14219091356439234
20
0.47432539596998341
30
-7.9266660389441388e-14
10
0.21972489871719847
20
0.36880806831530194
30
-6.2054134085028851e-09
10
0.41199300363489505
20
0.19119211906933609
30
-6.2054133977165003e-09
10
0.52533554208128819
20
0.12134020498788298
30
2.4391894581805536e-13
10
0.77474213182693086
20
0.024782896039595399
30
2.4391894581805541e-13
10
0.909507076977766
20
4.4372973943469367e-08
30
8.3310250727008591e-16
10
1.0450858884601308
20
5.9648466721462512e-14
30
1.8234978390402452e-17
0
LINE
5
108
100
AcDbEntity
8
0
100
AcDbLine
10
49.607356603210981
20
1.3005724337957434
30
0
11
1.8926433967890244
21
1.3005724337957434
31
0
0
SPLINE
5
109
100
AcDbEntity
8
0
100
AcDbSpline
70
1064
71
3
72
16
73
12
74
0
42
0.000000001
43
0.0000000001
44
0.0000000001
40
-0.08003742566629235
40
-0.08003742566629235
40
-0.08003742566629235
40
-0.08003742566629235
40
-0.059823027903077378
40
-0.059823027903077378
40
-0.040067137593948365
40
-0.040067137593948365
40
-0.020598800835390979
40
-0.020598800835390979
40
-0.0099701624975649279
40
-0.0099701624975649279
40
-1.7515293012630028e-10
40
-1.7515293012630028e-10
40
-1.7515293012630028e-10
40
-1.7515293012630028e-10
10
1.8926433967890288
20
1.3005724337957603
30
-1.3877789173456658e-16
10
1.8251306367404303
20
1.3005724491381545
30
1.0411746750084749e-16
10
1.7580237948995223
20
1.3128830856001008
30
2.7432542231844844e-14
10
1.633538854982304
20
1.3609369077142586
30
2.7432542231844844e-14
10
1.5768470309878293
20
1.3958125426312744
30
1.7464337689784966e-09
10
1.4806642353203068
20
1.4845260325820475
30
1.7464337689784966e-09
10
1.4418661613604393
20
1.5372380580414777
30
-8.1516332199737275e-15
10
1.3997465404423557
20
1.6282987027137827
30
-8.1516332199737275e-15
10
1.3884725061800818
20
1.6619707175948482
30
-1.8129718854434396e-16
10
1.3740732618533988
20
1.7291068672476109
30
-1.8169141869653004e-16
10
1.3705378462586291
20
1.7622165240445773
30
1.733699066744446e-16
10
1.3704926910160871
20
1.7954503677719367
30
-6.9388939138962844e-17
0
SPLINE
5
110
100
AcDbEntity
8
0
100
AcDbSpline
70
1064
71
3
72
14
73
10
74
0
42
0.000000001
43
0.0000000001
44
0.0000000001
40
0.00048098605191439046
40
0.00048098605191439046
40
0.00048098605191439046
40
0.00048098605191439046
40
0.0050706874575411351
40
0.0050706874575411351
40
0.0050706874575411351
40
0.010197608887475063
40
0.010197608887475063
40
0.010197608887475063
40
0.014829652065450586
40
0.014829652065450586
40
0.014829652065450586
40
0.014829652065450586
10
1.3544155285406871
20
16.144107263014241
30
6.3285121934542055e-10
10
1.3558235971557395
20
14.614207442414918
30
1.4771953655131191e-08
10
1.3573147033826281
20
13.084307695306466
30
3.6911865519473934e-07
10
1.3589013983302642
20
11.554408050155619
30
5.8273924413362876e-07
10
1.3606738143571175
20
9.8454351599461933
30
8.213639124206023e-07
10
1.3625652803856789
20
8.1364623877797246
30
8.5884690167688735e-07
10
1.3646003585732389
20
6.4274897914446907
30
6.3762770215278902e-07
10
1.3664389999809843
20
4.8834764952817284
30
4.3776177906277252e-07
10
1.3683948724524351
20
3.339463332935062
30
2.135139686074656e-08
10
1.3704926997384264
20
1.7954503677837863
30
4.8972220916888073e-09
0
SPLINE
5
111
100
AcDbEntity
8
0
100
AcDbSpline
70
1064
71
3
72
16
73
12
74
0
42
0.000000001
43
0.0000000001
44
0.0000000001
40
-0.075514037516902777
40
-0.075514037516902777
40
-0.075514037516902777
40
-0.075514037516902777
40
-0.055573380806640309
40
-0.055573380806640309
40
-0.03777582261177366
40
-0.03777582261177366
40
-0.020060407026044849
40
-0.020060407026044849
40
-0.0098272184994163455
40
-0.0098272184994163455
40
-0
40
-0
40
-0
40
-0
10
1.3544154878751646
20
16.144107273036955
30
-1.2334342748554494e-09
10
1.3543542430433
20
16.210669988031956
30
-1.2334342748554494e-09
10
1.3667751229941425
20
16.276607929504678
30
-7.6360664016601313e-16
10
1.4149164499656104
20
16.392833089329134
30
-7.6360664016601313e-16
10
1.4474818932386115
20
16.442765766687085
30
2.7325617092101427e-10
10
1.5300732761901727
20
16.527482024670817
30
2.7325617092101427e-10
10
1.5788807708852217
20
16.561160198466609
30
-8.7123266252663419e-17
10
1.6641674273863913
20
16.598574981425681
30
-8.7123266252663419e-17
10
1.6967732020066988
20
16.608786749200839
30
-1.0008104047468689e-16
10
1.7623254880753851
20
16.621930199903627
30
-1.0324387577562368e-16
10
1.7949964344123923
20
16.625093112481302
30
-5.7389741049684861e-09
10
1.8277538294104467
20
16.625093112481235
30
-5.7389741049684861e-09
0
LINE
5
112
100
AcDbEntity
8
0
100
AcDbLine
10
1.8277538294104465
20
16.625093112481235
30
-5.7389741049684853e-09
11
49.672246168435933
21
16.625093112969665
31
-2.9015555662557297e-09
0
SPLINE
5
113
100
AcDbEntity
8
0
100
AcDbSpline
70
1064
71
3
72
16
73
12
74
0
42
0.000000001
43
0.0000000001
44
0.0000000001
40
-0.075621719200202636
40
-0.075621719200202636
40
-0.075621719200202636
40
-0.075621719200202636
40
-0.065806970328275288
40
-0.065806970328275288
40
-0.055587488564216282
40
-0.055587488564216282
40
-0.03784902616685526
40
-0.03784902616685526
40
-0.020025994318294878
40
-0.020025994318294878
40
-0
40
-0
40
-0
40
-0
10
49.672246170341708
20
16.625093112503542
30
-5.6741900240908638e-09
10
49.704915569144113
20
16.625093112503684
30
-5.6741900240908638e-09
10
49.737499243507372
20
16.621947170176302
30
-2.3186289601575111e-16
10
49.802880276467285
20
16.608875000024696
30
-2.3028561599984396e-16
10
49.835404555515474
20
16.598719013892463
30
5.8071151874176246e-17
10
49.920642440010219
20
16.561444329233673
30
5.8071151874176246e-17
10
49.969485257768397
20
16.527829873237799
30
2.9129848685959258e-10
10
50.052176720203285
20
16.44322041043565
30
2.9129848619870443e-10
10
50.084803240674944
20
16.393327302969944
30
-8.4110102341670845e-16
10
50.133153649602527
20
16.276983140835188
30
-8.4110102341670845e-16
10
50.145645932031158
20
16.21086055908432
30
-1.2222401010046131e-09
10
50.145584511774608
20
16.144107272946641
30
-1.2222401042649711e-09
0
SPLINE
5
114
100
AcDbEntity
8
0
100
AcDbSpline
70
1064
71
3
72
14
73
10
74
0
42
0.000000001
43
0.0000000001
44
0.0000000001
40
0.00048098605191514659
40
0.00048098605191514659
40
0.00048098605191514659
40
0.00048098605191514659
40
0.0050685653502996241
40
0.0050685653502996241
40
0.0050685653502996241
40
0.010196547833831098
40
0.010196547833831098
40
0.010196547833831098
40
0.014829652065481263
40
0.014829652065481263
40
0.014829652065481263
40
0.014829652065481263
10
50.145584471459301
20
16.144107263014245
30
6.3285119230812887e-10
10
50.144177053882814
20
14.61491481119609
30
1.4765414217726866e-08
10
50.142686675128793
20
13.085722432802935
30
3.688181360224819e-07
10
50.141100802494407
20
11.556530156262568
30
5.8244286281136648e-07
10
50.139328118784476
20
9.8472035816108594
30
8.2123194642816734e-07
10
50.137436344543474
20
8.1378771250362956
30
8.5895073993304235e-07
10
50.135400904930883
20
6.4285508443540262
30
6.3776503213090752e-07
10
50.133561896331955
20
4.8841838638244903
30
4.3792495027792289e-07
10
50.131605608093025
20
3.3398170171611499
30
2.1355161648783827e-08
10
50.129507300261579
20
1.7954503677837796
30
4.8972258019641668e-09
0
SPLINE
5
115
100
AcDbEntity
8
0
100
AcDbSpline
70
1064
71
3
72
16
73
12
74
0
42
0.000000001
43
0.0000000001
44
0.0000000001
40
-0.080193844512433776
40
-0.080193844512433776
40
-0.080193844512433776
40
-0.080193844512433776
40
-0.070221060594570339
40
-0.070221060594570339
40
-0.059590465763053796
40
-0.059590465763053796
40
-0.040087693211682748
40
-0.040087693211682748
40
-0.020294060149541819
40
-0.020294060149541819
40
-1.2714209240981889e-08
40
-1.2714209240981889e-08
40
-1.2714209240981889e-08
40
-1.2714209240981889e-08
10
50.129507308783957
20
1.7954503677722009
30
1.1275702610624179e-16
10
50.129462229685387
20
1.7622725648251392
30
1.2153289867347112e-16
10
50.125938650704427
20
1.72921832920375
30
1.1130047544778683e-16
10
50.11158790237171
20
1.6621930554794007
30
1.1208765638668222e-16
10
50.100352291382364
20
1.6285745871725374
30
-7.8566691639204629e-15
10
50.058330810853981
20
1.5375506448462639
30
-7.8566691639204629e-15
10
50.019579959692358
20
1.4848192838809635
30
1.7935765901672231e-09
10
49.923476208634099
20
1.3960420572777641
30
1.7935765901672231e-09
10
49.866813230573655
20
1.3611254016489724
30
2.7609465568747947e-14
10
49.742241811607144
20
1.3129320262883502
30
2.7615087296715127e-14
10
49.675003427483659
20
1.3005724492820594
30
3.2026148644352409e-18
10
49.607356603210974
20
1.3005724337957605
30
6.9388945917714786e-17
0
LINE
5
116
100
AcDbEntity
8
0
100
AcDbLine
10
1.0450858884601291
20
-6.773702565913412e-17
30
0
11
50.454914111539878
21
-8.1340773057622863e-17
31
0
0
SPLINE
5
117
100
AcDbEntity
8
0
100
AcDbSpline
70
1064
71
3
72
16
73
12
74
0
42
0.000000001
43
0.0000000001
44
0.0000000001
40
3.612043020240156e-08
40
3.612043020240156e-08
40
3.612043020240156e-08
40
3.612043020240156e-08
40
0.040593227879340124
40
0.040593227879340124
40
0.080189491224603338
40
0.080189491224603338
40
0.11922217049327083
40
0.11922217049327083
40
0.14056237715703734
40
0.14056237715703734
40
0.16057705546257031
40
0.16057705546257031
40
0.16057705546257031
40
0.16057705546257031
10
50.454914111539864
20
6.0862773154646277e-14
30
0
10
50.590224749296802
20
4.3929235348008821e-08
30
0
10
50.724726540184442
20
0.02468495205541784
30
0
10
50.973960431942885
20
0.12096315618589105
30
0
10
51.087360824797933
20
0.19073323537502151
30
0
10
51.279787285075848
20
0.3682221552756248
30
0
10
51.357415829445081
20
0.47370107144626611
30
0
10
51.441692769095219
20
0.65602390977957348
30
0
10
51.464248915283257
20
0.72350872987401382
30
0
10
51.492989270967072
20
0.85805084100587936
30
0
10
51.499999994315999
20
0.9243931643642449
30
0
10
51.499999994139571
20
0.99097682233701989
30
0
0
LINE
5
118
100
AcDbEntity
8
0
100
AcDbLine
10
51.499999994139579
20
0.99097682233702011
30
0
11
51.5
21
17.038406337688443
31
0
0
SPLINE
5
119
100
AcDbEntity
8
0
100
AcDbSpline
70
1064
71
3
72
16
73
12
74
0
42
0.000000001
43
0.0000000001
44
0.0000000001
40
0
40
0
40
0
40
0
40
0.039889973931150229
40
0.039889973931150229
40
0.075557709773580978
40
0.075557709773580978
40
0.11105572416625242
40
0.11105572416625242
40
0.1315324449707661
40
0.1315324449707661
40
0.15119251953731885
40
0.15119251953731885
40
0.15119251953731885
40
0.15119251953731885
10
51.500000088119634
20
17.038406357496918
30
0
10
51.500000040376854
20
17.171372937267407
30
0
10
51.475105886096756
20
17.303076362014032
30
0
10
51.378810038909222
20
17.535432681333273
30
0
10
51.313621955013538
20
17.635355689899257
30
0
10
51.148324039844006
20
17.804861530724779
30
0
10
51.050652657170147
20
17.872241703576879
30
0
10
50.880068569566632
20
17.947034343581169
30
0
10
50.814914311743777
20
17.967431891757037
30
0
10
50.683940980418605
20
17.993682392113495
30
0
10
50.618673320826552
20
17.999999999754152
30
0
10
50.553232425554022
20
17.999999999754163
30
0
0
LINE
5
120
100
AcDbEntity
8
0
100
AcDbLine
10
50.553232425554029
20
17.999999999754163
30
0
11
0.94676757769621034
21
17.999999998850591
31
0
0
SPLINE
5
121
100
AcDbEntity
8
0
100
AcDbSpline
70
1064
71
3
72
16
73
12
74
0
42
0.000000001
43
0.0000000001
44
0.0000000001
40
0
40
0
40
0
40
0
40
0.019579604669402961
40
0.019579604669402961
40
0.039971061996262075
40
0.039971061996262075
40
0.075414543005507623
40
0.075414543005507623
40
0.11103215284994528
40
0.11103215284994528
40
0.1509793922043377
40
0.1509793922043377
40
0.1509793922043377
40
0.1509793922043377
10
0.94676757514085275
20
17.999999999758234
30
0
10
0.88150222624284291
20
17.999999999758536
30
0
10
0.81640866442962334
20
17.993716240894351
30
0
10
0.68577707041051694
20
17.967607898048122
30
0
10
0.620785488048331
20
17.947321616611887
30
0
10
0.45029906133481712
20
17.872808641506619
30
0
10
0.35255740005398961
20
17.805555846788369
30
0
10
0.18705995265021869
20
17.636263553460573
30
0
10
0.12174999441750542
20
17.536419680561618
30
0
10
0.025036843691570373
20
17.303825729543682
30
0
10
-3.9515650482358207e-08
20
17.171753570508873
30
0
10
-8.7024962756865332e-08
20
17.038406356628848
30
0
0
LINE
5
122
100
AcDbEntity
8
0
100
AcDbLine
10
-8.7024962742307985e-08
20
17.038406356628848
30
0
11
0
21
0.99097682233701301
31
0
0
SPLINE
5
123
100
AcDbEntity
8
0
100
AcDbSpline
70
1064
71
3
72
16
73
12
74
0
42
0.000000001
43
0.0000000001
44
0.0000000001
40
9.2493457434983484e-10
40
9.2493457434983484e-10
40
9.2493457434983484e-10
40
9.2493457434983484e-10
40
0.019941538972079235
40
0.019941538972079235
40
0.041202092507017972
40
0.041202092507017972
40
0.080150365683690217
40
0.080150365683690217
40
0.1196665974325762
40
0.1196665974325762
40
0.16025972803044392
40
0.16025972803044392
40
0.16025972803044392
40
0.16025972803044392
10
6.1918996359541634e-09
20
0.99097682233701456
30
0
10
6.0179414360567004e-09
20
0.92450502886880714
30
0
10
0.0069871928228307139
20
0.85827335486763445
30
0
10
0.035630800542875693
20
0.72395263626120376
30
0
10
0.058110199310271692
20
0.65657472552430873
30
0
10
0.14219091356439234
20
0.47432539596998341
30
0
10
0.21972489871719847
20
0.36880806831530194
30
0
10
0.41199300363489505
20
0.19119211906933609
30
0
10
0.52533554208128819
20
0.12134020498788298
30
0
10
0.77474213182693086
20
0.024782896039595399
30
0
10
0.909507076977766
20
4.4372973943469367e-08
30
0
10
1.0450858884601308
20
5.9648466721462512e-14
30
0
0
LINE
5
124
100
AcDbEntity
8
0
100
AcDbLine
10
49.607356603210981
20
1.3005724337957434
30
0
11
1.8926433967890244
21
1.3005724337957434
31
0
0
SPLINE
5
125
100
AcDbEntity
8
0
100
AcDbSpline
70
1064
71
3
72
16
73
12
74
0
42
0.000000001
43
0.0000000001
44
0.0000000001
40
-0.08003742566629235
40
-0.08003742566629235
40
-0.08003742566629235
40
-0.08003742566629235
40
-0.059823027903077378
40
-0.059823027903077378
40
-0.040067137593948365
40
-0.040067137593948365
40
-0.020598800835390979
40
-0.020598800835390979
40
-0.0099701624975649279
40
-0.0099701624975649279
40
-1.7515293012630028e-10
40
-1.7515293012630028e-10
40
-1.7515293012630028e-10
40
-1.7515293012630028e-10
10
1.8926433967890288
20
1.3005724337957603
30
0
10
1.8251306367404303
20
1.3005724491381545
30
0
10
1.7580237948995223
20
1.3128830856001008
30
0
10
1.633538854982304
20
1.3609369077142586
30
0
10
1.5768470309878293
20
1.3958125426312744
30
0
10
1.4806642353203068
20
1.4845260325820475
30
0
10
1.4418661613604393
20
1.5372380580414777
30
0
10
1.3997465404423557
20
1.6282987027137827
30
0
10
1.3884725061800818
20
1.6619707175948482
30
0
10
1.3740732618533988
20
1.7291068672476109
30
0
10
1.3705378462586291
20
1.7622165240445773
30
0
10
1.3704926910160871
20
1.7954503677719367
30
0
0
SPLINE
5
126
100
AcDbEntity
8
0
100
AcDbSpline
70
1064
71
3
72
14
73
10
74
0
42
0.000000001
43
0.0000000001
44
0.0000000001
40
0.00048098605191439046
40
0.00048098605191439046
40
0.00048098605191439046
40
0.00048098605191439046
40
0.0050706874575411351
40
0.0050706874575411351
40
0.0050706874575411351
40
0.010197608887475063
40
0.010197608887475063
40
0.010197608887475063
40
0.014829652065450586
40
0.014829652065450586
40
0.014829652065450586
40
0.014829652065450586
10
1.3544155285406871
20
16.144107263014241
30
0
10
1.3558235971557395
20
14.614207442414918
30
0
10
1.3573147033826281
20
13.084307695306466
30
0
10
1.3589013983302642
20
11.554408050155619
30
0
10
1.3606738143571175
20
9.8454351599461933
30
0
10
1.3625652803856789
20
8.1364623877797246
30
0
10
1.3646003585732389
20
6.4274897914446907
30
0
10
1.3664389999809843
20
4.8834764952817284
30
0
10
1.3683948724524351
20
3.339463332935062
30
0
10
1.3704926997384264
20
1.7954503677837863
30
0
0
SPLINE
5
127
100
AcDbEntity
8
0
100
AcDbSpline
70
1064
71
3
72
16
73
12
74
0
42
0.000000001
43
0.0000000001
44
0.0000000001
40
-0.075514037516902777
40
-0.075514037516902777
40
-0.075514037516902777
40
-0.075514037516902777
40
-0.055573380806640309
40
-0.055573380806640309
40
-0.03777582261177366
40
-0.03777582261177366
40
-0.020060407026044849
40
-0.020060407026044849
40
-0.0098272184994163455
40
-0.0098272184994163455
40
0
40
0
40
0
40
0
10
1.3544154878751646
20
16.144107273036955
30
0
10
1.3543542430433
20
16.210669988031956
30
0
10
1.3667751229941425
20
16.276607929504678
30
0
10
1.4149164499656104
20
16.392833089329134
30
0
10
1.4474818932386115
20
16.442765766687085
30
0
10
1.5300732761901727
20
16.527482024670817
30
0
10
1.5788807708852217
20
16.561160198466609
30
0
10
1.6641674273863913
20
16.598574981425681
30
0
10
1.6967732020066988
20
16.608786749200839
30
0
10
1.7623254880753851
20
16.621930199903627
30
0
10
1.7949964344123923
20
16.625093112481302
30
0
10
1.8277538294104467
20
16.625093112481235
30
0
0
LINE
5
128
100
AcDbEntity
8
0
100
AcDbLine
10
1.8277538294104465
20
16.625093112481235
30
0
11
49.672246168435933
21
16.625093112969665
31
0
0
SPLINE
5
129
100
AcDbEntity
8
0
100
AcDbSpline
70
1064
71
3
72
16
73
12
74
0
42
0.000000001
43
0.0000000001
44
0.0000000001
40
-0.075621719200202636
40
-0.075621719200202636
40
-0.075621719200202636
40
-0.075621719200202636
40
-0.065806970328275288
40
-0.065806970328275288
40
-0.055587488564216282
40
-0.055587488564216282
40
-0.03784902616685526
40
-0.03784902616685526
40
-0.020025994318294878
40
-0.020025994318294878
40
0
40
0
40
0
40
0
10
49.672246170341708
20
16.625093112503542
30
0
10
49.704915569144113
20
16.625093112503684
30
0
10
49.737499243507372
20
16.621947170176302
30
0
10
49.802880276467285
20
16.608875000024696
30
0
10
49.835404555515474
20
16.598719013892463
30
0
10
49.920642440010219
20
16.561444329233673
30
0
10
49.969485257768397
20
16.527829873237799
30
0
10
50.052176720203285
20
16.44322041043565
30
0
10
50.084803240674944
20
16.393327302969944
30
0
10
50.133153649602527
20
16.276983140835188
30
0
10
50.145645932031158
20
16.21086055908432
30
0
10
50.145584511774608
20
16.144107272946641
30
0
0
SPLINE
5
130
100
AcDbEntity
8
0
100
AcDbSpline
70
1064
71
3
72
14
73
10
74
0
42
0.000000001
43
0.0000000001
44
0.0000000001
40
0.00048098605191514659
40
0.00048098605191514659
40
0.00048098605191514659
40
0.00048098605191514659
40
0.0050685653502996241
40
0.0050685653502996241
40
0.0050685653502996241
40
0.010196547833831098
40
0.010196547833831098
40
0.010196547833831098
40
0.014829652065481263
40
0.014829652065481263
40
0.014829652065481263
40
0.014829652065481263
10
50.145584471459301
20
16.144107263014245
30
0
10
50.144177053882814
20
14.61491481119609
30
0
10
50.142686675128793
20
13.085722432802935
30
0
10
50.141100802494407
20
11.556530156262568
30
0
10
50.139328118784476
20
9.8472035816108594
30
0
10
50.137436344543474
20
8.1378771250362956
30
0
10
50.135400904930883
20
6.4285508443540262
30
0
10
50.133561896331955
20
4.8841838638244903
30
0
10
50.131605608093025
20
3.3398170171611499
30
0
10
50.129507300261579
20
1.7954503677837796
30
0
0
SPLINE
5
131
100
AcDbEntity
8
0
100
AcDbSpline
70
1064
71
3
72
16
73
12
74
0
42
0.000000001
43
0.0000000001
44
0.0000000001
40
-0.080193844512433776
40
-0.080193844512433776
40
-0.080193844512433776
40
-0.080193844512433776
40
-0.070221060594570339
40
-0.070221060594570339
40
-0.059590465763053796
40
-0.059590465763053796
40
-0.040087693211682748
40
-0.040087693211682748
40
-0.020294060149541819
40
-0.020294060149541819
40
-1.2714209240981889e-08
40
-1.2714209240981889e-08
40
-1.2714209240981889e-08
40
-1.2714209240981889e-08
10
50.129507308783957
20
1.7954503677722009
30
0
10
50.129462229685387
20
1.7622725648251392
30
0
10
50.125938650704427
20
1.72921832920375
30
0
10
50.11158790237171
20
1.6621930554794007
30
0
10
50.100352291382364
20
1.6285745871725374
30
0
10
50.058330810853981
20
1.5375506448462639
30
0
10
50.019579959692358
20
1.4848192838809635
30
0
10
49.923476208634099
20
1.3960420572777641
30
0
10
49.866813230573655
20
1.3611254016489724
30
0
10
49.742241811607144
20
1.3129320262883502
30
0
10
49.675003427483659
20
1.3005724492820594
30
0
10
49.607356603210974
20
1.3005724337957605
30
0
0
CIRCLE
5
132
100
AcDbEntity
8
0
100
AcDbCircle
10
13.874999999999995
20
8.9628327741265164
30
0
40
2.7100000000000009
0
LINE
5
133
100
AcDbEntity
8
0
100
AcDbLine
10
14.474999999999996
20
9.562832774126516
30
0
11
16.374999999999986
21
9.562832774126516
31
0
0
LINE
5
134
100
AcDbEntity
8
0
100
AcDbLine
10
16.374999999999986
20
9.562832774126516
30
0
11
16.374999999999986
21
8.3628327741265167
31
0
0
LINE
5
135
100
AcDbEntity
8
0
100
AcDbLine
10
16.374999999999986
20
8.3628327741265167
30
0
11
14.474999999999996
21
8.3628327741265167
31
0
0
LINE
5
136
100
AcDbEntity
8
0
100
AcDbLine
10
14.474999999999996
20
8.3628327741265167
30
0
11
14.474999999999996
21
6.4628327741265226
31
0
0
LINE
5
137
100
AcDbEntity
8
0
100
AcDbLine
10
14.474999999999996
20
6.4628327741265226
30
0
11
13.274999999999997
21
6.4628327741265226
31
0
0
LINE
5
138
100
AcDbEntity
8
0
100
AcDbLine
10
13.274999999999997
20
6.4628327741265226
30
0
11
13.274999999999997
21
8.3628327741265167
31
0
0
LINE
5
139
100
AcDbEntity
8
0
100
AcDbLine
10
13.274999999999997
20
8.3628327741265167
30
0
11
11.375
21
8.3628327741265167
31
0
0
LINE
5
140
100
AcDbEntity
8
0
100
AcDbLine
10
11.375
20
8.3628327741265167
30
0
11
11.375
21
9.562832774126516
31
0
0
LINE
5
141
100
AcDbEntity
8
0
100
AcDbLine
10
11.375
20
9.562832774126516
30
0
11
13.274999999999997
21
9.562832774126516
31
0
0
LINE
5
142
100
AcDbEntity
8
0
100
AcDbLine
10
13.274999999999997
20
9.562832774126516
30
0
11
13.274999999999997
21
11.462832774126513
31
0
0
LINE
5
143
100
AcDbEntity
8
0
100
AcDbLine
10
13.274999999999997
20
11.462832774126513
30
0
11
14.474999999999996
21
11.462832774126513
31
0
0
LINE
5
144
100
AcDbEntity
8
0
100
AcDbLine
10
14.474999999999996
20
11.462832774126513
30
0
11
14.474999999999996
21
9.562832774126516
31
0
0
ELLIPSE
5
145
100
AcDbEntity
8
0
100
AcDbEllipse
10
25.744466380420512
20
10.96389549291221
30
0
11
386.69938485255398
21
3.2619489319302546e-05
31
0.0
40
2.7468864209750109e-06
41
4.6801374981373911
42
4.683242147935843
0
LINE
5
146
100
AcDbEntity
8
0
100
AcDbLine
10
13.274999999986051
20
10.962832774168568
30
0
11
13.274999999999997
21
9.562832774126516
31
0
0
LINE
5
147
100
AcDbEntity
8
0
100
AcDbLine
10
13.274999999999997
20
9.562832774126516
30
0
11
11.875000000000004
21
9.5628327741265196
31
0
0
LINE
5
148
100
AcDbEntity
8
0
100
AcDbLine
10
11.875000000000004
20
9.5628327741265196
30
0
11
11.874999999999993
21
8.3628327741265167
31
0
0
LINE
5
149
100
AcDbEntity
8
0
100
AcDbLine
10
13.274999999999997
20
8.3628327741265167
30
0
11
13.274999999999997
21
6.9628327741265146
31
0
0
ELLIPSE
5
150
100
AcDbEntity
8
0
100
AcDbEllipse
10
25.741638266509455
20
6.9634297206584126
30
0
11
-381.65218815929853
21
-1.8560778537890743e-05
31
0.0
40
1.5633569448432764e-06
41
1.5381255975520409
42
1.5412713412611763
0
LINE
5
151
100
AcDbEntity
8
0
100
AcDbLine
10
14.474999999985421
20
6.9628327741745855
30
0
11
14.474999999999996
21
8.3628327741265167
31
0
0
LINE
5
152
100
AcDbEntity
8
0
100
AcDbLine
10
15.875000000000002
20
8.3628327741265167
30
0
11
15.874999999999995
21
9.562832774126516
31
0
0
LINE
5
153
100
AcDbEntity
8
0
100
AcDbLine
10
14.474999999999996
20
9.562832774126516
30
0
11
14.474999999987277
21
10.96283277416858
31
0
0
ELLIPSE
5
154
100
AcDbEntity
8
0
100
AcDbEllipse
10
25.750000000041346
20
10.963828166214789
30
0
11
386.97049920894466
21
7.1604012967143084e-13
31
0.0
40
2.5722716492746359e-06
41
4.7108384739722506
42
4.7139394867969155
0
LINE
5
155
100
AcDbEntity
8
0
100
AcDbLine
10
25.149999999999466
20
10.962832774167063
30
0
11
25.150000000000002
21
9.562832774126516
31
0
0
LINE
5
156
100
AcDbEntity
8
0
100
AcDbLine
10
25.150000000000002
20
9.562832774126516
30
0
11
23.749999999999986
21
9.5628327741265124
31
0
0
LINE
5
157
100
AcDbEntity
8
0
100
AcDbLine
10
23.749999999999986
20
9.5628327741265124
30
0
11
23.749999999999996
21
8.3628327741265167
31
0
0
LINE
5
158
100
AcDbEntity
8
0
100
AcDbLine
10
25.150000000000002
20
8.3628327741265167
30
0
11
25.149999999999999
21
6.9628327741265146
31
0
0
ELLIPSE
5
159
100
AcDbEntity
8
0
100
AcDbEllipse
10
25.7499999999898
20
6.9633917324490504
30
0
11
-382.05614786032061
21
-4.4866276424876231e-19
31
0.0
40
1.4630283235392656e-06
41
1.5692258764821245
42
1.5723667772378545
0
LINE
5
160
100
AcDbEntity
8
0
100
AcDbLine
10
26.350000000000531
20
6.9628327741728322
30
0
11
26.349999999999998
21
8.3628327741265167
31
0
0
LINE
5
161
100
AcDbEntity
8
0
100
AcDbLine
10
27.75
20
8.3628327741265167
30
0
11
27.75
21
9.5628327741265178
31
0
0
LINE
5
162
100
AcDbEntity
8
0
100
AcDbLine
10
26.349999999999994
20
9.5628327741265196
30
0
11
26.350000000000598
21
10.962832774167065
31
0
0
CIRCLE
5
163
100
AcDbEntity
8
0
100
AcDbCircle
10
25.749999999999996
20
8.9628327741265164
30
0
40
2.7100000000000009
0
LINE
5
164
100
AcDbEntity
8
0
100
AcDbLine
10
26.349999999999994
20
9.5628327741265196
30
0
11
28.249999999999996
21
9.562832774126516
31
0
0
LINE
5
165
100
AcDbEntity
8
0
100
AcDbLine
10
28.249999999999996
20
9.562832774126516
30
0
11
28.249999999999996
21
8.3628327741265167
31
0
0
LINE
5
166
100
AcDbEntity
8
0
100
AcDbLine
10
28.249999999999996
20
8.3628327741265167
30
0
11
26.349999999999998
21
8.3628327741265167
31
0
0
LINE
5
167
100
AcDbEntity
8
0
100
AcDbLine
10
26.349999999999998
20
8.3628327741265167
30
0
11
26.349999999999998
21
6.4628327741265226
31
0
0
LINE
5
168
100
AcDbEntity
8
0
100
AcDbLine
10
26.349999999999998
20
6.4628327741265226
30
0
11
25.149999999999999
21
6.4628327741265226
31
0
0
LINE
5
169
100
AcDbEntity
8
0
100
AcDbLine
10
25.149999999999999
20
6.4628327741265226
30
0
11
25.150000000000002
21
8.3628327741265167
31
0
0
LINE
5
170
100
AcDbEntity
8
0
100
AcDbLine
10
25.150000000000002
20
8.3628327741265167
30
0
11
23.25
21
8.3628327741265167
31
0
0
LINE
5
171
100
AcDbEntity
8
0
100
AcDbLine
10
23.25
20
8.3628327741265167
30
0
11
23.25
21
9.562832774126516
31
0
0
LINE
5
172
100
AcDbEntity
8
0
100
AcDbLine
10
23.25
20
9.562832774126516
30
0
11
25.150000000000002
21
9.562832774126516
31
0
0
LINE
5
173
100
AcDbEntity
8
0
100
AcDbLine
10
25.150000000000002
20
9.562832774126516
30
0
11
25.149999999999999
21
11.462832774126513
31
0
0
LINE
5
174
100
AcDbEntity
8
0
100
AcDbLine
10
25.149999999999999
20
11.462832774126513
30
0
11
26.349999999999998
21
11.462832774126513
31
0
0
LINE
5
175
100
AcDbEntity
8
0
100
AcDbLine
10
26.349999999999998
20
11.462832774126513
30
0
11
26.349999999999994
21
9.5628327741265196
31
0
0
CIRCLE
5
176
100
AcDbEntity
8
0
100
AcDbCircle
10
37.624999999999993
20
8.9628327741265164
30
0
40
2.7100000000000009
0
LINE
5
177
100
AcDbEntity
8
0
100
AcDbLine
10
38.224999999999994
20
9.562832774126516
30
0
11
40.124999999999993
21
9.562832774126516
31
0
0
LINE
5
178
100
AcDbEntity
8
0
100
AcDbLine
10
40.124999999999993
20
9.562832774126516
30
0
11
40.124999999999993
21
8.3628327741265167
31
0
0
LINE
5
179
100
AcDbEntity
8
0
100
AcDbLine
10
40.124999999999993
20
8.3628327741265167
30
0
11
38.224999999999994
21
8.3628327741265167
31
0
0
LINE
5
180
100
AcDbEntity
8
0
100
AcDbLine
10
38.224999999999994
20
8.3628327741265167
30
0
11
38.224999999999994
21
6.4628327741265226
31
0
0
LINE
5
181
100
AcDbEntity
8
0
100
AcDbLine
10
38.224999999999994
20
6.4628327741265226
30
0
11
37.024999999999999
21
6.4628327741265226
31
0
0
LINE
5
182
100
AcDbEntity
8
0
100
AcDbLine
10
37.024999999999999
20
6.4628327741265226
30
0
11
37.024999999999999
21
8.3628327741265167
31
0
0
LINE
5
183
100
AcDbEntity
8
0
100
AcDbLine
10
37.024999999999999
20
8.3628327741265167
30
0
11
35.125
21
8.3628327741265167
31
0
0
LINE
5
184
100
AcDbEntity
8
0
100
AcDbLine
10
35.125
20
8.3628327741265167
30
0
11
35.125
21
9.562832774126516
31
0
0
LINE
5
185
100
AcDbEntity
8
0
100
AcDbLine
10
35.125
20
9.562832774126516
30
0
11
37.024999999999999
21
9.562832774126516
31
0
0
LINE
5
186
100
AcDbEntity
8
0
100
AcDbLine
10
37.024999999999999
20
9.562832774126516
30
0
11
37.024999999999999
21
11.462832774126513
31
0
0
LINE
5
187
100
AcDbEntity
8
0
100
AcDbLine
10
37.024999999999999
20
11.462832774126513
30
0
11
38.224999999999994
21
11.462832774126513
31
0
0
LINE
5
188
100
AcDbEntity
8
0
100
AcDbLine
10
38.224999999999994
20
11.462832774126513
30
0
11
38.224999999999994
21
9.562832774126516
31
0
0
ELLIPSE
5
189
100
AcDbEntity
8
0
100
AcDbEllipse
10
25.755533619747027
20
10.963895492912208
30
0
11
386.6993848526684
21
-3.2619486459852198e-05
31
0.0
40
2.7468864212012767e-06
41
4.741535812833094
42
4.7446404626316037
0
LINE
5
190
100
AcDbEntity
8
0
100
AcDbLine
10
37.025000000012483
20
10.962832774168573
30
0
11
37.024999999999999
21
9.562832774126516
31
0
0
LINE
5
191
100
AcDbEntity
8
0
100
AcDbLine
10
37.024999999999999
20
9.562832774126516
30
0
11
35.625000000000007
21
9.562832774126516
31
0
0
LINE
5
192
100
AcDbEntity
8
0
100
AcDbLine
10
35.625000000000007
20
9.562832774126516
30
0
11
35.624999999999993
21
8.3628327741265149
31
0
0
LINE
5
193
100
AcDbEntity
8
0
100
AcDbLine
10
35.624999999999993
20
8.3628327741265149
30
0
11
37.024999999999999
21
8.3628327741265167
31
0
0
LINE
5
194
100
AcDbEntity
8
0
100
AcDbLine
10
37.024999999999999
20
8.3628327741265167
30
0
11
37.025000000000006
21
6.9628327741265146
31
0
0
ELLIPSE
5
195
100
AcDbEntity
8
0
100
AcDbEllipse
10
25.758361733471062
20
6.9634297202096471
30
0
11
-381.65218816016881
21
1.8560763526221277e-05
31
0.0
40
1.5633557696451637e-06
41
1.6003213099502858
42
1.6034670586710793
0
LINE
5
196
100
AcDbEntity
8
0
100
AcDbLine
10
38.225000000016131
20
6.9628327741746174
30
0
11
38.224999999999994
21
8.3628327741265167
31
0
0
LINE
5
197
100
AcDbEntity
8
0
100
AcDbLine
10
39.624999999999993
20
8.3628327741265167
30
0
11
39.624999999999993
21
9.562832774126516
31
0
0
LINE
5
198
100
AcDbEntity
8
0
100
AcDbLine
10
38.224999999999994
20
9.562832774126516
30
0
11
38.225000000013736
21
10.96283277416857
31
0
0
SPLINE
5
199
100
AcDbEntity
8
0
100
AcDbSpline
70
1064
71
3
72
14
73
10
74
0
42
0.000000001
43
0.0000000001
44
0.0000000001
40
0.00047940309517155926
40
0.00047940309517155926
40
0.00047940309517155926
40
0.00047940309517155926
40
0.0050685654275480696
40
0.0050685654275480696
40
0.0050685654275480696
40
0.0087932706928861536
40
0.0087932706928861536
40
0.0087932706928861536
40
0.012031787204171604
40
0.012031787204171604
40
0.012031787204171604
40
0.012031787204171604
10
47.886381625201366
20
13.478742525173216
30
0
10
47.891798749638205
20
11.956015628788082
30
0
10
47.897459778903489
20
10.433287863022368
30
0
10
47.903404530380485
20
8.9105591189346018
30
0
10
47.90822947347985
20
7.6746656464436791
30
0
10
47.913241310624144
20
6.4387714981207287
30
0
10
47.918461668439363
20
5.2028767053227787
30
0
10
47.923000608778281
20
4.1283042472186136
30
0
10
47.927697181479807
20
3.0537312779093324
30
0
10
47.932565954130652
20
1.9791578759599271
30
0
0
SPLINE
5
200
100
AcDbEntity
8
0
100
AcDbSpline
70
1064
71
3
72
14
73
10
74
0
42
0.000000001
43
0.0000000001
44
0.0000000001
40
0
40
0
40
0
40
0
40
0.019618386301866641
40
0.019618386301866641
40
0.038052689004923833
40
0.038052689004923833
40
0.05647124115435382
40
0.05647124115435382
40
0.076159998683523134
40
0.076159998683523134
40
0.076159998683523134
40
0.076159998683523134
10
47.886381690726068
20
13.478742525043131
30
0
10
47.886150095066156
20
13.543838162423661
30
0
10
47.873448373237856
20
13.608300081442351
30
0
10
47.824747974175203
20
13.725015288800428
30
0
10
47.7907129182977
20
13.776517234533747
30
0
10
47.704732186300376
20
13.86400690988927
30
0
10
47.653833140794426
20
13.898956807105682
30
0
10
47.537569544758782
20
13.949844565586272
30
0
10
47.472922072314461
20
13.963673617682863
30
0
10
47.407404859288995
20
13.964886338494738
30
0
0
SPLINE
5
201
100
AcDbEntity
8
0
100
AcDbSpline
70
1064
71
3
72
10
73
6
74
0
42
0.000000001
43
0.0000000001
44
0.0000000001
40
-4.3331839350675763
40
-4.3331839350675763
40
-4.3331839350675763
40
-4.3331839350675763
40
-2.1665928355585251
40
-2.1665928355585251
40
-9.9839152275595763e-07
40
-9.9839152275595763e-07
40
-9.9839152275595763e-07
40
-9.9839152275595763e-07
10
4.0925951407959982
20
13.964886339023792
30
0
10
11.30292149691731
20
14.098349171667358
30
0
10
18.528003654606351
20
14.16499540955758
30
0
10
32.971991424533201
20
14.164995454946151
30
0
10
40.197076048207961
20
14.098349217081932
30
0
10
47.407404859201272
20
13.96488633902125
30
0
0
SPLINE
5
202
100
AcDbEntity
8
0
100
AcDbSpline
70
1064
71
3
72
14
73
10
74
0
42
0.000000001
43
0.0000000001
44
0.0000000001
40
0
40
0
40
0
40
0
40
0.019640905643451462
40
0.019640905643451462
40
0.038056225200629061
40
0.038056225200629061
40
0.056489854806036584
40
0.056489854806036584
40
0.07615255789386359
40
0.07615255789386359
40
0.07615255789386359
40
0.07615255789386359
10
4.0925951407082781
20
13.964886338497166
30
0
10
4.027231011964715
20
13.963676451268492
30
0
10
3.9627307310964528
20
13.949909087595337
30
0
10
3.8465642990015296
20
13.899193047104536
30
0
10
3.7956354663367242
20
13.864294993210383
30
0
10
3.7095695326463929
20
13.776890095239001
30
0
10
3.6754824785833633
20
13.725417764098678
30
0
10
3.6266116461991906
20
13.608602592141256
30
0
10
3.6138504515360692
20
13.543991799089037
30
0
10
3.613618309271962
20
13.478742525042817
30
0
0
SPLINE
5
203
100
AcDbEntity
8
0
100
AcDbSpline
70
1064
71
3
72
14
73
10
74
0
42
0.000000001
43
0.0000000001
44
0.0000000001
40
0.00048618916472509824
40
0.00048618916472509824
40
0.00048618916472509824
40
0.00048618916472509824
40
0.0050706875984113048
40
0.0050706875984113048
40
0.0050706875984113048
40
0.0087943317867223165
40
0.0087943317867223165
40
0.0087943317867223165
40
0.012038573200987413
40
0.012038573200987413
40
0.012038573200987413
40
0.012038573200987413
10
3.5674340458694234
20
1.9791578759599624
30
0
10
3.5743263622774042
20
3.5003420472076545
30
0
10
3.5808736584938972
20
5.0215253507634756
30
0
10
3.5871170367922267
20
6.5427076079705255
30
0
10
3.5921880646597861
20
7.7782498495798
30
0
10
3.5970585465833018
20
9.0137914477635519
30
0
10
3.6017499508709374
20
10.249332397762201
30
0
10
3.6058373575379834
20
11.325802897169449
30
0
10
3.6097888175817201
20
12.402272925253957
30
0
10
3.6136183747984791
20
13.478742525173324
30
0
0
SPLINE
5
204
100
AcDbEntity
8
0
100
AcDbSpline
70
1064
71
3
72
16
73
12
74
0
42
0.000000001
43
0.0000000001
44
0.0000000001
40
1.300878180505114e-09
40
1.300878180505114e-09
40
1.300878180505114e-09
40
1.300878180505114e-09
40
0.0097845488409876776
40
0.0097845488409876776
40
0.020128098587838778
40
0.020128098587838778
40
0.03888519582524505
40
0.03888519582524505
40
0.057792286323777045
40
0.057792286323777045
40
0.07781029993712836
40
0.07781029993712836
40
0.07781029993712836
40
0.07781029993712836
10
3.5674340257404347
20
1.9791578748022047
30
0
10
3.5672869390504101
20
1.9466917306573435
30
0
10
3.5703918637571768
20
1.9143258120287034
30
0
10
3.5834786782073285
20
1.8489043965236154
30
0
10
3.5937978332219069
20
1.8161438816600175
30
0
10
3.6325429257368929
20
1.7278788862082652
30
0
10
3.6684079193219716
20
1.6765944882168626
30
0
10
3.7582879081163529
20
1.5899788576267118
30
0
10
3.8114373242124651
20
1.5557386386252283
30
0
10
3.931243868981678
20
1.5070852225755018
30
0
10
3.9973013732640776
20
1.4944348886764716
30
0
10
4.0640016411281552
20
1.4943198564361992
30
0
0
SPLINE
5
205
100
AcDbEntity
8
0
100
AcDbSpline
70
1064
71
3
72
10
73
6
74
0
42
0.000000001
43
0.0000000001
44
0.0000000001
40
9.9895074242965061e-07
40
9.9895074242965061e-07
40
9.9895074242965061e-07
40
9.9895074242965061e-07
40
2.1695533836903875
40
2.1695533836903875
40
4.3391064827067467
40
4.3391064827067467
40
4.3391064827067467
40
4.3391064827067467
10
47.435998358868154
20
1.494319856436531
30
0
10
40.216346220263681
20
1.4818688179627286
30
0
10
32.981839890632173
20
1.4756501853058346
30
0
10
18.51816487383396
20
1.4756501812079279
30
0
10
11.283656156652844
20
1.4818688138600946
30
0
10
4.0640016411281543
20
1.4943198564361972
30
0
0
SPLINE
5
206
100
AcDbEntity
8
0
100
AcDbSpline
70
1064
71
3
72
16
73
12
74
0
42
0.000000001
43
0.0000000001
44
0.0000000001
40
5.3889327454719223e-10
40
5.3889327454719223e-10
40
5.3889327454719223e-10
40
5.3889327454719223e-10
40
0.019999689654271246
40
0.019999689654271246
40
0.038931086466430037
40
0.038931086466430037
40
0.057714997626076014
40
0.057714997626076014
40
0.068093478321733431
40
0.068093478321733431
40
0.077910309249388521
40
0.077910309249388521
40
0.077910309249388521
40
0.077910309249388521
10
47.435998358868119
20
1.4943198564365299
30
0
10
47.502551625345511
20
1.4944346351563567
30
0
10
47.568466329187167
20
1.5070295256736024
30
0
10
47.68817977106373
20
1.555524855469125
30
0
10
47.741359741622709
20
1.5897181364472401
30
0
10
47.831324408252527
20
1.676258862306637
30
0
10
47.867240248911585
20
1.7275187050314988
30
0
10
47.906093695446103
20
1.8158235446063804
30
0
10
47.91645530631277
20
1.8486460506419773
30
0
10
47.92959564912401
20
1.9141959936781223
30
0
10
47.932713356373789
20
1.9466265192688734
30
0
10
47.932565974246685
20
1.9791578748017991
30
0
0
SPLINE
5
207
100
AcDbEntity
8
0
100
AcDbSpline
70
1064
71
3
72
55
73
51
74
0
42
0.000000001
43
0.0000000001
44
0.0000000001
40
0.85554780433505861
40
0.85554780433505861
40
0.85554780433505861
40
0.85554780433505861
40
0.88602364003852419
40
0.88602364003852419
40
0.92832827743390833
40
0.92832827743390833
40
1.0119311553575501
40
1.0119311553575501
40
1.1010554534383412
40
1.1010554534383412
40
1.1969337728940417
40
1.1969337728940417
40
1.299748694306103
40
1.299748694306103
40
1.4083874950258615
40
1.4083874950258615
40
1.5147484603847161
40
1.5147484603847161
40
1.6224979024030204
40
1.6224979024030204
40
1.6724374257395103
40
1.6724374257395103
40
1.7061096223268226
40
1.7061096223268226
40
1.7110960183730697
40
1.7110960183730697
40
1.7110960183730697
40
1.7434001324688835
40
1.7434001324688835
40
1.7874706645648961
40
1.7874706645648961
40
1.8785658512286796
40
1.8785658512286796
40
1.9687144477871268
40
1.9687144477871268
40
2.0657106777457375
40
2.0657106777457375
40
2.1696874714597754
40
2.1696874714597754
40
2.2781483481822926
40
2.2781483481822926
40
2.3838077503316395
40
2.3838077503316395
40
2.4837980058030831
40
2.4837980058030831
40
2.5318424290548402
40
2.5318424290548402
40
2.5651123718041995
40
2.5651123718041995
40
2.5666438227081283
40
2.5666438227081283
40
2.5666438227081283
40
2.5666438227081283
10
37.625000119886458
20
11.672832774126514
30
0
10
37.726531097760379
20
11.672832768439577
30
0
10
37.827999401385654
20
11.667126919424717
30
0
10
38.069021922750679
20
11.639924830582713
30
0
10
38.207685749743106
20
11.61320295375848
30
0
10
38.612345534648107
20
11.501908779086264
30
0
10
38.868004919448083
20
11.387014044097645
30
0
10
39.35064908176534
20
11.07338765542751
30
0
10
39.571249122220365
20
10.87181706605903
30
0
10
39.952056409780653
20
10.387879862561469
30
0
10
40.103384119697793
20
10.104414287499711
30
0
10
40.307694967165602
20
9.476604369150138
30
0
10
40.350952650768861
20
9.1349443879673071
30
0
10
40.307383184194094
20
8.4348043400613442
30
0
10
40.213470508528715
20
8.0832291129713951
30
0
10
39.897126986504254
20
7.4443019424387069
30
0
10
39.680328922960769
20
7.1616085730940391
30
0
10
39.146687198999828
20
6.6920332876338131
30
0
10
38.833706304329681
20
6.5109715920078557
30
0
10
38.336821188564635
20
6.3427158490753923
30
0
10
38.174820072767957
20
6.3039888628131511
30
0
10
37.89923110985049
20
6.2644130342482027
30
0
10
37.787336306798771
20
6.2553743551168122
30
0
10
37.658566994418457
20
6.2529897486737234
30
0
10
37.641954638011818
20
6.2528348885194998
30
0
10
37.625341398111132
20
6.2528327956306553
30
0
10
37.517713365304381
20
6.2528192369563387
30
0
10
37.410163513800356
20
6.2592173649437459
30
0
10
37.157426226544594
20
6.2894365582942147
30
0
10
37.013235977501523
20
6.3187025653488753
30
0
10
36.58042342734894
20
6.4438722772402333
30
0
10
36.305062627612649
20
6.5766306303020228
30
0
10
35.812522918077605
20
6.9258698033920805
30
0
10
35.598296817697872
20
7.1389621380211743
30
0
10
35.235279622821771
20
7.6447101219706823
30
0
10
35.095615263186851
20
7.9381041340499161
30
0
10
34.919775562984391
20
8.5819283964343676
30
0
10
34.893344546437284
20
8.929168660033282
30
0
10
34.973702813488721
20
9.6293018725653958
30
0
10
35.085515777850347
20
9.9750780697763926
30
0
10
35.433181812700617
20
10.594687310323661
30
0
10
35.662570257532835
20
10.864468240397391
30
0
10
36.197174998133271
20
11.290018370622255
30
0
10
36.493171125410747
20
11.447546685064072
30
0
10
36.963067854554822
20
11.595609354281526
30
0
10
37.11958068876185
20
11.630088708874453
30
0
10
37.388167639033924
20
11.664737261487534
30
0
10
37.498848345964724
20
11.67216346684355
30
0
10
37.614795830727068
20
11.672818366235671
30
0
10
37.619898054424866
20
11.672832774321156
30
0
10
37.625000119886458
20
11.672832774126514
30
0
0
SPLINE
5
208
100
AcDbEntity
8
0
100
AcDbSpline
70
1064
71
3
72
55
73
51
74
0
42
0.000000001
43
0.0000000001
44
0.0000000001
40
0.85552911562426748
40
0.85552911562426748
40
0.85552911562426748
40
0.85552911562426748
40
0.88346999833480511
40
0.88346999833480511
40
0.92702330541927025
40
0.92702330541927025
40
1.0156578575207316
40
1.0156578575207316
40
1.106114327833432
40
1.106114327833432
40
1.2033930721719732
40
1.2033930721719732
40
1.3073359072372346
40
1.3073359072372346
40
1.4154270723428362
40
1.4154270723428362
40
1.5205564652813932
40
1.5205564652813932
40
1.6232745495826004
40
1.6232745495826004
40
1.6719493857053125
40
1.6719493857053125
40
1.7053131023827361
40
1.7053131023827361
40
1.7110816870565684
40
1.7110816870565684
40
1.7110816870565684
40
1.743733200624642
40
1.743733200624642
40
1.7893875572489888
40
1.7893875572489888
40
1.8824641155709219
40
1.8824641155709219
40
1.973754540188025
40
1.973754540188025
40
2.0719280602647223
40
2.0719280602647223
40
2.1767916328963093
40
2.1767916328963093
40
2.2845198026296751
40
2.2845198026296751
40
2.3888206181805423
40
2.3888206181805423
40
2.4829591086329716
40
2.4829591086329716
40
2.5294042039926818
40
2.5294042039926818
40
2.5622955485862757
40
2.5622955485862757
40
2.5666108026808359
40
2.5666108026808359
40
2.5666108026808359
40
2.5666108026808359
10
13.874999880062884
20
11.672832774126515
30
0
10
13.968073621313062
20
11.67283277699709
30
0
10
14.061080890623296
20
11.668037911556324
30
0
10
14.297948090742858
20
11.643552609700006
30
0
10
14.440769616008716
20
11.617078980572613
30
0
10
14.86560236830033
20
11.502489244669183
30
0
10
15.135793772652955
20
11.379709828547263
30
0
10
15.630727496603143
20
11.048958729407838
30
0
10
15.850999773556765
20
10.841578061098001
30
0
10
16.228050432387924
20
10.345411936139072
30
0
10
16.375840211874525
20
10.055547530955959
30
0
10
16.568897178130918
20
9.4165953411120586
30
0
10
16.604747210161776
20
9.0704380759126728
30
0
10
16.543454519572652
20
8.3694213128159234
30
0
10
16.441532671193006
20
8.0214929903425922
30
0
10
16.112115049774602
20
7.3939005589565436
30
0
10
15.891210778050054
20
7.1184973674681915
30
0
10
15.362419252635103
20
6.6718276754268224
30
0
10
15.061528541154585
20
6.5024512078944765
30
0
10
14.583102200477649
20
6.3419522309055125
30
0
10
14.424967202414226
20
6.3042704019787834
30
0
10
14.154379851994552
20
6.2649795961806944
30
0
10
14.04347327771773
20
6.25579110696152
30
0
10
13.913116109790245
20
6.2530326722639105
30
0
10
13.893896716943752
20
6.2528305057940319
30
0
10
13.874677448670409
20
6.2528327933219208
30
0
10
13.765891978008572
20
6.2528457412549274
30
0
10
13.65723080768637
20
6.2594089805489048
30
0
10
13.398345956344484
20
6.2907518050212463
30
0
10
13.249277114719947
20
6.321687340290099
30
0
10
12.8067424911223
20
6.4530821057480452
30
0
10
12.527428806801126
20
6.5913940313823982
30
0
10
12.03274866774397
20
6.9523236109663253
30
0
10
11.819700023447153
20
7.1707580041168395
30
0
10
11.461847975057882
20
7.6873583673772004
30
0
10
11.326201379187953
20
7.9862503665152262
30
0
10
11.162012287858868
20
8.639224131159132
30
0
10
11.142862288959542
20
8.9898565466180607
30
0
10
11.239715993788806
20
9.6889853145616343
30
0
10
11.358494570998269
20
10.030408805545727
30
0
10
11.71668690248444
20
10.637992917937726
30
0
10
11.948795076224364
20
10.900508559687159
30
0
10
12.473146001070589
20
11.30319043082644
30
0
10
12.753243789604873
20
11.449643509325185
30
0
10
13.199729870392812
20
11.591915866155027
30
0
10
13.350983088315726
20
11.62618906285531
30
0
10
13.612909384285723
20
11.662355883988063
30
0
10
13.722294935901489
20
11.67074553852788
30
0
10
13.846249250096012
20
11.672718403745703
30
0
10
13.860625357930044
20
11.672832773451844
30
0
10
13.874999880062884
20
11.672832774126515
30
0
0
SPLINE
5
209
100
AcDbEntity
8
0
100
AcDbSpline
70
1064
71
3
72
55
73
51
74
0
42
0.000000001
43
0.0000000001
44
0.0000000001
40
0.85535596222363042
40
0.85535596222363042
40
0.85535596222363042
40
0.85535596222363042
40
0.88548774339361414
40
0.88548774339361414
40
0.92901888197299964
40
0.92901888197299964
40
1.0172366028081807
40
1.0172366028081807
40
1.1072997413134265
40
1.1072997413134265
40
1.2041795468841037
40
1.2041795468841037
40
1.3079173353609996
40
1.3079173353609996
40
1.4162935610732634
40
1.4162935610732634
40
1.5218222743241108
40
1.5218222743241108
40
1.6241177590931049
40
1.6241177590931049
40
1.6727633816735064
40
1.6727633816735064
40
1.7061911168423651
40
1.7061911168423651
40
1.7107122531102754
40
1.7107122531102754
40
1.7107122531102754
40
1.7432866853939892
40
1.7432866853939892
40
1.7882621834667924
40
1.7882621834667924
40
1.8827977561165896
40
1.8827977561165896
40
1.9737190469957029
40
1.9737190469957029
40
2.0715378491525507
40
2.0715378491525507
40
2.1762408578580286
40
2.1762408578580286
40
2.2843357326149869
40
2.2843357326149869
40
2.3891265330464897
40
2.3891265330464897
40
2.4840614104099585
40
2.4840614104099585
40
2.5308281045180125
40
2.5308281045180125
40
2.563870177681085
40
2.563870177681085
40
2.5660682153339058
40
2.5660682153339058
40
2.5660682153339058
40
2.5660682153339058
10
25.749999999982741
20
11.672832774126519
30
0
10
25.85042847293138
20
11.672832772489761
30
0
10
25.950782920034648
20
11.667250172476237
30
0
10
26.194801074376727
20
11.64001514419234
30
0
10
26.337460948166846
20
11.612367215344065
30
0
10
26.760396635749096
20
11.494555533605054
30
0
10
27.028727401876516
20
11.370155712444038
30
0
10
27.519826041696078
20
11.036889048017965
30
0
10
27.73808036618864
20
10.828650154283604
30
0
10
28.111027199126678
20
10.331544244911051
30
0
10
28.256700156205898
20
10.041717472970175
30
0
10
28.446066317859497
20
9.403204257014659
30
0
10
28.480129887490605
20
9.0574763211345157
30
0
10
28.415699726915271
20
8.3566624752193537
30
0
10
28.311827751031927
20
8.0085595667600078
30
0
10
27.978442232575826
20
7.3814003829717301
30
0
10
27.755365931350745
20
7.1065418983229467
30
0
10
27.224514000161541
20
6.6637715205468071
30
0
10
26.924286208430928
20
6.4968043146677275
30
0
10
26.446841932290134
20
6.3389470940358255
30
0
10
26.288683460626906
20
6.3019668171745487
30
0
10
26.017811708553129
20
6.2637977867799011
30
0
10
25.906628571966273
20
6.255069276799885
30
0
10
25.780150139429612
20
6.2529585912570891
30
0
10
25.765079960021524
20
6.2528328270054212
30
0
10
25.750009505795248
20
6.2528327741431875
30
0
10
25.64142806485021
20
6.2528323932749421
30
0
10
25.532949082388811
20
6.2593577837648535
30
0
10
25.276332773040295
20
6.2903411610479019
30
0
10
25.129281209625709
20
6.3206245381178752
30
0
10
24.683323399079541
20
6.4517542483395989
30
0
10
24.399152774975327
20
6.5925482824947483
30
0
10
23.901846063064951
20
6.9578531388610285
30
0
10
23.689942135913149
20
7.1763591283168182
30
0
10
23.334161868059585
20
7.6926284762752308
30
0
10
23.199496198316911
20
7.9910345774777491
30
0
10
23.036600517431467
20
8.6430257436762865
30
0
10
23.017984543870238
20
8.9931873427649336
30
0
10
23.115568511194052
20
9.6925925957935029
30
0
10
23.235220464412592
20
10.034741009523202
30
0
10
23.595674490922214
20
10.643374104223774
30
0
10
23.829339915242937
20
10.906233134166779
30
0
10
24.357913543771296
20
11.309325931070294
30
0
10
24.640891218962402
20
11.455631399660586
30
0
10
25.091629408341984
20
11.596258642944759
30
0
10
25.244138781169806
20
11.629760351508418
30
0
10
25.507906548002911
20
11.664243532805596
30
0
10
25.617883451583168
20
11.671850362088582
30
0
10
25.73534759703238
20
11.672803067295805
30
0
10
25.74267399546574
20
11.672832774068588
30
0
10
25.749999999982741
20
11.672832774126519
30
0
0
ENDSEC
0
SECTION
2
OBJECTS
0
DICTIONARY
5
C
100
AcDbDictionary
3
ACAD_GROUP
350
D
3
ACAD_MLINESTYLE
350
17
0
DICTIONARY
5
D
100
AcDbDictionary
0
DICTIONARY
5
1A
330
C
100
AcDbDictionary
0
DICTIONARY
5
17
100
AcDbDictionary
0
ENDSEC
0
EOF
